<svg width="48" height="48" viewBox="0 0 48 48" fill="none" xmlns="http://www.w3.org/2000/svg">
<g clip-path="url(#clip0_759_660)">
<path d="M38.292 43.4551C38.1706 43.455 38.0505 43.4304 37.9389 43.3827C37.8273 43.335 37.7264 43.2652 37.6425 43.1776L18.9645 23.8966C18.792 23.7162 18.6958 23.4763 18.6958 23.2268C18.6958 22.9773 18.792 22.7374 18.9645 22.5571L24.195 17.1571C24.279 17.0697 24.3797 17.0002 24.4912 16.9528C24.6027 16.9053 24.7226 16.8809 24.8438 16.8809C24.9649 16.8809 25.0848 16.9053 25.1963 16.9528C25.3078 17.0002 25.4085 17.0697 25.4925 17.1571L44.1705 36.4381C44.343 36.6184 44.4392 36.8583 44.4392 37.1078C44.4392 37.3573 44.343 37.5972 44.1705 37.7776L38.94 43.1776C38.8563 43.265 38.7557 43.3347 38.6443 43.3824C38.533 43.4301 38.4131 43.4548 38.292 43.4551ZM20.9115 23.2276L38.292 41.1691L42.2235 37.1101L24.843 19.1686L20.9115 23.2276Z" fill="black"/>
<path d="M12.1424 16.4642C12.021 16.4641 11.901 16.4395 11.7894 16.3918C11.6777 16.3441 11.5769 16.2743 11.4929 16.1867L8.50491 13.1012C8.33176 12.9212 8.23511 12.6811 8.23511 12.4314C8.23511 12.1817 8.33176 11.9416 8.50491 11.7617L13.7339 6.36165C13.8179 6.27432 13.9186 6.20483 14.0301 6.15737C14.1416 6.10991 14.2615 6.08545 14.3827 6.08545C14.5039 6.08545 14.6238 6.10991 14.7353 6.15737C14.8467 6.20483 14.9475 6.27432 15.0314 6.36165L18.0209 9.45015C18.1934 9.63048 18.2896 9.87038 18.2896 10.1199C18.2896 10.3694 18.1934 10.6093 18.0209 10.7897L12.7904 16.1897C12.7064 16.2766 12.6057 16.3457 12.4944 16.3929C12.3831 16.44 12.2633 16.4643 12.1424 16.4642ZM10.4504 12.4322L12.1424 14.1782L16.0739 10.1192L14.3834 8.37315L10.4504 12.4322Z" fill="black"/>
<path d="M12.8895 31.1162C12.7681 31.1161 12.648 31.0915 12.5363 31.0438C12.4247 30.9961 12.3239 30.9264 12.2399 30.8387L4.76846 23.1257C4.596 22.9454 4.49976 22.7055 4.49976 22.4559C4.49976 22.2064 4.596 21.9665 4.76846 21.7862L20.4584 5.5862C20.5703 5.46993 20.7112 5.38554 20.8665 5.3417L29.085 3.0272C29.2415 2.9839 29.4068 2.98377 29.5634 3.02682C29.72 3.06986 29.862 3.15448 29.9744 3.2717L34.4579 7.8992C34.6304 8.07952 34.7266 8.31943 34.7266 8.56895C34.7266 8.81847 34.6304 9.05837 34.4579 9.2387L13.5375 30.8387C13.4537 30.9262 13.3531 30.9958 13.2418 31.0435C13.1304 31.0912 13.0106 31.1159 12.8895 31.1162ZM6.71542 22.4567L12.8895 28.8302L32.511 8.5802L29.061 5.0117L21.5909 7.1117L6.71542 22.4567Z" fill="black"/>
<path d="M14.2185 40.7071C13.6507 40.7266 13.09 40.5758 12.6084 40.2743C12.1269 39.9728 11.7465 39.5343 11.516 39.015C11.2856 38.4957 11.2156 37.9193 11.315 37.36C11.4144 36.8006 11.6788 36.2837 12.0741 35.8757C12.4695 35.4676 12.9777 35.1871 13.5337 35.07C14.0896 34.9529 14.6678 35.0046 15.1942 35.2186C15.7205 35.4325 16.1708 35.7989 16.4874 36.2706C16.804 36.7424 16.9725 37.298 16.971 37.8661C16.9819 38.6076 16.6981 39.3231 16.1821 39.8557C15.6661 40.3883 14.9599 40.6945 14.2185 40.7071ZM14.2185 36.9181C14.0298 36.9121 13.8437 36.9626 13.6839 37.0631C13.5241 37.1636 13.3979 37.3095 13.3216 37.4821C13.2452 37.6547 13.2221 37.8462 13.2552 38.032C13.2883 38.2178 13.3762 38.3895 13.5075 38.5251C13.6388 38.6607 13.8076 38.754 13.9923 38.7931C14.1769 38.8322 14.369 38.8152 14.544 38.7445C14.7189 38.6737 14.8689 38.5523 14.9744 38.3958C15.08 38.2393 15.1364 38.0549 15.1365 37.8661C15.1401 37.6188 15.0455 37.3801 14.8734 37.2024C14.7013 37.0247 14.4658 36.9225 14.2185 36.9181Z" fill="black"/>
<path d="M39.9105 19.8689C39.1561 19.8928 38.4117 19.6909 37.7728 19.2891C37.1338 18.8874 36.6294 18.304 36.324 17.6137C36.0187 16.9234 35.9264 16.1577 36.0589 15.4147C36.1914 14.6716 36.5428 13.985 37.068 13.4429C37.5932 12.9008 38.2682 12.5278 39.0067 12.3717C39.7452 12.2156 40.5134 12.2836 41.213 12.5668C41.9127 12.8501 42.5118 13.3358 42.9337 13.9617C43.3556 14.5875 43.581 15.3251 43.5811 16.0799C43.5959 17.0688 43.2177 18.0233 42.5296 18.7336C41.8414 19.444 40.8994 19.8523 39.9105 19.8689ZM39.9105 14.1854C39.5331 14.1734 39.1608 14.2744 38.8412 14.4755C38.5216 14.6765 38.2692 14.9683 38.1165 15.3136C37.9638 15.6589 37.9177 16.042 37.9841 16.4137C38.0504 16.7854 38.2262 17.1288 38.489 17.3999C38.7517 17.6711 39.0895 17.8576 39.4589 17.9356C39.8283 18.0136 40.2126 17.9795 40.5626 17.8377C40.9125 17.6959 41.2121 17.4528 41.4231 17.1396C41.634 16.8265 41.7466 16.4575 41.7465 16.0799C41.7537 15.5854 41.5645 15.1082 41.2203 14.753C40.8761 14.3978 40.405 14.1937 39.9105 14.1854Z" fill="black"/>
<path d="M34.4058 39.759H21.5597C21.315 39.7493 21.0836 39.6452 20.9139 39.4686C20.7442 39.292 20.6494 39.0566 20.6494 38.8118C20.6494 38.5669 20.7442 38.3315 20.9139 38.1549C21.0836 37.9783 21.315 37.8742 21.5597 37.8645H34.4058C34.6505 37.8742 34.8819 37.9783 35.0516 38.1549C35.2213 38.3315 35.3161 38.5669 35.3161 38.8118C35.3161 39.0566 35.2213 39.292 35.0516 39.4686C34.8819 39.6452 34.6505 39.7493 34.4058 39.759Z" fill="black"/>
<path d="M30.7351 43.5481H25.2301C24.9854 43.5383 24.754 43.4343 24.5843 43.2577C24.4146 43.0811 24.3198 42.8457 24.3198 42.6008C24.3198 42.3559 24.4146 42.1205 24.5843 41.9439C24.754 41.7674 24.9854 41.6633 25.2301 41.6536H30.7351C30.9798 41.6633 31.2112 41.7674 31.3809 41.9439C31.5506 42.1205 31.6454 42.3559 31.6454 42.6008C31.6454 42.8457 31.5506 43.0811 31.3809 43.2577C31.2112 43.4343 30.9798 43.5383 30.7351 43.5481Z" fill="black"/>
</g>
<defs>
<clipPath id="clip0_759_660">
<rect width="48" height="48" fill="white"/>
</clipPath>
</defs>
</svg>
