<svg width="48" height="48" viewBox="0 0 48 48" fill="none" xmlns="http://www.w3.org/2000/svg">
<g clip-path="url(#clip0_759_671)">
<path d="M3.70209 26.9205H7.48193V44.871C7.48193 44.9641 7.50062 45.0562 7.53668 45.142C7.57274 45.2277 7.62547 45.3054 7.69195 45.3705C7.82841 45.5044 8.01096 45.5811 8.20209 45.585H39.8971C40.0882 45.5811 40.2706 45.5044 40.407 45.3705C40.4755 45.3061 40.5307 45.2289 40.5693 45.1432C40.6079 45.0575 40.6292 44.965 40.6321 44.871V26.9205H44.3971C44.5367 26.9196 44.6726 26.8762 44.7869 26.796C44.9038 26.7235 44.9935 26.6143 45.042 26.4855C45.102 26.3621 45.118 26.2218 45.087 26.088C45.0717 25.9509 45.0078 25.8238 44.907 25.7295L24.567 4.71603C24.497 4.6493 24.4158 4.59547 24.3271 4.55703C24.2417 4.52054 24.1499 4.50118 24.057 4.50003C23.9592 4.49911 23.8624 4.51799 23.7721 4.55553C23.6859 4.58993 23.6089 4.64384 23.5471 4.71303L3.19195 25.7205C3.10206 25.8243 3.04012 25.9492 3.01196 26.0835C2.98907 26.2191 3.0047 26.3584 3.05701 26.4855C3.11528 26.6088 3.20289 26.7159 3.31207 26.7975C3.42847 26.8732 3.56332 26.9158 3.70209 26.9205ZM24.057 6.22353L42.762 25.545H39.8971C39.8102 25.543 39.7237 25.5572 39.642 25.587C39.5607 25.6225 39.4849 25.6695 39.417 25.7265C39.3572 25.7876 39.3113 25.8607 39.282 25.941C39.2402 26.0194 39.2195 26.1073 39.222 26.196V44.211H8.87701V26.1945C8.87732 26.1075 8.86203 26.0212 8.83197 25.9395C8.79719 25.8585 8.74617 25.7855 8.68201 25.725C8.61885 25.6617 8.54178 25.6139 8.45697 25.5855C8.37595 25.5534 8.28911 25.5391 8.20209 25.5435H5.33703L24.057 6.22353Z" fill="black"/>
<path d="M13.1972 28.6875C13.2012 28.7512 13.2179 28.8134 13.2462 28.8705C13.2746 28.9277 13.314 28.9787 13.3622 29.0205C13.4059 29.0623 13.4577 29.0946 13.5145 29.1155C13.5713 29.1365 13.6317 29.1454 13.6921 29.142C13.7551 29.1384 13.8169 29.1222 13.8736 29.0944C13.9302 29.0666 13.9809 29.0277 14.0222 28.98C14.1057 28.8833 14.1486 28.7581 14.1422 28.6305C14.096 27.8576 14.203 27.0833 14.4571 26.352C14.7232 25.6319 15.1256 24.9699 15.6422 24.402C16.1171 23.8995 16.6885 23.498 17.3222 23.2215C17.952 22.9492 18.631 22.8093 19.3171 22.8105C20.7466 23.0085 22.0487 23.7393 22.9622 24.8565C23.0117 24.9051 23.0703 24.9434 23.1347 24.9691C23.1991 24.9949 23.2679 25.0076 23.3372 25.0065C23.4043 25.0074 23.4708 24.9946 23.5327 24.9688C23.5947 24.943 23.6506 24.9048 23.6972 24.8565C24.2256 24.2977 24.8596 23.8494 25.5625 23.5373C26.2654 23.2252 27.0233 23.0557 27.7921 23.0385H27.8222C28.4152 23.0323 29.003 23.1508 29.5472 23.3865C30.0967 23.6224 30.5918 23.9686 31.0022 24.4035C31.9764 25.4609 32.5172 26.8462 32.5172 28.284C32.5172 29.7218 31.9764 31.107 31.0022 32.1645L23.4571 39.6495C23.4172 39.6891 23.3634 39.7113 23.3072 39.7113C23.251 39.7113 23.1971 39.6891 23.1572 39.6495L17.9971 34.518C17.9549 34.4737 17.9038 34.4389 17.8471 34.416C17.7899 34.3934 17.7287 34.3821 17.6671 34.383C17.6045 34.3823 17.5425 34.3954 17.4855 34.4213C17.4285 34.4472 17.3778 34.4853 17.3372 34.533C17.2489 34.6254 17.2005 34.7487 17.2022 34.8765C17.2068 35.0017 17.2544 35.1214 17.3372 35.2155L22.5121 40.347C22.6157 40.4528 22.7394 40.5368 22.8759 40.5941C23.0125 40.6515 23.1591 40.681 23.3072 40.681C23.4552 40.681 23.6019 40.6515 23.7384 40.5941C23.8749 40.5368 23.9986 40.4528 24.1022 40.347L31.6771 32.847C32.8247 31.6058 33.4622 29.9774 33.4622 28.287C33.4622 26.5965 32.8247 24.9682 31.6771 23.727C31.1829 23.1999 30.5856 22.7802 29.9222 22.494C29.2643 22.2091 28.5541 22.0645 27.8372 22.0695C26.1582 22.0842 24.5462 22.7306 23.3222 23.88C22.2932 22.7187 20.8618 21.9912 19.3171 21.8445C18.5038 21.8442 17.6992 22.0115 16.9534 22.3359C16.2076 22.6603 15.5365 23.1349 14.9821 23.73C14.3629 24.387 13.8878 25.1662 13.5872 26.0175C13.2788 26.8722 13.1461 27.7803 13.1972 28.6875Z" fill="black"/>
<path d="M16.8419 32.5994C16.9185 32.5979 16.9924 32.571 17.0519 32.5229C17.1194 32.4672 17.1754 32.399 17.2169 32.3219L17.907 30.8504L18.8671 32.8139C18.907 32.8973 18.9693 32.9679 19.0471 33.0179C19.1163 33.064 19.1998 33.0837 19.2823 33.0735C19.3649 33.0633 19.441 33.0239 19.4969 32.9624C19.5648 32.8939 19.6162 32.8108 19.6471 32.7194L20.907 28.5479L22.0621 34.4639C22.0814 34.5682 22.1279 34.6655 22.197 34.7459C22.2574 34.8193 22.343 34.8674 22.4371 34.8809H22.4819C22.5634 34.8784 22.642 34.8506 22.707 34.8014C22.7751 34.7433 22.8268 34.6683 22.8569 34.5839L24.3121 31.0289L24.8521 32.2949C24.8931 32.3731 24.9492 32.4424 25.017 32.4989C25.0765 32.5469 25.1507 32.5728 25.2271 32.5724H27.237C27.2984 32.5703 27.3585 32.5546 27.413 32.5263C27.4675 32.498 27.5149 32.4579 27.5519 32.4089C27.6302 32.2928 27.6721 32.1559 27.6721 32.0159C27.6721 31.8759 27.6302 31.7391 27.5519 31.6229C27.5149 31.5739 27.4675 31.5338 27.413 31.5056C27.3585 31.4773 27.2984 31.4615 27.237 31.4594H25.4969L24.6721 29.5799C24.6359 29.4987 24.579 29.4283 24.5071 29.3759C24.4476 29.3281 24.3734 29.3021 24.2971 29.3024C24.2094 29.3027 24.1245 29.3335 24.057 29.3894C23.9882 29.4542 23.9366 29.5351 23.907 29.6249L22.6021 32.7989L21.402 26.6084C21.3904 26.4992 21.343 26.3968 21.267 26.3174C21.1997 26.2465 21.1092 26.2019 21.012 26.1914C20.9658 26.1884 20.9197 26.1945 20.8759 26.2095C20.8322 26.2244 20.7918 26.2478 20.7571 26.2784C20.6766 26.3489 20.6189 26.4419 20.5919 26.5454L19.152 31.3019L18.282 29.5199C18.2451 29.4424 18.1882 29.3761 18.1171 29.3279C18.0565 29.2824 17.9828 29.2576 17.907 29.2574C17.8315 29.2639 17.759 29.2903 17.697 29.3339C17.63 29.3864 17.5783 29.4558 17.5471 29.5349L16.6021 31.4999H15.072C15.0107 31.502 14.9506 31.5178 14.8961 31.5461C14.8416 31.5743 14.7941 31.6144 14.7571 31.6634C14.6789 31.7796 14.637 31.9164 14.637 32.0564C14.637 32.1964 14.6789 32.3333 14.7571 32.4494C14.7941 32.4984 14.8416 32.5385 14.8961 32.5668C14.9506 32.5951 15.0107 32.6108 15.072 32.6129L16.8419 32.5994Z" fill="black"/>
</g>
<defs>
<clipPath id="clip0_759_671">
<rect width="48" height="48" fill="white"/>
</clipPath>
</defs>
</svg>
