<svg width="24" height="46" viewBox="0 0 24 46" fill="none" xmlns="http://www.w3.org/2000/svg">
<path d="M23.7329 26.2595H13.0829V15.983C14.3739 15.848 15.5696 15.2407 16.44 14.2777C17.3105 13.3147 17.7945 12.0641 17.7989 10.766C17.7989 8.207 15.6689 0.498505 12.5249 0.498505C9.3809 0.498505 7.25089 8.207 7.25089 10.766C7.2547 12.0873 7.75545 13.3588 8.65364 14.3278C9.55182 15.2969 10.7817 15.8926 12.0989 15.9965V23.3255L9.54888 22.2305C9.83469 21.4017 9.79802 20.4957 9.44614 19.6927C9.09426 18.8897 8.45299 18.2486 7.6499 17.897C6.38505 17.4292 5.0528 17.1694 3.70489 17.1275C2.34139 17.072 0.607377 17.234 0.124377 18.3185C-0.726123 20.231 3.27438 23.492 4.84788 24.1925C5.30829 24.3993 5.80715 24.5066 6.31188 24.5075C6.72864 24.5075 7.1421 24.4333 7.53289 24.2885C8.16263 24.0593 8.71022 23.6485 9.10639 23.108L12.1064 24.3965V26.2595H1.59888V32.477H3.80388L5.21389 45.497H20.1104L21.5264 32.4755H23.7299L23.7329 26.2595ZM7.18188 23.363C6.55003 23.5941 5.85282 23.5688 5.23938 23.2925C3.55638 22.5425 0.577379 19.7075 1.01688 18.7175C1.14888 18.4175 1.81038 18.1025 3.23838 18.1025C3.37188 18.1025 3.51288 18.1025 3.65838 18.1025C4.88131 18.1396 6.09049 18.3715 7.24038 18.7895C7.80838 19.0349 8.26566 19.4815 8.52427 20.0436C8.78289 20.6057 8.82459 21.2435 8.64139 21.8345L7.06188 21.158L6.67488 22.058L8.12689 22.679C7.87294 22.9813 7.54834 23.2162 7.18188 23.363ZM8.24089 10.763C8.24089 7.9205 10.4384 1.4795 12.5294 1.4795C14.6204 1.4795 16.8179 7.9205 16.8179 10.763C16.8138 11.8007 16.4333 12.8016 15.7469 13.5799C15.0605 14.3581 14.1149 14.8608 13.0859 14.9945V10.997H12.1019V15.005C11.0484 14.8989 10.0716 14.4064 9.35999 13.6225C8.64835 12.8385 8.25232 11.8188 8.24838 10.76L8.24089 10.763ZM19.2284 44.513H6.10039L4.81188 32.663H5.84988V36.3275C5.85015 36.3923 5.86289 36.4565 5.88739 36.5165C5.91214 36.576 5.94833 36.63 5.99389 36.6755C6.04 36.7211 6.0945 36.7572 6.15438 36.782C6.21377 36.8068 6.27751 36.8196 6.34188 36.8195C6.47211 36.8191 6.59688 36.7671 6.68882 36.6749C6.78077 36.5826 6.83238 36.4577 6.83238 36.3275V32.6525H7.90039V36.3275C7.89931 36.4417 7.93811 36.5527 8.01009 36.6413C8.08206 36.7299 8.18271 36.7907 8.29468 36.8131C8.40665 36.8355 8.52291 36.8181 8.62345 36.764C8.72398 36.7098 8.80247 36.6223 8.84539 36.5165C8.87062 36.4567 8.88337 36.3924 8.88288 36.3275V32.6525H10.0679V36.3275C10.0682 36.3923 10.0809 36.4565 10.1054 36.5165C10.1301 36.576 10.1663 36.63 10.2119 36.6755C10.258 36.7211 10.3125 36.7572 10.3724 36.782C10.4318 36.8068 10.4955 36.8196 10.5599 36.8195C10.6901 36.8191 10.8149 36.7671 10.9068 36.6749C10.9988 36.5826 11.0504 36.4577 11.0504 36.3275V32.6525H12.1364V36.3275C12.1361 36.3919 12.1489 36.4557 12.1739 36.515C12.1981 36.5744 12.2337 36.6285 12.2789 36.674C12.325 36.7196 12.3795 36.7557 12.4394 36.7805C12.4988 36.8053 12.5625 36.8181 12.6269 36.818C12.692 36.8174 12.7563 36.8038 12.816 36.7781C12.8758 36.7523 12.9298 36.7149 12.9749 36.668C13.0204 36.6225 13.0566 36.5685 13.0814 36.509C13.1066 36.4492 13.1194 36.3849 13.1189 36.32V32.645H14.3039V36.32C14.3041 36.3848 14.3169 36.449 14.3414 36.509C14.3667 36.5682 14.4028 36.6221 14.4479 36.668C14.494 36.7136 14.5485 36.7497 14.6084 36.7745C14.6678 36.7993 14.7315 36.8121 14.7959 36.812C14.9261 36.8116 15.0509 36.7596 15.1428 36.6674C15.2348 36.5751 15.2864 36.4502 15.2864 36.32V32.645H16.4174V36.266C16.4174 36.3962 16.469 36.5211 16.561 36.6134C16.6529 36.7056 16.7777 36.7576 16.9079 36.758C17.0384 36.758 17.1635 36.7062 17.2558 36.6139C17.3481 36.5216 17.3999 36.3965 17.3999 36.266V32.6525H18.4934C18.4934 32.669 18.4754 32.678 18.4754 32.696V36.3815C18.4754 36.512 18.5272 36.6371 18.6195 36.7294C18.7118 36.8217 18.8369 36.8735 18.9674 36.8735C19.0979 36.8735 19.223 36.8217 19.3153 36.7294C19.4076 36.6371 19.4594 36.512 19.4594 36.3815V32.696C19.4594 32.6795 19.4429 32.6705 19.4414 32.6525H20.5109L19.2284 44.513ZM22.7489 31.4915H2.58138V27.2435H22.7504L22.7489 31.4915Z" fill="black"/>
</svg>
