<svg width="46" height="42" viewBox="0 0 46 42" fill="none" xmlns="http://www.w3.org/2000/svg">
<path d="M19.2395 41.58C18.9902 41.5796 18.7512 41.4804 18.5749 41.3041C18.3986 41.1278 18.2994 40.8888 18.299 40.6395V24.705C18.2994 24.4557 18.3986 24.2167 18.5749 24.0404C18.7512 23.8641 18.9902 23.7649 19.2395 23.7645H21.5525V21.288C21.5533 21.0384 21.6531 20.7994 21.83 20.6233C22.0069 20.4473 22.2465 20.3486 22.496 20.349H43.877V7.48799H42.8V10.038C42.8006 10.1617 42.7768 10.2843 42.7298 10.3987C42.6829 10.5132 42.6138 10.6172 42.5266 10.7049C42.4393 10.7925 42.3357 10.8621 42.2214 10.9096C42.1072 10.9571 41.9847 10.9815 41.861 10.9815H40.271V12.399C40.2716 12.5224 40.2476 12.6447 40.2005 12.7588C40.1533 12.8729 40.084 12.9764 39.9965 13.0635C39.9094 13.1509 39.8058 13.2201 39.6917 13.2672C39.5777 13.3143 39.4554 13.3384 39.332 13.338H5.77704C5.65364 13.3384 5.53138 13.3143 5.41733 13.2672C5.30328 13.2201 5.1997 13.1509 5.11255 13.0635C5.02508 12.9782 4.95567 12.8762 4.90852 12.7635C4.86076 12.6495 4.83628 12.5271 4.83652 12.4035V10.986H3.28703C3.03744 10.9848 2.79848 10.8849 2.62227 10.7082C2.44606 10.5314 2.34691 10.2921 2.34651 10.0425V7.30199H1.32501C1.11576 7.30199 0.915102 7.21887 0.767136 7.0709C0.619169 6.92293 0.536011 6.72225 0.536011 6.51299C0.536011 6.30374 0.619169 6.10305 0.767136 5.95509C0.915102 5.80712 1.11576 5.72399 1.32501 5.72399H2.34651V3.28799C2.34671 3.16468 2.37119 3.04262 2.41856 2.92877C2.46593 2.81492 2.5353 2.71151 2.62263 2.62446C2.70997 2.5374 2.8136 2.4684 2.9276 2.4214C3.0416 2.37439 3.16372 2.3503 3.28703 2.35049H4.83652V0.937493C4.83628 0.813893 4.86076 0.691493 4.90852 0.577493C4.95567 0.464802 5.02508 0.36277 5.11255 0.277494C5.19975 0.190199 5.30333 0.121006 5.41737 0.0738972C5.53141 0.0267879 5.65365 0.0026912 5.77704 0.00299353H39.332C39.5808 0.00378462 39.8192 0.102969 39.9951 0.278894C40.1711 0.45482 40.2703 0.693198 40.271 0.941993V2.36099H41.861C41.9845 2.36067 42.1068 2.38463 42.221 2.43149C42.3329 2.47949 42.4347 2.54819 42.521 2.63399C42.696 2.8104 42.7946 3.04853 42.7955 3.29699V5.72699H44.552C44.6754 5.72669 44.7976 5.75079 44.9117 5.7979C45.0257 5.84501 45.1293 5.9142 45.2165 6.00149C45.3053 6.08744 45.3761 6.19019 45.4247 6.30376C45.4734 6.41733 45.499 6.53944 45.5 6.66299V20.988C45.5 21.1114 45.476 21.2337 45.4295 21.348C45.3823 21.4606 45.3129 21.5626 45.2255 21.648C45.1384 21.7356 45.0349 21.805 44.9209 21.8524C44.8068 21.8998 44.6845 21.9241 44.561 21.924H23.246V23.7525H25.7511C26.0006 23.7525 26.24 23.8515 26.4166 24.0279C26.5932 24.2042 26.6926 24.4434 26.693 24.693V40.638C26.693 40.7616 26.6687 40.884 26.6213 40.9983C26.5739 41.1125 26.5045 41.2162 26.4171 41.3036C26.3296 41.3909 26.2257 41.4602 26.1114 41.5073C25.9971 41.5545 25.8747 41.5787 25.7511 41.5785L19.2395 41.58ZM19.742 39.9705H25.2395V38.493H19.742V39.9705ZM25.2365 36.9165V25.458H19.7405V36.9165H25.2365ZM6.68602 11.7675H38.6V1.54499H6.69202L6.68602 11.7675ZM40.286 9.34049H41.381V3.96749H40.286V9.34049ZM3.94704 9.08099H4.84705V4.22549H3.94704V9.08099ZM9.36952 7.28999C9.14022 7.30874 8.91283 7.23622 8.73671 7.08819C8.56059 6.94016 8.45002 6.7286 8.42905 6.49949C8.45114 6.27108 8.56209 6.06051 8.73804 5.91319C8.91398 5.76587 9.14078 5.69361 9.36952 5.71199H35.639C35.8679 5.69436 36.0946 5.76681 36.2709 5.91391C36.4471 6.06102 36.559 6.27114 36.5825 6.49949C36.5601 6.72854 36.4487 6.93965 36.2722 7.08745C36.0958 7.23526 35.8685 7.30798 35.639 7.28999H9.36952Z" fill="black"/>
</svg>
