<svg width="48" height="48" viewBox="0 0 48 48" fill="none" xmlns="http://www.w3.org/2000/svg">
<g clip-path="url(#clip0_759_690)">
<path d="M35.0595 41.85C34.5106 41.8666 33.9776 41.6647 33.5775 41.2887C33.1773 40.9127 32.9426 40.3933 32.925 39.8445L31.9335 35.085C31.9328 35.0795 31.9328 35.074 31.9335 35.0685H14.6055C14.6062 35.074 14.6062 35.0795 14.6055 35.085L13.614 39.8445C13.6055 40.1166 13.5434 40.3843 13.4313 40.6324C13.3193 40.8804 13.1594 41.104 12.9609 41.2903C12.7624 41.4765 12.5291 41.6218 12.2744 41.7179C12.0197 41.8139 11.7486 41.8588 11.4765 41.85H10.566C10.283 41.8581 10.0013 41.8083 9.73819 41.7036C9.4751 41.599 9.23616 41.4417 9.03602 41.2414C8.83588 41.0411 8.67876 40.8021 8.57429 40.5389C8.46982 40.2757 8.42021 39.994 8.4285 39.711V34.857C8.4285 34.826 8.4285 34.795 8.4285 34.764C7.70921 34.4613 7.09517 33.9532 6.66321 33.3032C6.23125 32.6533 6.00056 31.8904 6 31.11V10.0605C5.99989 8.99077 6.41945 7.9637 7.1685 7.2C7.52909 6.82241 7.96219 6.5215 8.44186 6.3153C8.92153 6.1091 9.43789 6.00186 9.96 6L36.678 6C37.7279 6.00119 38.7344 6.41879 39.4768 7.16117C40.2192 7.90356 40.6368 8.91011 40.638 9.96V31.11C40.6362 31.9092 40.3929 32.6892 39.94 33.3477C39.487 34.0062 38.8457 34.5124 38.1 34.8C38.1 34.8195 38.1 34.836 38.1 34.854V39.7095C38.1085 39.9921 38.0592 40.2735 37.9552 40.5364C37.8512 40.7994 37.6946 41.0383 37.4951 41.2387C37.2956 41.439 37.0573 41.5966 36.7948 41.7017C36.5323 41.8068 36.2512 41.8573 35.9685 41.85H35.0595ZM35.148 39.4815L35.16 39.5985H35.85V35.07H34.227L35.148 39.4815ZM10.677 39.6H11.3745L11.3865 39.483L12.3075 35.07H10.677V39.6ZM8.25 31.11C8.2504 31.5634 8.43069 31.9981 8.75129 32.3187C9.07189 32.6393 9.5066 32.8196 9.96 32.82H36.678C37.1311 32.8192 37.5655 32.6387 37.8857 32.3182C38.206 31.9976 38.3861 31.5631 38.3865 31.11V21.75H8.25V31.11ZM8.25 10.0605V19.5H38.3865V9.96C38.3861 9.50686 38.206 9.07237 37.8857 8.75182C37.5655 8.43126 37.1311 8.25079 36.678 8.25H9.96C9.49527 8.26949 9.05649 8.46962 8.73711 8.80778C8.41772 9.14594 8.24295 9.59541 8.25 10.0605ZM18.36 26.265C18.0616 26.265 17.7755 26.1465 17.5645 25.9355C17.3535 25.7245 17.235 25.4384 17.235 25.14C17.235 24.8416 17.3535 24.5555 17.5645 24.3445C17.7755 24.1335 18.0616 24.015 18.36 24.015H28.38C28.6784 24.015 28.9645 24.1335 29.1755 24.3445C29.3865 24.5555 29.505 24.8416 29.505 25.14C29.505 25.4384 29.3865 25.7245 29.1755 25.9355C28.9645 26.1465 28.6784 26.265 28.38 26.265H18.36ZM18.36 12.906C18.0616 12.906 17.7755 12.7875 17.5645 12.5765C17.3535 12.3655 17.235 12.0794 17.235 11.781C17.235 11.4826 17.3535 11.1965 17.5645 10.9855C17.7755 10.7745 18.0616 10.656 18.36 10.656H28.38C28.6784 10.656 28.9645 10.7745 29.1755 10.9855C29.3865 11.1965 29.505 11.4826 29.505 11.781C29.505 12.0794 29.3865 12.3655 29.1755 12.5765C28.9645 12.7875 28.6784 12.906 28.38 12.906H18.36Z" fill="black"/>
</g>
<defs>
<clipPath id="clip0_759_690">
<rect width="48" height="48" fill="white"/>
</clipPath>
</defs>
</svg>
