<svg width="46" height="41" viewBox="0 0 46 41" fill="none" xmlns="http://www.w3.org/2000/svg">
<path d="M39.0755 5.59043V4.87043C39.0799 3.58541 38.5742 2.35116 37.6695 1.43858C36.7648 0.526006 35.535 0.0096771 34.25 0.00292969H16.5725C16.1445 0.00570647 15.735 0.178117 15.4338 0.482361C15.1327 0.786604 14.9644 1.19785 14.966 1.62593H11.75C11.3218 1.6291 10.9123 1.80184 10.6112 2.10633C10.3101 2.41081 10.1419 2.82221 10.1435 3.25043V6.49043H8.53549C8.53545 6.27618 8.45143 6.07047 8.30149 5.91743C8.22761 5.84214 8.1394 5.78246 8.04202 5.74193C7.89494 5.68034 7.73276 5.66413 7.57639 5.69541C7.42002 5.72668 7.27658 5.804 7.16449 5.91743L6.59448 6.49043H5.32099C5.32174 6.38407 5.30136 6.27862 5.26093 6.18024C5.22049 6.08186 5.16084 5.99252 5.08551 5.91743C5.01164 5.84214 4.92334 5.78246 4.82596 5.74193C4.67887 5.68034 4.51678 5.66413 4.36041 5.69541C4.20405 5.72668 4.0606 5.804 3.94852 5.91743L3.38153 6.49043H1.30548C1.0961 6.49943 0.898304 6.58894 0.753328 6.74028C0.608352 6.89162 0.527376 7.0931 0.527376 7.30268C0.527376 7.51226 0.608352 7.71374 0.753328 7.86508C0.898304 8.01642 1.0961 8.10593 1.30548 8.11493H2.10648C2.10606 8.27497 2.15299 8.43156 2.24133 8.56501C2.32968 8.69846 2.45548 8.80281 2.60297 8.86493C2.70034 8.90577 2.8049 8.92681 2.91049 8.92681C3.01609 8.92681 3.12065 8.90577 3.21802 8.86493C3.31605 8.8248 3.40488 8.76508 3.47904 8.68943L4.04602 8.11793H5.32099C5.32134 8.33197 5.40592 8.53727 5.55646 8.68943C5.63022 8.76523 5.71852 8.82542 5.81601 8.86643C5.91362 8.9074 6.01842 8.9285 6.12427 8.9285C6.23012 8.9285 6.33492 8.9074 6.43253 8.86643C6.53004 8.82545 6.61825 8.76526 6.69199 8.68943L7.25897 8.11793H10.142V11.3624C10.1404 11.7907 10.3086 12.2021 10.6097 12.5065C10.9108 12.811 11.3203 12.9838 11.7485 12.9869H14.9645C14.9535 13.4133 15.0289 13.8375 15.1861 14.2341C15.3432 14.6306 15.579 14.9912 15.8791 15.2943C16.1793 15.5974 16.5376 15.8367 16.9326 15.9977C17.3276 16.1587 17.751 16.2382 18.1775 16.2314H27.8225V17.8544C27.8209 18.2825 27.9891 18.6938 28.2903 18.998C28.5914 19.3022 29.0009 19.4747 29.429 19.4774V21.1004C29.4274 21.5285 29.5956 21.9398 29.8968 22.244C30.1979 22.5482 30.6074 22.7207 31.0355 22.7234H32.645C32.5807 24.7323 32.9193 26.7336 33.641 28.6094C32.5475 29.3354 32.0135 30.0704 32.246 31.0649C32.354 31.4997 32.6156 31.8807 32.9825 32.1377C33.3495 32.3947 33.797 32.5102 34.2425 32.4629H39.0725C39.0821 33.3128 38.9227 34.1561 38.6038 34.944C38.2849 35.7318 37.8126 36.4485 37.2146 37.0524C36.6165 37.6563 35.9045 38.1354 35.1198 38.462C34.3352 38.7886 33.4935 38.9562 32.6435 38.9549C28.0985 38.9549 25.385 36.2639 22.517 33.4169C19.649 30.5699 16.6475 27.5939 11.7485 27.5939C2.76054 27.5939 0.535981 37.8734 0.516481 37.9784C0.49241 38.0828 0.489379 38.1909 0.507509 38.2964C0.526096 38.4016 0.565372 38.502 0.623048 38.5919C0.680725 38.6817 0.755653 38.7592 0.843507 38.8199C0.934075 38.8813 1.03615 38.9236 1.14353 38.9444C1.3008 38.9775 1.4644 38.9626 1.6131 38.9016C1.7618 38.8406 1.88869 38.7364 1.97748 38.6024C2.03802 38.5119 2.07893 38.4097 2.0975 38.3024C2.114 38.2124 4.05954 29.2109 11.756 29.2109C15.998 29.2109 18.6215 31.8119 21.3965 34.5674C24.3725 37.5179 27.449 40.5674 32.6465 40.5674C33.7098 40.5721 34.7633 40.3648 35.7455 39.9577C36.7278 39.5505 37.619 38.9517 38.3671 38.1962C39.1153 37.4406 39.7053 36.5435 40.1028 35.5573C40.5002 34.5711 40.6972 33.5156 40.682 32.4524H42.2885C43.253 32.4524 44.525 31.9199 45.122 29.3819C46.3235 24.2444 44.759 9.75743 39.0755 5.59043ZM14.966 4.87043H14.159C13.9438 4.87043 13.7374 4.95593 13.5852 5.10811C13.433 5.2603 13.3475 5.46671 13.3475 5.68193C13.3475 5.89715 13.433 6.10356 13.5852 6.25575C13.7374 6.40793 13.9438 6.49343 14.159 6.49343H14.9645V8.11943H14.159C13.944 8.11943 13.7378 8.20485 13.5857 8.35689C13.4337 8.50894 13.3482 8.71516 13.3482 8.93018C13.3482 9.1452 13.4337 9.35142 13.5857 9.50347C13.7378 9.65551 13.944 9.74093 14.159 9.74093H14.9645V11.3639H11.75V3.25043H14.966V4.87043ZM32.6465 21.1004H31.037V17.8559H29.4305V16.2404H32.6465V21.1004ZM42.2885 30.8384H34.259C32.669 30.8384 35.8655 29.2154 35.8655 29.2154C35.3129 28.5118 34.929 27.6907 34.7435 26.8154L37.5275 26.7914C37.7795 26.7914 37.9775 26.4914 37.9775 26.1389C37.9775 25.7864 37.7675 25.4879 37.514 25.4909L34.472 25.5194C34.403 25.0904 34.3505 24.6194 34.313 24.1004L37.604 24.0704C37.856 24.0704 38.054 23.7704 38.054 23.4179C38.054 23.0654 37.844 22.7684 37.5905 22.7684L34.259 22.7984V21.2984L37.532 21.2699C37.7825 21.2699 37.982 20.9699 37.982 20.6144C37.982 20.2589 37.7705 19.9649 37.5185 19.9679L34.259 19.9964V18.4319L37.505 18.4034C37.76 18.4034 37.955 18.1034 37.955 17.7509C37.955 17.3984 37.7435 17.1014 37.4885 17.1044L34.25 17.1404V16.2404C34.2512 16.0284 34.2105 15.8181 34.1304 15.6217C34.0503 15.4254 33.9323 15.2467 33.7831 15.096C33.6339 14.9453 33.4565 14.8254 33.261 14.7433C33.0654 14.6612 32.8556 14.6184 32.6435 14.6174H18.1775C17.8554 14.6235 17.5392 14.5311 17.2712 14.3526C17.0031 14.1741 16.796 13.9179 16.6775 13.6184C16.5997 13.4203 16.562 13.2087 16.5665 12.9959V1.62593H34.25C34.6743 1.6279 35.0941 1.71341 35.4853 1.87761C35.8766 2.0418 36.2317 2.28144 36.5303 2.58286C36.8289 2.88428 37.0653 3.24157 37.2258 3.63433C37.3864 4.02709 37.4679 4.44763 37.466 4.87193V6.49043C43.895 9.74093 45.509 30.8399 42.2885 30.8399V30.8384Z" fill="black"/>
</svg>
