<svg width="34" height="46" viewBox="0 0 34 46" fill="none" xmlns="http://www.w3.org/2000/svg">
<path d="M24.8315 39.95H17.534V24.95H33.3845L25.5725 0.5H8.31201L0.5 24.95H7.8965V27.7145C7.31169 27.8591 6.80003 28.2127 6.45807 28.7086C6.11611 29.2046 5.9675 29.8085 6.04031 30.4065C6.11313 31.0045 6.40233 31.5552 6.8533 31.9545C7.30428 32.3539 7.88584 32.5744 8.48825 32.5744C9.09066 32.5744 9.67222 32.3539 10.1232 31.9545C10.5742 31.5552 10.8634 31.0045 10.9362 30.4065C11.009 29.8085 10.8604 29.2046 10.5184 28.7086C10.1765 28.2127 9.66481 27.8591 9.08 27.7145V24.95H16.3505V39.95H9.05002C7.74616 39.9603 6.49958 40.4871 5.58351 41.415C4.66744 42.3429 4.15659 43.5961 4.16298 44.9V45.5H29.72V44.9C29.7268 43.5957 29.2159 42.3421 28.2994 41.4141C27.3829 40.486 26.1358 39.9595 24.8315 39.95ZM9.76999 30.125C9.76896 30.4243 9.66416 30.7139 9.47345 30.9445C9.28274 31.1752 9.01793 31.3325 8.72418 31.3897C8.43043 31.4469 8.12595 31.4005 7.86263 31.2583C7.5993 31.1161 7.39343 30.8869 7.28017 30.6099C7.16691 30.3329 7.15327 30.0252 7.24153 29.7392C7.32979 29.4533 7.51452 29.2068 7.76421 29.0418C8.01389 28.8768 8.31304 28.8035 8.6107 28.8345C8.90837 28.8654 9.1861 28.9987 9.3965 29.2115C9.51613 29.3315 9.61075 29.474 9.67487 29.6308C9.73898 29.7876 9.77131 29.9556 9.76999 30.125ZM9.17 1.7H24.707L25.3235 3.6245H17.279C17.1199 3.6245 16.9673 3.68771 16.8548 3.80024C16.7422 3.91276 16.679 4.06537 16.679 4.2245C16.679 4.38363 16.7422 4.53624 16.8548 4.64876C16.9673 4.76129 17.1199 4.8245 17.279 4.8245H25.5725C25.6148 4.82033 25.6565 4.81179 25.697 4.799L26.3975 6.9905H17.2775C17.1184 6.9905 16.9658 7.05371 16.8532 7.16624C16.7407 7.27876 16.6775 7.43137 16.6775 7.5905C16.6775 7.74963 16.7407 7.90224 16.8532 8.01476C16.9658 8.12729 17.1184 8.1905 17.2775 8.1905H26.78L27.473 10.358H17.273C17.1139 10.358 16.9613 10.4212 16.8488 10.5337C16.7362 10.6463 16.673 10.7989 16.673 10.958C16.673 11.1171 16.7362 11.2697 16.8488 11.3823C16.9613 11.4948 17.1139 11.558 17.273 11.558H27.851L28.5455 13.73H17.2745C17.1154 13.73 16.9627 13.7932 16.8502 13.9057C16.7377 14.0183 16.6745 14.1709 16.6745 14.33C16.6745 14.4891 16.7377 14.6417 16.8502 14.7543C16.9627 14.8668 17.1154 14.93 17.2745 14.93H28.9295L29.63 17.087H17.282C17.1229 17.087 16.9702 17.1502 16.8577 17.2627C16.7452 17.3753 16.682 17.5279 16.682 17.687C16.682 17.8461 16.7452 17.9987 16.8577 18.1113C16.9702 18.2238 17.1229 18.287 17.282 18.287H30.014L30.7055 20.4545H17.2835C17.1244 20.4545 16.9718 20.5177 16.8592 20.6302C16.7467 20.7428 16.6835 20.8954 16.6835 21.0545C16.6835 21.2136 16.7467 21.3662 16.8592 21.4788C16.9718 21.5913 17.1244 21.6545 17.2835 21.6545H31.0835L31.7525 23.744H8.57152C8.54441 23.7367 8.51681 23.7312 8.48898 23.7275C8.46118 23.7313 8.43364 23.7368 8.40649 23.744H2.129L9.17 1.7ZM5.39299 44.3C5.52876 43.4263 5.97121 42.6294 6.64104 42.0522C7.31086 41.475 8.16431 41.1552 9.04851 41.15H24.827C25.7108 41.1564 26.5637 41.4767 27.2333 42.0537C27.9028 42.6306 28.3456 43.4268 28.4825 44.3H5.39299Z" fill="black"/>
</svg>
