<svg width="48" height="48" viewBox="0 0 48 48" fill="none" xmlns="http://www.w3.org/2000/svg">
<g clip-path="url(#clip0_755_689)">
<path d="M42.1529 39.4005H35.9729V38.001C35.9732 37.5675 35.8367 37.145 35.5829 36.7935C35.3425 36.4395 34.996 36.1711 34.593 36.027V5.10003C34.5971 4.5452 34.3813 4.01133 33.993 3.61503C33.8031 3.42155 33.5766 3.26758 33.3269 3.16203C33.0771 3.05647 32.809 3.00142 32.5379 3.00003C32.2663 2.99853 31.9973 3.05228 31.7472 3.158C31.4971 3.26373 31.2711 3.41922 31.0829 3.61503C30.6906 4.0099 30.4698 4.54342 30.468 5.10003V36.0255C30.0654 36.1746 29.7182 36.444 29.474 36.7972C29.2297 37.1504 29.1003 37.5702 29.103 37.9995V39.399H24.813L25.383 33.981C27.7756 31.4838 29.1087 28.1574 29.103 24.699V22.599C29.1029 22.5067 29.0843 22.4153 29.0482 22.3302C29.0122 22.2452 28.9593 22.1683 28.893 22.104C28.8312 22.0388 28.7567 21.9869 28.6741 21.9515C28.5916 21.9162 28.5027 21.8982 28.4129 21.8985H26.3579V20.499C26.3578 20.4067 26.3392 20.3153 26.3031 20.2302C26.267 20.1452 26.2144 20.0683 26.148 20.004C26.0863 19.9388 26.0118 19.8869 25.9292 19.8515C25.8467 19.8162 25.7577 19.7982 25.6679 19.7985H6.438C6.3482 19.7982 6.25927 19.8162 6.17671 19.8515C6.09415 19.8869 6.01961 19.9388 5.9579 20.004C5.89155 20.0683 5.83888 20.1452 5.80281 20.2302C5.76674 20.3153 5.74797 20.4067 5.74788 20.499V21.9H3.69288C3.50752 21.902 3.33018 21.9756 3.19795 22.1055C3.07464 22.2412 3.00527 22.4172 3.00294 22.6005V24.7005C2.99812 28.1588 4.3311 31.4848 6.72291 33.9825L7.81788 44.3775C7.82349 44.4637 7.84626 44.548 7.8849 44.6253C7.92354 44.7025 7.97731 44.7713 8.04292 44.8275C8.16467 44.9424 8.32559 45.0068 8.49299 45.0075H42.1529C42.424 45.0054 42.6921 44.9498 42.9417 44.844C43.1914 44.7383 43.4177 44.5843 43.6079 44.391C43.9902 43.9914 44.2049 43.4606 44.2079 42.9075V41.508C44.2048 40.955 43.99 40.4242 43.6079 40.0245C43.4183 39.8299 43.1923 39.6746 42.9426 39.5675C42.693 39.4604 42.4246 39.4037 42.1529 39.4005ZM26.343 24.777C26.358 24.7635 26.343 24.7485 26.343 24.7425C26.343 24.7365 26.3579 24.714 26.3579 24.7005V23.301H27.7229V24.7005C27.7266 27.1111 27.0054 29.4671 25.6529 31.4625L26.343 24.777ZM4.38301 24.7005V23.301H5.74788V24.7005C5.74788 24.714 5.76289 24.729 5.76289 24.7425C5.76289 24.756 5.74789 24.7635 5.76289 24.777L6.45302 31.4625C5.09398 29.4703 4.37211 27.1122 4.38301 24.7005ZM31.8479 5.10003C31.8502 4.91675 31.9196 4.74066 32.0429 4.60503C32.1752 4.47512 32.3525 4.40147 32.5379 4.39953C32.6277 4.39907 32.7168 4.41707 32.7993 4.45243C32.8819 4.48778 32.9563 4.53972 33.018 4.60503C33.0843 4.66928 33.1372 4.7462 33.1732 4.83123C33.2093 4.91626 33.2279 5.00767 33.228 5.10003V35.8995H31.8479V5.10003ZM30.468 37.9995C30.4681 37.9072 30.4867 37.8158 30.5228 37.7307C30.5589 37.6457 30.6115 37.5688 30.6779 37.5045C30.7396 37.4393 30.8141 37.3874 30.8967 37.3521C30.9792 37.3167 31.0682 37.2987 31.158 37.299H33.9029C34.0883 37.301 34.2658 37.3746 34.398 37.5045C34.5213 37.6402 34.5907 37.8162 34.593 37.9995V39.399H30.468V37.9995ZM21.5429 21.1995H24.978V24H21.5429V21.1995ZM10.563 21.1995H20.1779V26.1H16.0529C15.9631 26.0996 15.8741 26.1176 15.7916 26.1529C15.709 26.1883 15.6346 26.2402 15.573 26.3055C15.5065 26.3697 15.4537 26.4466 15.4177 26.5317C15.3816 26.6167 15.3629 26.7082 15.3629 26.8005C15.3629 26.8929 15.3816 26.9843 15.4177 27.0694C15.4537 27.1544 15.5065 27.2313 15.573 27.2955C15.6346 27.3608 15.709 27.4128 15.7916 27.4481C15.8741 27.4835 15.9631 27.5015 16.0529 27.501H20.1779V28.2H10.563V21.1995ZM10.563 29.5995H20.1779V30.999H10.563V29.5995ZM7.12794 21.1995H9.18294V24H7.12794V21.1995ZM8.04292 33.33L7.20302 25.3995H9.18294V31.6995C9.18526 31.8828 9.25464 32.0589 9.37794 32.1945C9.51017 32.3244 9.68752 32.3981 9.87288 32.4H20.853C20.945 32.4005 21.0362 32.3826 21.1212 32.3473C21.2062 32.312 21.2833 32.2601 21.3479 32.1945C21.4719 32.0594 21.5414 31.883 21.5429 31.6995V25.3995H24.9029L24.063 33.33C21.9234 35.4254 19.0477 36.599 16.0529 36.599C13.0581 36.599 10.1826 35.4254 8.04292 33.33ZM20.9879 43.599H9.10786L8.23793 35.3325C10.4733 37.0617 13.2193 37.9998 16.0454 37.9998C18.8714 37.9998 21.6176 37.0617 23.853 35.3325L23.4329 39.399H22.923C22.6514 39.3983 22.3824 39.4526 22.1323 39.5585C21.8823 39.6645 21.6564 39.8199 21.468 40.0155C21.0817 40.4137 20.8617 40.9443 20.853 41.499V42.9C20.8602 43.1393 20.9057 43.3743 20.9879 43.599ZM42.843 42.8985C42.8429 42.9909 42.8242 43.0823 42.7881 43.1673C42.752 43.2524 42.6994 43.3293 42.633 43.3935C42.5713 43.4588 42.4968 43.5107 42.4142 43.546C42.3316 43.5814 42.2427 43.5994 42.1529 43.599H22.923C22.7376 43.5971 22.5601 43.5234 22.4279 43.3935C22.3046 43.2579 22.2352 43.0818 22.2329 42.8985V41.499C22.2352 41.3157 22.3046 41.1397 22.4279 41.004C22.5601 40.8741 22.7376 40.8005 22.923 40.7985H42.1529C42.2427 40.7982 42.3316 40.8162 42.4142 40.8516C42.4968 40.8869 42.5713 40.9388 42.633 41.004C42.6994 41.0683 42.752 41.1452 42.7881 41.2302C42.8242 41.3153 42.8429 41.4067 42.843 41.499V42.8985Z" fill="black"/>
<path d="M40.7733 41.5005H24.2881C24.1081 41.5088 23.9383 41.5862 23.8138 41.7165C23.6894 41.8468 23.6201 42.0201 23.6201 42.2002C23.6201 42.3804 23.6894 42.5537 23.8138 42.684C23.9383 42.8143 24.1081 42.8917 24.2881 42.9H40.7733C40.9586 42.8981 41.136 42.8244 41.2682 42.6945C41.3935 42.5601 41.463 42.3832 41.463 42.1995C41.463 42.0158 41.3935 41.8389 41.2682 41.7045C41.1357 41.5751 40.9584 41.502 40.7733 41.5005Z" fill="black"/>
<path d="M12.6182 27.4996H13.3081C13.3979 27.5001 13.4868 27.4821 13.5694 27.4467C13.652 27.4114 13.7264 27.3595 13.788 27.2941C13.8544 27.2299 13.9074 27.153 13.9435 27.068C13.9796 26.9829 13.998 26.8915 13.998 26.7991C13.998 26.7068 13.9796 26.6153 13.9435 26.5303C13.9074 26.4453 13.8544 26.3683 13.788 26.3041C13.7264 26.2388 13.652 26.1869 13.5694 26.1515C13.4868 26.1162 13.3979 26.0982 13.3081 26.0986H12.6182C12.5284 26.0983 12.4394 26.1163 12.3569 26.1517C12.2743 26.187 12.1998 26.2389 12.1381 26.3041C12.0716 26.3683 12.0189 26.4453 11.9828 26.5303C11.9467 26.6153 11.9282 26.7068 11.9282 26.7991C11.9282 26.8915 11.9467 26.9829 11.9828 27.068C12.0189 27.153 12.0716 27.2299 12.1381 27.2941C12.1998 27.3594 12.2743 27.4113 12.3569 27.4466C12.4394 27.482 12.5284 27.5 12.6182 27.4996Z" fill="black"/>
</g>
<defs>
<clipPath id="clip0_755_689">
<rect width="48" height="48" fill="white"/>
</clipPath>
</defs>
</svg>
