<svg width="39" height="39" viewBox="0 0 39 39" fill="none" xmlns="http://www.w3.org/2000/svg">
<path d="M37.5605 0.998504H0.984462C0.920551 0.994108 0.856439 1.00341 0.796413 1.02578C0.736386 1.04816 0.68191 1.08309 0.63647 1.12825C0.59103 1.17341 0.555675 1.22774 0.532924 1.28763C0.510173 1.34751 0.500548 1.41157 0.504542 1.4755V37.8745C0.500548 37.9384 0.510173 38.0025 0.532924 38.0624C0.555675 38.1223 0.59103 38.1766 0.63647 38.2218C0.68191 38.2669 0.736386 38.3018 0.796413 38.3242C0.856439 38.3466 0.920551 38.3559 0.984462 38.3515H37.5605C37.6244 38.3559 37.6885 38.3466 37.7486 38.3242C37.8086 38.3018 37.8632 38.2669 37.9086 38.2218C37.954 38.1766 37.9893 38.1223 38.0121 38.0624C38.0348 38.0025 38.0445 37.9384 38.0405 37.8745V1.477C38.0447 1.41295 38.0352 1.34873 38.0125 1.28866C37.9899 1.22859 37.9546 1.17406 37.9091 1.12874C37.8637 1.08342 37.8091 1.04835 37.7489 1.02588C37.6888 1.00342 37.6246 0.994085 37.5605 0.998504ZM19.5125 1.954H27.4805L19.5125 9.883V1.954ZM28.2965 2.479L36.4565 10.5985L28.2965 18.718L20.1365 10.5985L28.2965 2.479ZM19.5125 11.3155L27.4325 19.1965H19.5125V11.3155ZM19.5125 20.152H27.5285L19.5125 28.129V20.152ZM1.46447 1.954H9.2405L1.46447 9.6925V1.954ZM10.0145 2.479L18.1745 10.5985L10.0145 18.718L1.85449 10.5985L10.0145 2.479ZM1.46447 11.554L9.14447 19.204H1.46447V11.554ZM1.46447 20.152H9.2405L1.46447 27.8905V20.152ZM1.46447 37.402V29.7535L9.14447 37.396L1.46447 37.402ZM1.84854 28.852L10.0085 20.7325L18.1685 28.852L10.0085 36.9715L1.84854 28.852ZM18.5525 37.402H10.9205L18.5525 29.8075V37.402ZM18.5525 27.8485L10.8305 20.1535H18.5585L18.5525 27.8485ZM18.5525 19.2025H10.9205L18.5525 11.608V19.2025ZM18.5525 9.6025L10.8725 1.9525H18.5525V9.6025ZM19.5125 37.402V29.563L27.3845 37.396L19.5125 37.402ZM20.1365 28.852L28.2965 20.7325L36.4565 28.852L28.2965 36.9715L20.1365 28.852ZM37.0805 37.4035H29.2085L37.1285 29.5225V37.4035H37.0805ZM37.0805 28.1365L29.0645 20.1535H37.0805V28.1365ZM37.0805 19.204H29.1605L37.0805 11.317V19.204ZM37.0805 9.889L29.1125 1.96H37.0805V9.889Z" fill="black"/>
</svg>
