<svg width="48" height="48" viewBox="0 0 48 48" fill="none" xmlns="http://www.w3.org/2000/svg">
<g clip-path="url(#clip0_755_678)">
<path d="M42.7186 35.667H6.78155C6.67762 35.6667 6.57491 35.6448 6.47988 35.6027C6.38486 35.5606 6.29963 35.4993 6.22958 35.4225C6.08105 35.2622 5.99898 35.0515 6.00005 34.833V24.834C5.99455 23.7425 6.40361 22.6895 7.14456 21.888C7.49636 21.5058 7.92308 21.2001 8.39819 20.99C8.87329 20.78 9.3866 20.67 9.90606 20.667H39.6001C40.1196 20.67 40.6328 20.78 41.1079 20.99C41.583 21.2001 42.0098 21.5058 42.3616 21.888C43.1004 22.6905 43.5072 23.7433 43.5001 24.834V34.8345C43.5011 35.053 43.4191 35.2637 43.2705 35.424C43.2004 35.5005 43.1151 35.5616 43.02 35.6034C42.925 35.6453 42.8224 35.6669 42.7186 35.667ZM7.56304 34.0005H41.9371V24.834C41.9404 24.1795 41.6954 23.548 41.2515 23.067C41.0411 22.8387 40.7861 22.656 40.5023 22.5301C40.2186 22.4042 39.912 22.3378 39.6016 22.335H9.90002C9.58957 22.3378 9.28301 22.4042 8.99923 22.5301C8.71545 22.656 8.4605 22.8387 8.25005 23.067C7.80617 23.548 7.56124 24.1795 7.5646 24.834L7.56304 34.0005Z" fill="black"/>
<path d="M39.6 22.3335H9.89991C9.79598 22.3332 9.69327 22.3113 9.59825 22.2692C9.50322 22.2272 9.41799 22.1658 9.34794 22.089C9.19941 21.9287 9.11735 21.718 9.11842 21.4995V9.834C9.11735 9.6155 9.19941 9.40476 9.34794 9.2445C9.41799 9.16772 9.50322 9.10634 9.59825 9.06425C9.69327 9.02217 9.79598 9.00028 9.89991 9H39.6C39.7039 9.00028 39.8066 9.02217 39.9017 9.06425C39.9967 9.10634 40.0819 9.16772 40.152 9.2445C40.3005 9.40476 40.3826 9.6155 40.3815 9.834V21.501C40.3826 21.7195 40.3005 21.9302 40.152 22.0905C40.0818 22.167 39.9965 22.2281 39.9015 22.2699C39.8065 22.3118 39.7038 22.3334 39.6 22.3335ZM10.6935 20.667H38.8185V10.6665H10.6935V20.667Z" fill="black"/>
<path d="M42.7186 28.167H6.78159C6.67766 28.1667 6.57494 28.1448 6.47992 28.1027C6.38489 28.0606 6.29966 27.9993 6.22961 27.9225C6.08193 27.7617 6 27.5513 6 27.333C6 27.1147 6.08193 26.9043 6.22961 26.7435C6.29966 26.6667 6.38489 26.6053 6.47992 26.5632C6.57494 26.5212 6.67766 26.4993 6.78159 26.499H42.7186C42.8225 26.4993 42.9252 26.5212 43.0203 26.5632C43.1153 26.6053 43.2005 26.6667 43.2706 26.7435C43.4182 26.9043 43.5002 27.1147 43.5002 27.333C43.5002 27.5513 43.4182 27.7617 43.2706 27.9225C43.2005 27.9993 43.1153 28.0606 43.0203 28.1027C42.9252 28.1448 42.8225 28.1667 42.7186 28.167Z" fill="black"/>
<path d="M9.89991 39H6.77549C6.67156 38.9997 6.56876 38.9778 6.47373 38.9357C6.37871 38.8936 6.29348 38.8323 6.22343 38.7555C6.0749 38.5952 5.99283 38.3845 5.99391 38.166V34.833C5.99283 34.6145 6.0749 34.4038 6.22343 34.2435C6.29348 34.1667 6.37871 34.1053 6.47373 34.0632C6.56876 34.0212 6.67156 33.9993 6.77549 33.999H9.89991C10.0038 33.9993 10.1066 34.0212 10.2017 34.0632C10.2967 34.1053 10.3819 34.1667 10.452 34.2435C10.6005 34.4038 10.6825 34.6145 10.6814 34.833V38.166C10.6825 38.3845 10.6005 38.5952 10.452 38.7555C10.3819 38.8323 10.2967 38.8936 10.2017 38.9357C10.1066 38.9778 10.0038 38.9997 9.89991 39ZM7.55699 37.3335H9.11842V35.667H7.55699V37.3335Z" fill="black"/>
<path d="M42.7186 39H39.6001C39.4962 38.9997 39.3934 38.9778 39.2984 38.9357C39.2033 38.8936 39.1181 38.8323 39.048 38.7555C38.8995 38.5952 38.8175 38.3845 38.8186 38.166V34.833C38.8175 34.6145 38.8995 34.4038 39.048 34.2435C39.1181 34.1667 39.2033 34.1053 39.2984 34.0632C39.3934 34.0212 39.4962 33.9993 39.6001 33.999H42.7245C42.8285 33.9993 42.9313 34.0212 43.0263 34.0632C43.1213 34.1053 43.2065 34.1667 43.2766 34.2435C43.4251 34.4038 43.5072 34.6145 43.5061 34.833V38.166C43.5072 38.3845 43.4251 38.5952 43.2766 38.7555C43.2059 38.833 43.1197 38.8948 43.0235 38.9369C42.9274 38.9791 42.8235 39.0005 42.7186 39ZM40.3756 37.3335H41.9371V35.667H40.3756V37.3335Z" fill="black"/>
<path d="M22.407 22.3335H13.8121C13.7082 22.3328 13.6056 22.3107 13.5107 22.2686C13.4157 22.2266 13.3304 22.1654 13.2601 22.089C13.112 21.9286 13.0304 21.7178 13.032 21.4995V18.1665C13.0283 17.5115 13.2733 16.8794 13.7176 16.398C13.928 16.1698 14.183 15.9871 14.4667 15.8612C14.7505 15.7353 15.0571 15.6689 15.3675 15.666H20.8501C21.1605 15.6689 21.4671 15.7353 21.7509 15.8612C22.0346 15.9871 22.2896 16.1698 22.5 16.398C22.9443 16.8794 23.1892 17.5115 23.1855 18.1665V21.4995C23.1864 21.7177 23.105 21.9282 22.9575 22.089C22.8874 22.1652 22.8024 22.2263 22.7077 22.2683C22.613 22.3104 22.5106 22.3326 22.407 22.3335ZM14.5935 20.667H21.6255V18.1665C21.6266 17.948 21.5445 17.7373 21.396 17.577C21.326 17.5002 21.2407 17.4389 21.1457 17.3968C21.0507 17.3547 20.948 17.3328 20.844 17.3325H15.375C15.2711 17.3328 15.1684 17.3547 15.0734 17.3968C14.9784 17.4389 14.8931 17.5002 14.8231 17.577C14.6745 17.7373 14.5925 17.948 14.5935 18.1665V20.667Z" fill="black"/>
<path d="M35.688 22.3335H27.0945C26.9904 22.3329 26.8876 22.3109 26.7924 22.2688C26.6972 22.2267 26.6115 22.1655 26.541 22.089C26.3935 21.9282 26.3121 21.7177 26.313 21.4995V18.1665C26.3097 17.5113 26.5552 16.8792 27 16.398C27.2105 16.1698 27.4654 15.9871 27.7492 15.8612C28.033 15.7353 28.3396 15.6689 28.65 15.666H34.119C34.4294 15.6689 34.7361 15.7353 35.0199 15.8612C35.3037 15.9871 35.5586 16.1698 35.769 16.398C36.2137 16.8793 36.4592 17.5113 36.4561 18.1665V21.4995C36.4571 21.718 36.3751 21.9288 36.2265 22.089C36.1578 22.1638 36.0746 22.224 35.9821 22.266C35.8896 22.308 35.7896 22.331 35.688 22.3335ZM27.8745 20.667H34.9065V18.1665C34.9076 17.948 34.8255 17.7373 34.677 17.577C34.607 17.5002 34.5217 17.4389 34.4267 17.3968C34.3317 17.3547 34.229 17.3328 34.125 17.3325H28.65C28.5461 17.3328 28.4434 17.3547 28.3483 17.3968C28.2533 17.4389 28.1681 17.5002 28.098 17.577C27.9495 17.7373 27.8674 17.948 27.8685 18.1665L27.8745 20.667Z" fill="black"/>
</g>
<defs>
<clipPath id="clip0_755_678">
<rect width="48" height="48" fill="white"/>
</clipPath>
</defs>
</svg>
