<svg width="48" height="48" viewBox="0 0 48 48" fill="none" xmlns="http://www.w3.org/2000/svg">
<g clip-path="url(#clip0_759_643)">
<path d="M24.2821 9.9585C21.9988 9.99289 19.7761 10.6978 17.8903 11.9855C16.0044 13.2732 14.5387 15.0869 13.6755 17.201C12.8124 19.3152 12.5898 21.6364 13.0355 23.876C13.4811 26.1157 14.5754 28.1749 16.1822 29.7975C17.5003 31.7815 18.2075 34.1086 18.2161 36.4905V37.0905H18.2311V42.111C18.2041 43.2439 18.6265 44.3415 19.4062 45.1639C20.1859 45.9863 21.2593 46.4666 22.3921 46.5H26.1796C27.3134 46.4666 28.3879 45.9854 29.1677 45.1617C29.9476 44.338 30.3693 43.2389 30.3406 42.105V37.0905H30.3556V36.4905C30.3645 34.1088 31.0711 31.7819 32.3881 29.7975C33.9948 28.1749 35.0891 26.1157 35.5348 23.876C35.9804 21.6364 35.7579 19.3152 34.8947 17.201C34.0315 15.0869 32.5658 13.2732 30.68 11.9855C28.7942 10.6978 26.5714 9.99289 24.2881 9.9585H24.2821ZM29.1601 42.105V42.114H19.4101V40.314H29.1601V42.105ZM26.1751 45.312H22.3906C21.7793 45.2987 21.1867 45.0989 20.692 44.7394C20.1974 44.3799 19.8245 43.8779 19.6232 43.3005H28.9397C28.7387 43.8779 28.366 44.3801 27.8717 44.7399C27.3774 45.0997 26.7848 45.2998 26.1736 45.3135L26.1751 45.312ZM29.1601 39.1245H19.4101V37.0845H29.1601V39.1245ZM31.5151 28.9935L31.4731 29.037L31.4401 29.0865C30.086 31.1097 29.3082 33.4633 29.1901 35.895H26.9656C27.092 35.7931 27.1945 35.6645 27.2656 35.5185C27.3379 35.3719 27.3764 35.2109 27.3781 35.0475C27.3781 33.954 25.9381 33.5955 24.4171 33.2145C23.6994 33.0869 23.0057 32.8491 22.3606 32.5095C23.0059 32.1703 23.6996 31.932 24.4171 31.803C25.9381 31.422 27.3781 31.0635 27.3781 29.9715C27.3781 28.8795 25.9381 28.5195 24.4171 28.14C23.7148 28.0059 23.0336 27.7779 22.3921 27.462C23.0333 27.1458 23.7146 26.9182 24.4171 26.7855C25.9381 26.406 27.3781 26.046 27.3781 24.954C27.3781 23.862 25.9381 23.5035 24.4171 23.1225C23.7146 22.9898 23.0333 22.7622 22.3921 22.446C23.0336 22.1305 23.7148 21.9029 24.4171 21.7695C25.9381 21.3885 27.3781 21.03 27.3781 19.938C27.3798 19.7853 27.321 19.6381 27.2146 19.5285C27.136 19.4467 27.0354 19.3894 26.9249 19.3636C26.8145 19.3378 26.6988 19.3446 26.5922 19.3832C26.4855 19.4218 26.3922 19.4905 26.3238 19.581C26.2554 19.6715 26.2147 19.7798 26.2066 19.893C25.561 20.2459 24.8616 20.4902 24.1366 20.616C22.6141 20.9955 21.1756 21.354 21.1756 22.446C21.1756 23.538 22.6141 23.8965 24.1366 24.2775C24.8388 24.4115 25.5198 24.6391 26.1616 24.954C25.5196 25.2687 24.8387 25.4967 24.1366 25.632C22.6141 26.0115 21.1756 26.367 21.1756 27.462C21.1756 28.557 22.6141 28.914 24.1366 29.2935C24.8389 29.428 25.5199 29.656 26.1616 29.9715C25.5195 30.2856 24.8386 30.5131 24.1366 30.648C22.6141 31.029 21.1756 31.3875 21.1756 32.4825V32.538C21.1756 33.63 22.6141 33.9885 24.1366 34.3695C24.839 34.5029 25.5201 34.7305 26.1616 35.046C25.519 35.3601 24.8376 35.5876 24.1352 35.7225L23.9461 35.769C23.8603 35.7917 23.7812 35.8343 23.7151 35.8935H19.3651C19.2463 33.461 18.4685 31.1066 17.1151 29.082L17.0821 29.0325L17.0401 28.9905C15.5865 27.5558 14.5924 25.7212 14.1842 23.7201C13.7759 21.7189 13.972 19.6415 14.7474 17.7521C15.5229 15.8626 16.8426 14.2464 18.5389 13.109C20.2352 11.9715 22.2315 11.3642 24.2739 11.3642C26.3162 11.3642 28.3125 11.9715 30.0088 13.109C31.7051 14.2464 33.0249 15.8626 33.8003 17.7521C34.5757 19.6415 34.7718 21.7189 34.3635 23.7201C33.9553 25.7212 32.9612 27.5558 31.5076 28.9905L31.5151 28.9935Z" fill="black"/>
<path d="M9.73352 21.3002C9.73485 21.1431 9.67454 20.9918 9.56552 20.8787C9.51063 20.8231 9.44542 20.7787 9.37354 20.7482C9.30187 20.7178 9.22487 20.702 9.14703 20.7017H5.01901C4.87599 20.722 4.7451 20.7933 4.65042 20.9025C4.55575 21.0116 4.50366 21.1512 4.50366 21.2957C4.50366 21.4401 4.55575 21.5797 4.65042 21.6889C4.7451 21.798 4.87599 21.8693 5.01901 21.8897H9.14703C9.30259 21.8886 9.4514 21.826 9.56104 21.7157C9.67025 21.6048 9.73209 21.4558 9.73352 21.3002Z" fill="black"/>
<path d="M24.0885 6.867C24.206 6.86652 24.3207 6.83083 24.4178 6.76452C24.5148 6.69821 24.5898 6.60433 24.6329 6.495C24.6616 6.42245 24.6759 6.34501 24.675 6.267V2.085C24.6742 1.92983 24.6121 1.78127 24.5022 1.67169C24.3923 1.56211 24.2436 1.5004 24.0885 1.5C24.0114 1.4998 23.9351 1.51484 23.8638 1.54424C23.7926 1.57365 23.7278 1.61684 23.6733 1.67134C23.6188 1.72584 23.5756 1.79058 23.5462 1.86182C23.5168 1.93307 23.5018 2.00943 23.502 2.0865V6.267C23.5003 6.42459 23.5606 6.57654 23.67 6.69C23.7244 6.74593 23.7895 6.7904 23.8613 6.8208C23.9332 6.85119 24.0104 6.8669 24.0885 6.867Z" fill="black"/>
<path d="M11.223 31.0289L8.30246 33.9839C8.19252 34.0961 8.13098 34.2469 8.13098 34.4039C8.13098 34.561 8.19252 34.7118 8.30246 34.8239C8.35617 34.8794 8.42058 34.9236 8.4917 34.9537C8.56282 34.9839 8.63921 34.9994 8.71646 34.9994C8.7939 34.9992 8.87053 34.9836 8.94186 34.9534C9.0132 34.9233 9.07787 34.8793 9.13202 34.8239L12.0525 31.8674C12.1619 31.7553 12.2233 31.6049 12.2233 31.4482C12.2233 31.2915 12.1619 31.141 12.0525 31.0289C11.9986 30.9733 11.9342 30.9292 11.8629 30.899C11.7917 30.8688 11.7151 30.8533 11.6377 30.8533C11.5604 30.8533 11.4838 30.8688 11.4125 30.899C11.3413 30.9292 11.2768 30.9733 11.223 31.0289Z" fill="black"/>
<path d="M11.094 11.6087C11.1477 11.6642 11.212 11.7084 11.2832 11.7385C11.3543 11.7687 11.4308 11.7842 11.508 11.7842C11.5865 11.7849 11.6643 11.7697 11.7367 11.7395C11.8092 11.7093 11.8747 11.6648 11.9295 11.6087C12.0395 11.4965 12.101 11.3457 12.101 11.1887C12.101 11.0316 12.0395 10.8808 11.9295 10.7687L9.009 7.81369C8.95529 7.75817 8.89098 7.71402 8.81985 7.68387C8.74873 7.65372 8.67225 7.63819 8.595 7.63819C8.51773 7.63782 8.44124 7.65313 8.37006 7.68319C8.29905 7.71377 8.23476 7.75813 8.181 7.81369C8.07106 7.92585 8.00952 8.07664 8.00952 8.23369C8.00952 8.39074 8.07106 8.54153 8.181 8.65369L11.094 11.6087Z" fill="black"/>
<path d="M43.0516 20.7002H38.9206C38.7776 20.7206 38.6467 20.7919 38.552 20.901C38.4574 21.0101 38.4053 21.1497 38.4053 21.2942C38.4053 21.4387 38.4574 21.5783 38.552 21.6874C38.6467 21.7965 38.7776 21.8678 38.9206 21.8882H43.0486C43.1916 21.8678 43.3225 21.7965 43.4171 21.6874C43.5118 21.5783 43.564 21.4387 43.564 21.2942C43.564 21.1497 43.5118 21.0101 43.4171 20.901C43.3225 20.7919 43.1916 20.7206 43.0486 20.7002H43.0516Z" fill="black"/>
<path d="M36.846 31.0289C36.7922 30.9733 36.7276 30.9292 36.6564 30.899C36.5852 30.8688 36.5086 30.8533 36.4312 30.8533C36.3538 30.8533 36.2773 30.8688 36.2061 30.899C36.1348 30.9292 36.0703 30.9733 36.0164 31.0289C35.907 31.141 35.8457 31.2915 35.8457 31.4482C35.8457 31.6049 35.907 31.7553 36.0164 31.8674L38.937 34.8239C38.9908 34.8795 39.0552 34.9237 39.1265 34.9538C39.1977 34.984 39.2743 34.9996 39.3517 34.9996C39.4291 34.9996 39.5057 34.984 39.5769 34.9538C39.6482 34.9237 39.7126 34.8795 39.7664 34.8239C39.8764 34.7118 39.938 34.561 39.938 34.4039C39.938 34.2469 39.8764 34.0961 39.7664 33.9839L36.846 31.0289Z" fill="black"/>
<path d="M36.561 11.7842C36.6384 11.7837 36.7148 11.7679 36.786 11.7377C36.8575 11.7079 36.9223 11.664 36.9765 11.6087L39.897 8.65368C40.007 8.54153 40.0685 8.39074 40.0685 8.23368C40.0685 8.07663 40.007 7.92584 39.897 7.81368C39.8429 7.75826 39.7783 7.71418 39.707 7.68405C39.6356 7.65391 39.5589 7.63832 39.4815 7.63818C39.4042 7.63818 39.3278 7.65372 39.2567 7.68387C39.1856 7.71402 39.1212 7.75816 39.0675 7.81368L36.147 10.7687C36.0371 10.8808 35.9755 11.0316 35.9755 11.1887C35.9755 11.3457 36.0371 11.4965 36.147 11.6087C36.201 11.6636 36.2652 11.7075 36.336 11.7377C36.4072 11.768 36.4837 11.7838 36.561 11.7842Z" fill="black"/>
</g>
<defs>
<clipPath id="clip0_759_643">
<rect width="48" height="48" fill="white"/>
</clipPath>
</defs>
</svg>
