<svg width="16" height="16" viewBox="0 0 16 16" fill="none" xmlns="http://www.w3.org/2000/svg">
<path d="M12.6497 11.6815L15.862 14.893L14.8007 15.9543L11.5892 12.742C10.3943 13.6999 8.90796 14.2209 7.37646 14.2188C3.65046 14.2188 0.626465 11.1948 0.626465 7.46875C0.626465 3.74275 3.65046 0.71875 7.37646 0.71875C11.1025 0.71875 14.1265 3.74275 14.1265 7.46875C14.1286 9.00025 13.6076 10.4866 12.6497 11.6815ZM11.1452 11.125C12.097 10.1462 12.6286 8.83407 12.6265 7.46875C12.6265 4.56775 10.2767 2.21875 7.37646 2.21875C4.47546 2.21875 2.12646 4.56775 2.12646 7.46875C2.12646 10.369 4.47546 12.7188 7.37646 12.7188C8.74179 12.7209 10.0539 12.1893 11.0327 11.2375L11.1452 11.125Z" fill="#485760"/>
</svg>
