<svg width="48" height="48" viewBox="0 0 48 48" fill="none" xmlns="http://www.w3.org/2000/svg">
<g clip-path="url(#clip0_755_656)">
<path d="M39.525 24.4499C39.525 13.9499 35.5951 5.61893 30.4501 4.94993V4.89443C28.1427 4.59514 25.8164 4.4663 23.4901 4.50893C21.5623 4.58775 19.6397 4.76448 17.7299 5.03843C12.7499 6.00143 9 14.1884 9 24.4964C9 35.4299 13.275 44.0504 18.75 44.0504H30.2701C35.4451 43.5209 39.48 35.0999 39.525 24.4499ZM22.11 43.0889L23.445 40.8734C23.4828 40.8212 23.5093 40.7617 23.523 40.6986C23.5367 40.6356 23.5373 40.5704 23.5247 40.5072C23.512 40.4439 23.4863 40.384 23.4494 40.3311C23.4125 40.2782 23.3651 40.2336 23.3101 40.1999C23.2566 40.1632 23.1961 40.1378 23.1324 40.1255C23.0688 40.1131 23.0031 40.114 22.9398 40.1281C22.8765 40.1421 22.8169 40.1691 22.7644 40.2073C22.712 40.2454 22.6678 40.294 22.6349 40.3499L20.955 43.0949H18.36C18.3138 43.0412 18.2637 42.9911 18.21 42.9449L16.155 41.6444C16.1014 41.6081 16.041 41.5831 15.9774 41.571C15.9138 41.5589 15.8484 41.5599 15.7852 41.5739C15.722 41.588 15.6622 41.6148 15.6097 41.6527C15.5573 41.6906 15.5131 41.7388 15.4799 41.7944C12.2099 39.0944 9.91498 32.3549 9.91498 24.5039C9.91498 17.0864 11.9699 10.7294 14.9099 7.74293L16.875 11.0654C16.924 11.1365 16.9887 11.1953 17.0641 11.2372C17.1396 11.2791 17.2238 11.303 17.3101 11.3069C17.3932 11.3175 17.4773 11.3007 17.5499 11.2589C17.6075 11.2278 17.6581 11.1853 17.6986 11.1339C17.7391 11.0826 17.7689 11.0235 17.7858 10.9603C17.8026 10.8971 17.8063 10.8311 17.7968 10.7663C17.7872 10.7016 17.7644 10.6396 17.7299 10.5839L15.6749 7.06793C16.4288 6.42173 17.3698 6.0338 18.36 5.96093L18.8849 7.16093C18.9208 7.24673 18.9813 7.32001 19.0587 7.37153C19.1361 7.42305 19.227 7.4505 19.32 7.45043C19.41 7.45043 19.47 7.40243 19.515 7.40243C19.6279 7.34915 19.7158 7.25437 19.7606 7.13785C19.8053 7.02132 19.8033 6.89203 19.7551 6.77693L19.32 5.76593C20.7049 5.6139 22.0968 5.5333 23.4901 5.52443H23.9249L20.5649 7.06493C20.4521 7.1182 20.3641 7.21298 20.3194 7.32951C20.2747 7.44604 20.2768 7.57533 20.3251 7.69043C20.3609 7.77623 20.4212 7.84951 20.4987 7.90103C20.5761 7.95255 20.667 7.98 20.7599 7.97993C20.8049 7.97993 20.91 7.93193 20.955 7.93193L24.75 6.19793C24.8629 6.14465 24.9508 6.04987 24.9955 5.93334C25.0403 5.81682 25.0383 5.68753 24.9901 5.57243C24.9901 5.57243 24.99 5.52443 24.93 5.52443C25.71 5.52443 26.475 5.57243 27.195 5.62043C25.3287 6.77219 23.8421 8.4471 22.92 10.4369C22.1426 11.9737 21.5293 13.5881 21.0901 15.2534C20.5392 17.3659 20.1875 19.5253 20.04 21.7034C19.995 22.6664 19.9501 23.5814 19.9501 24.5444C19.9501 33.3104 22.68 40.5824 26.61 43.1354H22.11V43.0889ZM29.7299 43.0409C24.8849 43.0409 20.955 34.7084 20.955 24.4499C20.955 23.5349 21 22.6199 21.045 21.7049C21.1737 19.59 21.5102 17.4929 22.0499 15.4439C22.4676 13.8466 23.0508 12.2972 23.79 10.8209C25.41 7.64243 27.5249 5.86043 29.7299 5.86043C34.5899 5.86043 38.5201 14.1929 38.5201 24.4514C38.5201 34.7099 34.5899 43.0409 29.7299 43.0409Z" fill="black"/>
<path d="M33.72 24.45C33.72 19.008 32.325 13.2285 29.73 13.2285C27.135 13.2285 25.7551 19.008 25.7551 24.45C25.7551 29.892 27.15 35.6715 29.73 35.6715C32.31 35.6715 33.72 29.8905 33.72 24.45ZM26.7151 24.45C26.7151 18.429 28.29 14.1915 29.73 14.1915C31.17 14.1915 32.76 18.4305 32.76 24.45C32.76 30.4695 31.17 34.7085 29.73 34.7085C28.29 34.7085 26.7151 30.5175 26.7151 24.45Z" fill="black"/>
<path d="M34.485 28.7818C34.3647 28.7661 34.2429 28.7974 34.1451 28.8692C34.0473 28.941 33.981 29.0478 33.96 29.1673C33.24 33.6463 31.5149 36.7768 29.7299 36.7768C29.6022 36.7768 29.4798 36.8275 29.3895 36.9178C29.2992 37.0081 29.2485 37.1306 29.2485 37.2583C29.2485 37.386 29.2992 37.5085 29.3895 37.5988C29.4798 37.6891 29.6022 37.7398 29.7299 37.7398C32.0849 37.7398 34.11 34.5133 34.875 29.3113C34.8885 29.1902 34.8559 29.0684 34.7836 28.9703C34.7113 28.8721 34.6047 28.8048 34.485 28.7818Z" fill="black"/>
<path d="M18.7949 11.6849C18.8778 11.6914 18.9607 11.6747 19.0348 11.6369L22.6348 9.51737C22.692 9.48588 22.7424 9.44344 22.7831 9.39246C22.8239 9.34149 22.8542 9.28298 22.8723 9.22029C22.8904 9.1576 22.8961 9.09196 22.8888 9.02711C22.8815 8.96226 22.8614 8.89949 22.8298 8.84237C22.7988 8.78473 22.7567 8.7339 22.7057 8.69289C22.6547 8.65188 22.5959 8.62152 22.533 8.60362C22.4701 8.58571 22.404 8.58063 22.3391 8.58866C22.2741 8.59669 22.2116 8.61767 22.1549 8.65037L18.5548 10.7699C18.4965 10.8001 18.4449 10.8419 18.4032 10.8928C18.3616 10.9436 18.3307 11.0024 18.3124 11.0655C18.2942 11.1286 18.2891 11.1948 18.2972 11.2601C18.3054 11.3253 18.3266 11.3882 18.3598 11.4449C18.409 11.5157 18.4737 11.5742 18.5492 11.6158C18.6246 11.6574 18.7088 11.6811 18.7949 11.6849Z" fill="black"/>
<path d="M15.525 15.1048C15.5685 15.1671 15.6271 15.2174 15.6953 15.251C15.7635 15.2846 15.8391 15.3003 15.915 15.2968C15.9667 15.3032 16.0191 15.298 16.0684 15.2813C16.1178 15.2647 16.1629 15.2372 16.2001 15.2008C16.2959 15.1193 16.3582 15.0053 16.3748 14.8806C16.3914 14.7559 16.3611 14.6295 16.29 14.5258L13.845 11.1058C13.7632 11.0107 13.6498 10.9486 13.5257 10.9309C13.4015 10.9133 13.2751 10.9413 13.1701 11.0098C13.0773 11.0933 13.0172 11.207 13.0007 11.3307C12.9842 11.4544 13.0123 11.58 13.08 11.6848L15.525 15.1048Z" fill="black"/>
<path d="M17.4 15.5865C17.5011 15.5766 17.5986 15.5437 17.6851 15.4905L21.0902 13.0335C21.1848 12.9517 21.2473 12.8389 21.2665 12.7153C21.2857 12.5917 21.2604 12.4652 21.1951 12.3585C21.1131 12.2637 20.9996 12.2018 20.8756 12.1841C20.7515 12.1665 20.6253 12.1943 20.5201 12.2625L17.1151 14.7195C17.0205 14.8013 16.958 14.9141 16.9388 15.0377C16.9196 15.1614 16.9447 15.2878 17.01 15.3945C17.0535 15.4568 17.1121 15.5072 17.1803 15.5407C17.2485 15.5743 17.3241 15.5901 17.4 15.5865Z" fill="black"/>
<path d="M14.3701 19.4401C14.4137 19.4881 14.4672 19.5262 14.5266 19.5521C14.5861 19.5779 14.6504 19.5909 14.7152 19.5901C14.8317 19.587 14.9453 19.5539 15.0452 19.4941C15.0987 19.4571 15.1431 19.4085 15.1752 19.352C15.2073 19.2954 15.2262 19.2324 15.2305 19.1675C15.2348 19.1026 15.2246 19.0375 15.2003 18.9772C15.176 18.9169 15.1384 18.8629 15.0902 18.8191L12.2702 15.7366C12.2296 15.6877 12.1796 15.6474 12.1232 15.6181C12.0668 15.5887 12.0053 15.571 11.9419 15.5658C11.8786 15.5606 11.8148 15.5682 11.7544 15.588C11.694 15.6078 11.6381 15.6394 11.5902 15.6811C11.5422 15.7228 11.503 15.7736 11.475 15.8307C11.4469 15.8877 11.4306 15.9497 11.4268 16.0132C11.4231 16.0766 11.4322 16.1402 11.4534 16.2001C11.4746 16.26 11.5073 16.3151 11.5501 16.3621L14.3701 19.4401Z" fill="black"/>
<path d="M15.915 19.5359C15.9557 19.5836 16.0063 19.6217 16.0634 19.6476C16.1204 19.6735 16.1824 19.6866 16.245 19.6859C16.3651 19.6765 16.4824 19.6439 16.5902 19.5899L19.65 16.7489C19.7019 16.7111 19.7451 16.6627 19.7767 16.6068C19.8083 16.5509 19.8276 16.489 19.8333 16.425C19.839 16.3611 19.831 16.2967 19.8097 16.2361C19.7884 16.1756 19.7545 16.1203 19.7101 16.0739C19.6732 16.0204 19.6246 15.976 19.5682 15.9437C19.5118 15.9115 19.449 15.8924 19.3842 15.8878C19.3194 15.8832 19.2543 15.8932 19.1939 15.9171C19.1335 15.941 19.0791 15.9782 19.035 16.0259L15.9601 18.8669C15.9076 18.904 15.8641 18.9523 15.8326 19.0083C15.8012 19.0643 15.7828 19.1266 15.7784 19.1907C15.7741 19.2548 15.7841 19.319 15.8077 19.3787C15.8314 19.4385 15.868 19.4921 15.915 19.5359Z" fill="black"/>
<path d="M13.95 23.7254C13.9921 23.7708 14.0432 23.8071 14.1 23.8319C14.1568 23.8566 14.218 23.8694 14.28 23.8694C14.3419 23.8694 14.4032 23.8566 14.46 23.8319C14.5167 23.8071 14.5678 23.7708 14.6099 23.7254C14.6562 23.6822 14.6931 23.6299 14.7183 23.5718C14.7435 23.5138 14.7564 23.4512 14.7564 23.3879C14.7564 23.3246 14.7435 23.262 14.7183 23.2039C14.6931 23.1459 14.6562 23.0936 14.6099 23.0504L11.64 20.0639C11.5964 20.0182 11.544 19.9819 11.486 19.9571C11.428 19.9322 11.3656 19.9194 11.3025 19.9194C11.2394 19.9194 11.1768 19.9322 11.1188 19.9571C11.0608 19.9819 11.0086 20.0182 10.965 20.0639C10.9188 20.1071 10.8818 20.1594 10.8566 20.2174C10.8314 20.2755 10.8184 20.3381 10.8184 20.4014C10.8184 20.4647 10.8314 20.5273 10.8566 20.5853C10.8818 20.6434 10.9188 20.6957 10.965 20.7389L13.95 23.7254Z" fill="black"/>
<path d="M18.4501 20.0653L15.48 23.0518C15.4337 23.0951 15.397 23.1473 15.3718 23.2054C15.3466 23.2634 15.3335 23.3261 15.3335 23.3893C15.3335 23.4526 15.3466 23.5153 15.3718 23.5733C15.397 23.6314 15.4337 23.6836 15.48 23.7269C15.5206 23.7745 15.5713 23.8126 15.6283 23.8386C15.6853 23.8645 15.7475 23.8775 15.8101 23.8768C15.875 23.8776 15.9393 23.8647 15.9987 23.8388C16.0582 23.813 16.1114 23.7748 16.1551 23.7269L19.1251 20.7403C19.1713 20.6971 19.2081 20.6449 19.2333 20.5868C19.2585 20.5288 19.2715 20.4661 19.2715 20.4028C19.2715 20.3396 19.2585 20.2769 19.2333 20.2189C19.2081 20.1608 19.1713 20.1086 19.1251 20.0653C19.0815 20.0197 19.0291 19.9834 18.9711 19.9585C18.9131 19.9337 18.8507 19.9209 18.7876 19.9209C18.7245 19.9209 18.662 19.9337 18.6039 19.9585C18.5459 19.9834 18.4937 20.0197 18.4501 20.0653Z" fill="black"/>
<path d="M14.4299 28.2C14.5699 28.2017 14.7047 28.1477 14.8049 28.05C14.8482 28.0037 14.8816 27.949 14.9029 27.8892C14.9242 27.8295 14.9329 27.766 14.9287 27.7028C14.9245 27.6395 14.9074 27.5778 14.8783 27.5214C14.8493 27.465 14.8089 27.4152 14.7599 27.375L11.5498 24.675C11.5029 24.6327 11.4481 24.6003 11.3884 24.5797C11.3286 24.5592 11.2652 24.5509 11.2021 24.5554C11.1391 24.5599 11.0776 24.577 11.0214 24.6058C10.9652 24.6346 10.9154 24.6745 10.8749 24.723C10.8319 24.7693 10.7988 24.824 10.7777 24.8835C10.7565 24.9431 10.7477 25.0064 10.7519 25.0695C10.7561 25.1326 10.7732 25.1941 10.802 25.2504C10.8309 25.3066 10.8711 25.3564 10.92 25.3965L14.13 28.0965C14.2212 28.1526 14.3235 28.188 14.4299 28.2Z" fill="black"/>
<path d="M19.0348 24.6884C19.0761 24.6412 19.1077 24.5864 19.1278 24.527C19.1479 24.4676 19.1562 24.4048 19.152 24.3423C19.1478 24.2797 19.1313 24.2186 19.1034 24.1624C19.0756 24.1063 19.0371 24.0561 18.9899 24.0149C18.943 23.9726 18.888 23.9401 18.8282 23.9196C18.7685 23.899 18.7052 23.8907 18.6422 23.8952C18.5792 23.8997 18.5177 23.9169 18.4615 23.9457C18.4052 23.9745 18.3553 24.0143 18.3148 24.0629L15.6299 27.2894C15.5866 27.3357 15.5533 27.3904 15.532 27.4502C15.5107 27.5099 15.5019 27.5733 15.5062 27.6366C15.5104 27.6999 15.5275 27.7616 15.5565 27.818C15.5855 27.8744 15.6257 27.9242 15.6748 27.9644C15.7613 28.0176 15.8588 28.0504 15.9599 28.0604C16.1043 28.0621 16.2439 28.0085 16.3499 27.9104L19.0348 24.6884Z" fill="black"/>
<path d="M15.0902 32.5395C15.17 32.535 15.2473 32.5107 15.3154 32.4688C15.3835 32.4269 15.4401 32.3687 15.48 32.2995C15.5168 32.2461 15.5422 32.1858 15.5546 32.1222C15.5669 32.0587 15.5659 31.9932 15.5518 31.93C15.5377 31.8668 15.5109 31.8072 15.4727 31.7549C15.4346 31.7026 15.386 31.6587 15.3301 31.626L11.8351 29.3145C11.7265 29.2448 11.5948 29.2212 11.4687 29.2488C11.3427 29.2764 11.2328 29.3529 11.1631 29.4615C11.0935 29.5701 11.0698 29.7019 11.0974 29.8279C11.125 29.9539 11.2016 30.0638 11.3102 30.1335L14.8051 32.445C14.8928 32.4954 14.9898 32.5275 15.0902 32.5395Z" fill="black"/>
<path d="M16.2899 32.0999C16.3817 32.1534 16.4842 32.1861 16.59 32.1959C16.6696 32.1994 16.7483 32.1782 16.8154 32.1353C16.8825 32.0923 16.9348 32.0297 16.965 31.9559L19.2748 28.4399C19.3101 28.386 19.3343 28.3256 19.3459 28.2622C19.3574 28.1988 19.356 28.1337 19.342 28.0708C19.3281 28.0079 19.3017 27.9485 19.2644 27.8959C19.2271 27.8434 19.1797 27.7988 19.1249 27.7649C19.0713 27.7286 19.0109 27.7036 18.9473 27.6915C18.8837 27.6794 18.8182 27.6804 18.755 27.6944C18.6918 27.7085 18.6322 27.7353 18.5798 27.7732C18.5273 27.8111 18.4831 27.8593 18.45 27.9149L16.1549 31.4309C16.1179 31.4831 16.0918 31.5422 16.0786 31.6048C16.0653 31.6673 16.065 31.732 16.0776 31.7947C16.0903 31.8573 16.1156 31.9168 16.1522 31.9693C16.1887 32.0218 16.2355 32.0663 16.2899 32.0999Z" fill="black"/>
<path d="M16.1551 36.7785C16.2405 36.7712 16.3235 36.7459 16.3984 36.7043C16.4734 36.6626 16.5387 36.6057 16.5901 36.537C16.6429 36.4197 16.6522 36.2874 16.6165 36.1638C16.5808 36.0401 16.5023 35.9332 16.3951 35.8621L12.7951 33.7426C12.6783 33.6879 12.5457 33.6773 12.4217 33.7126C12.2977 33.7478 12.1905 33.8267 12.12 33.9345C12.0676 34.0517 12.0587 34.1837 12.0943 34.307C12.13 34.4303 12.2081 34.5369 12.315 34.6081L15.915 36.7276C15.9879 36.7688 16.0717 36.7866 16.1551 36.7785Z" fill="black"/>
<path d="M19.9949 31.8661C19.8781 31.8115 19.7455 31.8008 19.6215 31.8361C19.4975 31.8714 19.3905 31.9502 19.32 32.0581L17.2049 35.6701C17.1523 35.7872 17.143 35.9193 17.1787 36.0427C17.2144 36.166 17.2928 36.2727 17.3999 36.3436C17.4736 36.3824 17.557 36.3991 17.64 36.3916C17.8104 36.3704 17.9662 36.2845 18.075 36.1516L20.1899 32.5396C20.2425 32.4224 20.252 32.2904 20.2163 32.167C20.1805 32.0436 20.102 31.937 19.9949 31.8661Z" fill="black"/>
<path d="M17.9249 39.6676L14.19 37.8376C14.1328 37.8101 14.0706 37.7943 14.0072 37.7911C13.9438 37.788 13.8805 37.7976 13.8208 37.8193C13.7612 37.8411 13.7065 37.8745 13.66 37.9177C13.6135 37.961 13.576 38.0131 13.55 38.071C13.524 38.1289 13.5099 38.1914 13.5084 38.2549C13.5069 38.3183 13.5181 38.3814 13.5414 38.4405C13.5647 38.4996 13.5995 38.5533 13.6439 38.5987C13.6883 38.6441 13.7414 38.6801 13.7999 38.7046L17.5499 40.5346C17.6018 40.5726 17.666 40.5897 17.7299 40.5826C17.8235 40.5856 17.9158 40.5594 17.9938 40.5075C18.0718 40.4556 18.1316 40.3806 18.165 40.2931C18.1907 40.2363 18.2049 40.175 18.2067 40.1127C18.2086 40.0504 18.1979 39.9884 18.1756 39.9302C18.1533 39.8721 18.1196 39.8189 18.0765 39.7738C18.0335 39.7287 17.982 39.6926 17.9249 39.6676Z" fill="black"/>
<path d="M20.9549 35.8635C20.8391 35.8144 20.7088 35.8121 20.5913 35.8572C20.4738 35.9022 20.3783 35.9911 20.325 36.105L18.75 39.3795C18.7243 39.4363 18.71 39.4976 18.7082 39.5599C18.7064 39.6222 18.717 39.6842 18.7393 39.7424C18.7617 39.8006 18.7954 39.8538 18.8384 39.8988C18.8814 39.9439 18.9329 39.98 18.99 40.005C19.0419 40.043 19.1061 40.0602 19.17 40.053C19.2636 40.0561 19.3559 40.0298 19.4339 39.9779C19.5118 39.926 19.5715 39.8511 19.6049 39.7635L21.195 36.489C21.2432 36.3739 21.2452 36.2446 21.2005 36.1281C21.1557 36.0116 21.0678 35.9168 20.9549 35.8635Z" fill="black"/>
</g>
<defs>
<clipPath id="clip0_755_656">
<rect width="48" height="48" fill="white"/>
</clipPath>
</defs>
</svg>
