<svg width="30" height="30" viewBox="0 0 30 30" fill="none" xmlns="http://www.w3.org/2000/svg">
<path d="M23.2983 21.82C23.5448 21.0911 23.6667 20.3258 23.659 19.5564C23.659 15.7747 21.2823 11.3514 18.0547 9.51485C17.9642 8.91441 17.6993 8.35381 17.2927 7.90279L18.3432 5.65882C18.4759 5.37284 18.5037 5.04934 18.4219 4.7449C18.3401 4.44046 18.1539 4.17448 17.8958 3.9935C17.6377 3.81251 17.3241 3.72805 17.01 3.75488C16.6959 3.78171 16.4013 3.91813 16.1776 4.14027C15.8582 4.45915 15.4253 4.63824 14.9739 4.63824C14.5226 4.63824 14.0897 4.45915 13.7702 4.14027C13.5461 3.92033 13.252 3.78584 12.9391 3.76015C12.6261 3.73447 12.314 3.81921 12.0571 3.99967C11.8001 4.18012 11.6144 4.44489 11.5324 4.74798C11.4503 5.05108 11.4769 5.37335 11.6077 5.65882L12.6596 7.90101C12.5888 7.98028 12.5221 8.06307 12.4596 8.14905C11.6479 7.502 10.7424 6.98216 9.77435 6.60735C9.71967 6.58627 9.66138 6.57616 9.60279 6.57761C9.54421 6.57906 9.48648 6.59203 9.43291 6.61579C9.37934 6.63954 9.33097 6.67362 9.29057 6.71607C9.25017 6.75852 9.21852 6.80851 9.19744 6.86319C9.17636 6.91787 9.16625 6.97616 9.1677 7.03475C9.16915 7.09333 9.18212 7.15106 9.20587 7.20463C9.22963 7.2582 9.26371 7.30657 9.30616 7.34697C9.34861 7.38738 9.3986 7.41902 9.45328 7.4401C10.0196 7.65796 10.5634 7.93044 11.0769 8.2537C9.76263 8.2906 8.48019 8.66659 7.35403 9.34519C7.30144 9.37411 7.25524 9.41336 7.2182 9.46059C7.18116 9.50782 7.15405 9.56205 7.1385 9.62002C7.12295 9.67799 7.11928 9.7385 7.12771 9.79793C7.13614 9.85736 7.15649 9.91446 7.18755 9.96582C7.2186 10.0172 7.25972 10.0617 7.30843 10.0968C7.35714 10.1319 7.41244 10.1567 7.471 10.1699C7.52955 10.183 7.59017 10.1842 7.6492 10.1734C7.70823 10.1625 7.76445 10.1398 7.81449 10.1067C9.06121 9.357 10.517 9.03081 11.9644 9.17686C11.9353 9.28817 11.9125 9.40101 11.8959 9.51485C8.66817 11.3514 6.2915 15.7747 6.2915 19.5564C6.28377 20.3258 6.40571 21.0911 6.65221 21.82C6.39362 21.964 6.17022 22.1636 5.99809 22.4044C5.82597 22.6452 5.70941 22.9212 5.65683 23.2125C5.60424 23.5038 5.61694 23.8031 5.694 24.0889C5.77107 24.3747 5.91058 24.6398 6.10248 24.8651C6.29438 25.0905 6.53389 25.2705 6.80374 25.3921C7.07359 25.5137 7.36707 25.5739 7.66301 25.5684C7.95895 25.5629 8.24998 25.4918 8.51513 25.3603C8.78028 25.2287 9.01293 25.04 9.19633 24.8076C10.6267 25.6092 12.5679 26.014 14.9753 26.014C17.3827 26.014 19.3238 25.6092 20.7542 24.8076C20.9375 25.0401 21.1701 25.229 21.4353 25.3607C21.7005 25.4924 21.9915 25.5636 22.2876 25.5692C22.5836 25.5748 22.8771 25.5146 23.1471 25.393C23.417 25.2714 23.6566 25.0914 23.8486 24.866C24.0405 24.6406 24.1801 24.3755 24.2572 24.0896C24.3342 23.8037 24.3469 23.5043 24.2943 23.213C24.2416 22.9216 24.125 22.6456 23.9528 22.4048C23.7805 22.164 23.557 21.9644 23.2983 21.8204V21.82ZM14.9753 7.75539C15.3935 7.75681 15.803 7.87549 16.1573 8.09794C16.5115 8.32039 16.7963 8.63771 16.9792 9.01387C15.6883 8.52318 14.2622 8.52318 12.9713 9.01387C13.1543 8.63771 13.439 8.32039 13.7932 8.09794C14.1475 7.87549 14.557 7.75681 14.9753 7.75539V7.75539ZM13.1419 4.76818C13.6284 5.2538 14.2878 5.52654 14.9753 5.52654C15.6627 5.52654 16.3221 5.2538 16.8086 4.76818C16.8842 4.69489 16.983 4.65024 17.088 4.64188C17.1929 4.63353 17.2975 4.66201 17.3837 4.72241C17.47 4.78281 17.5324 4.87137 17.5605 4.97286C17.5885 5.07435 17.5802 5.18243 17.5372 5.27851L16.5833 7.31808C16.0995 7.02207 15.5433 6.86542 14.9761 6.86542C14.409 6.86542 13.8528 7.02207 13.369 7.31808L12.4142 5.28029C12.3701 5.18421 12.361 5.07572 12.3886 4.97365C12.4161 4.87158 12.4785 4.78238 12.565 4.72153C12.6515 4.66068 12.7565 4.63203 12.8619 4.64055C12.9672 4.64907 13.0663 4.69423 13.1419 4.76818V4.76818ZM22.3231 24.6776C22.1079 24.6771 21.8976 24.6143 21.7174 24.4968C21.5372 24.3793 21.3949 24.2121 21.3077 24.0154C21.2814 23.9565 21.2426 23.904 21.194 23.8616C21.1454 23.8191 21.0882 23.7878 21.0262 23.7696C20.9643 23.7515 20.8992 23.7471 20.8354 23.7566C20.7716 23.7661 20.7106 23.7894 20.6567 23.8248C19.3452 24.6861 17.4339 25.1229 14.9753 25.1229C12.5166 25.1229 10.6053 24.6861 9.29385 23.8248C9.23992 23.7894 9.17894 23.7661 9.11513 23.7566C9.05132 23.7471 8.98619 23.7515 8.92427 23.7696C8.86235 23.7878 8.80511 23.8191 8.75651 23.8616C8.70791 23.904 8.66911 23.9565 8.64279 24.0154C8.56753 24.1885 8.4495 24.3396 8.29978 24.4546C8.15006 24.5695 7.97357 24.6445 7.7869 24.6725C7.60023 24.7005 7.4095 24.6806 7.23265 24.6146C7.0558 24.5486 6.89863 24.4388 6.77591 24.2953C6.65319 24.1519 6.56895 23.9797 6.53111 23.7947C6.49326 23.6098 6.50306 23.4183 6.55957 23.2382C6.61609 23.0581 6.71747 22.8953 6.85418 22.7652C6.9909 22.635 7.15846 22.5418 7.34112 22.4942C7.40312 22.4776 7.4608 22.4478 7.51021 22.4068C7.55962 22.3658 7.59958 22.3147 7.62737 22.2568C7.65516 22.1989 7.67011 22.1358 7.6712 22.0716C7.67229 22.0074 7.6595 21.9438 7.63369 21.885C7.32318 21.1486 7.16939 20.3555 7.18214 19.5564C7.18214 14.16 11.467 9.53668 14.9753 9.53668C18.4835 9.53668 22.7684 14.16 22.7684 19.5564C22.7811 20.3555 22.6273 21.1486 22.3168 21.885C22.291 21.9438 22.2782 22.0074 22.2793 22.0716C22.2804 22.1358 22.2954 22.1989 22.3231 22.2568C22.3509 22.3147 22.3909 22.3658 22.4403 22.4068C22.4897 22.4478 22.5474 22.4776 22.6094 22.4942C22.8691 22.5642 23.0945 22.7261 23.2438 22.9498C23.3931 23.1736 23.4561 23.4439 23.4211 23.7105C23.3861 23.9772 23.2555 24.2221 23.0535 24.3997C22.8516 24.5773 22.592 24.6756 22.3231 24.6763V24.6776Z" fill="#333333" stroke="#333333" stroke-width="0.4"/>
<path d="M15.8041 16.8721C15.6643 16.8226 15.5214 16.7701 15.3784 16.7162V14.4731C15.6001 14.5198 15.808 14.617 15.9858 14.7572C16.0735 14.8343 16.1878 14.8739 16.3043 14.8675C16.4208 14.8611 16.5302 14.8092 16.6088 14.723C16.6875 14.6368 16.7292 14.5232 16.7249 14.4066C16.7207 14.29 16.6708 14.1797 16.5861 14.0995C16.2411 13.813 15.8227 13.6289 15.3784 13.5682V13.0993C15.3784 12.9812 15.3315 12.8679 15.248 12.7844C15.1645 12.7009 15.0512 12.654 14.9331 12.654C14.815 12.654 14.7017 12.7009 14.6182 12.7844C14.5347 12.8679 14.4878 12.9812 14.4878 13.0993V13.6021C14.4139 13.6181 14.339 13.6359 14.262 13.6591C13.933 13.7629 13.639 13.9553 13.4122 14.2153C13.1854 14.4752 13.0346 14.7926 12.9764 15.1326C12.9085 15.4272 12.923 15.7346 13.0182 16.0215C13.1134 16.3083 13.2856 16.5635 13.5161 16.759C13.8157 16.9834 14.1421 17.1696 14.4878 17.3134V20.1447C14.1071 20.1222 13.7416 19.9876 13.4373 19.7578C13.3384 19.6952 13.2189 19.6741 13.1047 19.699C12.9904 19.7238 12.8904 19.7926 12.8265 19.8905C12.7625 19.9884 12.7396 20.1076 12.7627 20.2222C12.7858 20.3368 12.8531 20.4378 12.9501 20.5032C13.3983 20.8295 13.9337 21.0147 14.4878 21.0349V21.5604C14.4878 21.6785 14.5347 21.7918 14.6182 21.8753C14.7017 21.9588 14.815 22.0057 14.9331 22.0057C15.0512 22.0057 15.1645 21.9588 15.248 21.8753C15.3315 21.7918 15.3784 21.6785 15.3784 21.5604V20.9998C15.831 20.9101 16.2452 20.6841 16.5656 20.3522C16.886 20.0202 17.0972 19.5982 17.1708 19.1428C17.2629 18.6624 17.1744 18.1649 16.9221 17.7458C16.6699 17.3267 16.2718 17.0156 15.8041 16.8721V16.8721ZM14.0674 16.058C13.9664 15.9623 13.8932 15.8411 13.8555 15.7072C13.8178 15.5733 13.817 15.4317 13.8532 15.2974C13.8827 15.1246 13.9569 14.9626 14.0686 14.8275C14.1803 14.6924 14.3254 14.5889 14.4896 14.5275V16.3239C14.3408 16.2477 14.199 16.1588 14.0656 16.058H14.0674ZM16.294 18.9949C16.2527 19.2405 16.1459 19.4704 15.9851 19.6605C15.8242 19.8506 15.6151 19.9939 15.3798 20.0753V17.6647L15.5089 17.7115C15.7771 17.7875 16.0067 17.9619 16.152 18.1998C16.2973 18.4377 16.3475 18.7216 16.2927 18.9949H16.294Z" fill="#333333" stroke="#333333" stroke-width="0.3"/>
</svg>
