<svg width="30" height="30" viewBox="0 0 30 30" fill="none" xmlns="http://www.w3.org/2000/svg">
<path d="M21.4835 12.8364L18.1085 9.4137V5.1C18.1085 4.74196 17.9682 4.39858 17.7183 4.14541C17.4685 3.89223 17.1296 3.75 16.7763 3.75H7.89474C7.5414 3.75 7.20255 3.89223 6.9527 4.14541C6.70286 4.39858 6.5625 4.74196 6.5625 5.1V18.15C6.5625 18.508 6.70286 18.8514 6.9527 19.1046C7.20255 19.3578 7.5414 19.5 7.89474 19.5H10.1151V23.1C10.1161 23.9351 10.4439 24.7358 11.0266 25.3263C11.6094 25.9169 12.3995 26.249 13.2237 26.25H22.1052C22.4586 26.25 22.7974 26.1078 23.0473 25.8546C23.2971 25.6014 23.4375 25.258 23.4375 24.9V17.61C23.4396 16.7229 23.268 15.8442 22.9326 15.0248C22.5972 14.2054 22.1047 13.4615 21.4835 12.8364ZM17.2204 5.1V13.627L15.8881 12.2807V4.65H16.7763C16.8941 4.65 17.007 4.69741 17.0903 4.7818C17.1736 4.86619 17.2204 4.98065 17.2204 5.1ZM13.65 11.4513V4.65H15V11.5998C14.5782 11.4018 14.1039 11.3496 13.65 11.4513ZM13.65 18.6V16.323L15 17.6892V18.6H13.65ZM7.45066 18.15V5.1C7.45066 4.98065 7.49744 4.86619 7.58072 4.7818C7.66401 4.69741 7.77696 4.65 7.89474 4.65H12.7618V11.8644L12.7574 11.868C12.6603 11.9368 12.5726 12.0184 12.4967 12.1106C12.2838 12.3386 12.1206 12.6094 12.0178 12.9055C11.915 13.2016 11.8749 13.5164 11.9 13.8292C11.9251 14.1421 12.015 14.4461 12.1637 14.7215C12.3124 14.9968 12.5167 15.2374 12.7632 15.4275V18.6H7.89474C7.77696 18.6 7.66401 18.5526 7.58072 18.4682C7.49744 18.3838 7.45066 18.2693 7.45066 18.15ZM22.5493 24.9C22.5493 25.0193 22.5025 25.1338 22.4193 25.2182C22.336 25.3026 22.223 25.35 22.1052 25.35H13.2237C12.635 25.3493 12.0707 25.112 11.6544 24.6902C11.2381 24.2684 11.004 23.6965 11.0033 23.1V19.5H16.7878L17.525 20.247C17.4859 20.9517 17.5206 23.082 19.2423 23.9528C19.3477 24.0061 19.4697 24.0148 19.5815 23.977C19.6368 23.9583 19.6879 23.9287 19.732 23.89C19.7761 23.8512 19.8122 23.804 19.8382 23.7511C19.8643 23.6983 19.8798 23.6407 19.8839 23.5817C19.888 23.5227 19.8807 23.4635 19.8622 23.4074C19.8437 23.3514 19.8145 23.2995 19.7763 23.2549C19.738 23.2102 19.6915 23.1737 19.6393 23.1472C18.1698 22.4029 18.4221 20.1538 18.4247 20.1322C18.4332 20.0642 18.4262 19.9951 18.4042 19.9302C18.3823 19.8653 18.346 19.8064 18.2982 19.7579C11.8652 13.2387 13.9258 15.3271 13.4044 14.7988C12.8844 14.2399 12.3164 13.5672 13.1637 12.7032C13.3985 12.465 13.7123 12.3239 14.0441 12.3072C14.3759 12.2906 14.7019 12.3997 14.9587 12.6132L19.4927 17.2032C19.5765 17.2852 19.6887 17.3305 19.8051 17.3295C19.9215 17.3285 20.0329 17.2812 20.1152 17.1977C20.1976 17.1143 20.2443 17.0014 20.2453 16.8834C20.2463 16.7654 20.2015 16.6518 20.1207 16.5669L18.1085 14.5257V10.6868L20.8578 13.4727C21.3957 14.0147 21.8222 14.6595 22.1126 15.3697C22.4029 16.0798 22.5514 16.8413 22.5493 17.61V24.9Z" fill="#333333" stroke="#333333" stroke-width="0.5"/>
</svg>
