<svg width="30" height="30" viewBox="0 0 30 30" fill="none" xmlns="http://www.w3.org/2000/svg">
<path d="M26.963 7.5H3.43174C3.26751 7.5 3.11 7.56887 2.99387 7.69145C2.87774 7.81403 2.8125 7.98029 2.8125 8.15365V22.5339C2.8125 22.7072 2.87774 22.8735 2.99387 22.9961C3.11 23.1186 3.26751 23.1875 3.43174 23.1875H26.963C27.1272 23.1875 27.2847 23.1186 27.4009 22.9961C27.517 22.8735 27.5822 22.7072 27.5822 22.5339V8.15365C27.5822 7.98029 27.517 7.81403 27.4009 7.69145C27.2847 7.56887 27.1272 7.5 26.963 7.5ZM26.3438 21.8802H4.05099V8.80729H26.3438V21.8802ZM5.90872 19.2656C6.07292 19.2657 6.23037 19.3346 6.34648 19.4572C6.46259 19.5797 6.52786 19.7459 6.52796 19.9193C6.52796 20.0926 6.5932 20.2589 6.70933 20.3815C6.82546 20.5041 6.98297 20.5729 7.1472 20.5729H23.2475C23.4118 20.5729 23.5693 20.5041 23.6854 20.3815C23.8015 20.2589 23.8668 20.0926 23.8668 19.9193C23.8669 19.7459 23.9321 19.5797 24.0483 19.4572C24.1644 19.3346 24.3218 19.2657 24.486 19.2656C24.6503 19.2656 24.8078 19.1968 24.9239 19.0742C25.04 18.9516 25.1053 18.7853 25.1053 18.612V12.0755C25.1053 11.9022 25.04 11.7359 24.9239 11.6133C24.8078 11.4907 24.6503 11.4219 24.486 11.4219C24.3218 11.4218 24.1644 11.3529 24.0483 11.2303C23.9321 11.1078 23.8669 10.9416 23.8668 10.7682C23.8668 10.5949 23.8015 10.4286 23.6854 10.306C23.5693 10.1834 23.4118 10.1146 23.2475 10.1146H7.1472C6.98297 10.1146 6.82546 10.1834 6.70933 10.306C6.5932 10.4286 6.52796 10.5949 6.52796 10.7682C6.52786 10.9416 6.46259 11.1078 6.34648 11.2303C6.23037 11.3529 6.07292 11.4218 5.90872 11.4219C5.74448 11.4219 5.58698 11.4907 5.47085 11.6133C5.35471 11.7359 5.28947 11.9022 5.28947 12.0755V18.612C5.28947 18.7853 5.35471 18.9516 5.47085 19.0742C5.58698 19.1968 5.74448 19.2656 5.90872 19.2656ZM6.52796 12.6175C6.78898 12.5194 7.02605 12.3612 7.22197 12.1544C7.41788 11.9476 7.56772 11.6974 7.66062 11.4219H22.7341C22.827 11.6974 22.9769 11.9476 23.1728 12.1544C23.3687 12.3612 23.6058 12.5194 23.8668 12.6175V18.07C23.6058 18.1681 23.3687 18.3263 23.1728 18.5331C22.9769 18.7399 22.827 18.9901 22.7341 19.2656H7.66062C7.56772 18.9901 7.41788 18.7399 7.22197 18.5331C7.02605 18.3263 6.78898 18.1681 6.52796 18.07V12.6175ZM7.76645 15.3438C7.76645 15.1704 7.83169 15.0041 7.94782 14.8816C8.06395 14.759 8.22146 14.6901 8.38569 14.6901H9.62418C9.78841 14.6901 9.94592 14.759 10.062 14.8816C10.1782 15.0041 10.2434 15.1704 10.2434 15.3438C10.2434 15.5171 10.1782 15.6834 10.062 15.8059C9.94592 15.9285 9.78841 15.9974 9.62418 15.9974H8.38569C8.22146 15.9974 8.06395 15.9285 7.94782 15.8059C7.83169 15.6834 7.76645 15.5171 7.76645 15.3438ZM20.1513 15.3438C20.1513 15.1704 20.2166 15.0041 20.3327 14.8816C20.4488 14.759 20.6063 14.6901 20.7706 14.6901H22.009C22.1733 14.6901 22.3308 14.759 22.4469 14.8816C22.563 15.0041 22.6283 15.1704 22.6283 15.3438C22.6283 15.5171 22.563 15.6834 22.4469 15.8059C22.3308 15.9285 22.1733 15.9974 22.009 15.9974H20.7706C20.6063 15.9974 20.4488 15.9285 20.3327 15.8059C20.2166 15.6834 20.1513 15.5171 20.1513 15.3438Z" fill="#333333"/>
<path fill-rule="evenodd" clip-rule="evenodd" d="M14.671 18.0856V17.282C14.3174 17.2434 13.9445 17.1469 13.6488 16.9862V16.1954C14.0795 16.4847 14.6196 16.6133 14.986 16.6133C15.3911 16.6133 15.6739 16.4655 15.6739 16.1311C15.6739 15.7133 15.2239 15.6875 14.6839 15.5461C14.0538 15.3789 13.5459 15.1282 13.5459 14.4274C13.5459 13.7781 13.9959 13.3666 14.671 13.2702V12.4537H15.2818V13.2573C15.6225 13.2895 15.989 13.3859 16.2719 13.5402V14.3053C15.8475 14.0481 15.3461 13.9259 14.9925 13.9259C14.6067 13.9259 14.3431 14.061 14.3431 14.3696C14.3431 14.7617 14.7867 14.7939 15.3011 14.9289C15.9504 15.0961 16.4712 15.3468 16.4712 16.0733C16.4712 16.7741 15.9761 17.1855 15.2818 17.2755V18.0856H14.671Z" fill="#333333"/>
</svg>
