<svg width="30" height="30" viewBox="0 0 30 30" fill="none" xmlns="http://www.w3.org/2000/svg">
<path d="M23.6096 18.0748L20.0746 19.4153C20.0795 19.3622 20.0911 19.311 20.0911 19.2567C20.0911 18.2784 19.2738 17.4827 18.2695 17.4827H15.2117C14.0798 16.3754 12.5279 15.7443 10.9182 15.7443H7.216V15.1719C7.216 14.6953 6.81777 14.3073 6.32808 14.3073H3.70042C3.21073 14.3073 2.8125 14.6953 2.8125 15.1719V23.4208C2.8125 23.8974 3.21073 24.2854 3.70042 24.2854H6.32808C6.81777 24.2854 7.216 23.8974 7.216 23.4208V22.8205L13.4097 24.9681C14.0741 25.1982 14.7732 25.3127 15.4718 25.3127C16.3958 25.3127 17.3185 25.1125 18.1583 24.7172L27.8393 20.1583C27.9709 20.0962 28.0685 19.9821 28.1071 19.8445C28.1456 19.7072 28.1214 19.5604 28.0406 19.442C27.0842 18.0392 25.2211 17.4649 23.6096 18.0748ZM6.2035 23.2995H3.825V15.2932H6.2035V23.2995ZM17.7173 23.8295C16.4853 24.4101 15.0394 24.4867 13.7493 24.0389L7.216 21.7736V16.7302H10.9182C12.3215 16.7302 13.6722 17.306 14.6239 18.3102C14.7198 18.4113 14.8545 18.4686 14.9959 18.4686H18.2695C18.7157 18.4686 19.0786 18.8219 19.0786 19.2567C19.0786 19.5768 18.8809 19.8517 18.5989 19.9749L18.5551 19.9915C18.466 20.0245 18.3704 20.0447 18.2695 20.0447H12.3403C12.0607 20.0447 11.8341 20.2652 11.8341 20.5377C11.8341 20.8102 12.0607 21.0306 12.3403 21.0306H18.2695C18.4525 21.0306 18.6258 20.9963 18.7926 20.9471C18.812 20.9422 18.8316 20.9445 18.8507 20.9372L18.9518 20.8989C18.9649 20.8937 18.9782 20.8895 18.9911 20.884L23.9769 18.9933C24.96 18.6217 26.0731 18.8561 26.816 19.545L17.7173 23.8295Z" fill="#333333" stroke="#333333" stroke-width="0.3"/>
<path d="M17.9999 3C14.6915 3 12 5.91612 12 9.50026C12 13.0844 14.6915 16 17.9999 16C21.3082 16 24 13.0844 24 9.50026C24 5.91612 21.3082 3 17.9999 3ZM17.9999 14.9228C15.2399 14.9228 12.9944 12.49 12.9944 9.50026C12.9944 6.50997 15.2399 4.07724 17.9999 4.07724C20.7601 4.07724 23.0056 6.50997 23.0056 9.50026C23.0056 12.49 20.7601 14.9228 17.9999 14.9228Z" fill="#333333" stroke="#333333" stroke-width="0.3"/>
<path d="M17.9936 7.35768C17.9961 7.35771 17.9981 7.35893 18.0006 7.35893C18.003 7.35893 18.0048 7.35779 18.0072 7.35776C18.5264 7.36131 18.9479 7.73552 18.9479 8.19537C18.9479 8.45252 19.1835 8.66061 19.474 8.66061C19.7645 8.66061 20 8.45252 20 8.19537C20 7.38218 19.3731 6.70272 18.5267 6.49676V6.46524C18.5267 6.20809 18.2911 6 18.0006 6C17.7101 6 17.4746 6.20809 17.4746 6.46524V6.49637C16.6276 6.70187 16 7.38173 16 8.19537C16 9.17083 16.8972 9.96456 17.9999 9.96456C18.5226 9.96456 18.9479 10.3408 18.9479 10.8028C18.9479 11.2649 18.5226 11.6411 17.9999 11.6411C17.4772 11.6411 17.0521 11.2649 17.0521 10.8028C17.0521 10.5457 16.8165 10.3376 16.526 10.3376C16.2355 10.3376 16 10.5457 16 10.8028C16 11.6165 16.6276 12.2963 17.4746 12.5018V12.5348C17.4746 12.7919 17.7101 13 18.0006 13C18.2911 13 18.5267 12.7919 18.5267 12.5348V12.5014C19.3731 12.2955 20 11.616 20 10.8028C20 9.82735 19.1028 9.03408 17.9999 9.03408C17.4772 9.03408 17.0521 8.65788 17.0521 8.19537C17.0521 7.73521 17.4739 7.36075 17.9936 7.35768Z" fill="#333333"/>
</svg>
