<svg width="30" height="30" viewBox="0 0 30 30" fill="none" xmlns="http://www.w3.org/2000/svg">
<path fill-rule="evenodd" clip-rule="evenodd" d="M22.1537 20.9414H23.9307V18.1072H22.1537C21.7743 18.1072 21.4646 18.4158 21.4646 18.794V20.2546C21.4646 20.6328 21.7743 20.9414 22.1537 20.9414ZM22.2658 24.4076C22.6526 24.4076 22.9687 24.0935 22.9687 23.708V22.3151H22.1537C21.0144 22.3151 20.0865 21.3902 20.0865 20.2546V18.794C20.0865 17.6584 21.0144 16.7335 22.1537 16.7335H22.9687V15.0348C22.9687 14.6135 22.6242 14.271 22.2015 14.271H14.864H6.06569V23.6558C6.06569 24.0706 6.4038 24.4076 6.82002 24.4076H22.2658ZM6.82002 11.3928C6.4038 11.3928 6.06569 11.7298 6.06569 12.1455V12.8974H11.5987L12.3567 11.3928H6.82002ZM17.0443 5.62165C16.8652 5.67843 16.7172 5.80663 16.629 5.98246L13.1413 12.8974H13.9701L17.6002 5.70132L17.5469 5.67202C17.3907 5.58777 17.2125 5.57037 17.0443 5.62165ZM18.8121 6.35701L15.5127 12.8974H16.0934L19.2678 6.60335L18.8121 6.35701ZM22.3522 12.912L23.8526 9.93855C24.0391 9.56859 23.9068 9.11254 23.5558 8.92297L20.4788 7.25903L17.6351 12.8974H22.2015C22.2315 12.8974 22.2602 12.9013 22.2886 12.9051C22.3099 12.908 22.331 12.9109 22.3522 12.912ZM24.3469 16.7335H24.5894C24.9698 16.7335 25.3089 17.0714 25.3089 17.4506V21.6283C25.3089 22.0074 25.0001 22.3151 24.6198 22.3151H24.3469V23.708C24.3469 24.8518 23.4134 25.7813 22.2658 25.7813H6.82002C5.64396 25.7813 4.6875 24.8279 4.6875 23.6558V14.271V12.8974V12.1455C4.6875 10.9725 5.64396 10.0191 6.82002 10.0191H13.0503L15.3979 5.36524C15.6551 4.85424 16.0934 4.47969 16.6318 4.31211C17.1573 4.14727 17.716 4.20222 18.2048 4.46504L24.2127 7.716C25.2115 8.25447 25.601 9.52829 25.0838 10.5558L23.6247 13.4468C24.0648 13.8388 24.3469 14.402 24.3469 15.0348V16.7335ZM21.7513 12.1817C21.6475 12.1817 21.5418 12.1588 21.4426 12.1085C21.1026 11.9381 20.9648 11.5251 21.1366 11.1863L21.9948 9.48571C22.1648 9.14779 22.5773 9.0086 22.9191 9.18076C23.26 9.35018 23.3969 9.76319 23.225 10.1029L22.3678 11.8035C22.2465 12.0434 22.004 12.1817 21.7513 12.1817Z" fill="#333333"/>
</svg>
