<svg width="20" height="18" viewBox="0 0 20 18" fill="none" xmlns="http://www.w3.org/2000/svg">
<rect x="-0.320163" y="0.630472" width="11.8774" height="7.58495" rx="2.5" transform="matrix(-0.950636 0.310309 0.310309 0.950636 11.6032 0.948832)" fill="white" stroke="#B4C2CB"/>
<rect x="7.89634" y="1.44883" width="11.8774" height="7.58495" rx="2.5" transform="rotate(18.0778 7.89634 1.44883)" fill="white" stroke="#B4C2CB"/>
<path d="M9.38635 8.74643L9.50269 8.39003C9.51477 8.36114 9.52055 8.33 9.51964 8.2987C9.51873 8.2674 9.51115 8.23666 9.49741 8.20852C9.48366 8.18038 9.46407 8.1555 9.43994 8.13554C9.41582 8.11558 9.38771 8.10099 9.3575 8.09276C9.31965 8.07777 9.27844 8.07335 9.23826 8.07995C9.19809 8.08655 9.16047 8.10394 9.12941 8.13026C9.12112 8.09225 9.1027 8.05719 9.0761 8.0288C9.04951 8.00042 9.01574 7.97975 8.97835 7.969C8.94678 7.95693 8.91257 7.95342 8.8792 7.95882C8.84583 7.96422 8.81449 7.97834 8.78833 7.99975L8.81107 7.93006L8.68979 7.89047L8.50436 8.45853L8.62676 8.49848L8.72954 8.18362C8.76171 8.08506 8.83239 8.04979 8.91474 8.07667C8.99709 8.10355 9.01872 8.16999 8.98758 8.26538L8.8842 8.5821L9.00621 8.62193L9.10899 8.30707C9.11262 8.287 9.12058 8.26798 9.13232 8.25131C9.14406 8.23465 9.15931 8.22075 9.17698 8.21058C9.19465 8.2004 9.21433 8.19421 9.23464 8.19243C9.25495 8.19065 9.2754 8.19332 9.29457 8.20025C9.37692 8.22713 9.39908 8.29374 9.36794 8.38913L9.26455 8.70585L9.38635 8.74643ZM11.379 8.76828L11.1813 8.70376L11.2376 8.53124L11.1159 8.49153L11.0596 8.66404L10.9467 8.62719L10.9099 8.7401L11.0228 8.77695L10.9382 9.03592C10.895 9.16838 10.9195 9.26319 11.0626 9.3099C11.116 9.32756 11.1734 9.32931 11.2277 9.31494L11.2272 9.19787C11.1886 9.20706 11.1483 9.20604 11.1102 9.19493C11.0495 9.1751 11.0415 9.13128 11.0605 9.07334L11.1442 8.81679L11.3419 8.88131L11.379 8.76828ZM12.4163 9.09122C12.3868 9.08076 12.355 9.07853 12.3243 9.08479C12.2936 9.09104 12.2651 9.10552 12.2421 9.1267L12.2647 9.0574L12.1451 9.01835L11.9596 9.58641L12.0804 9.62582L12.1844 9.30724C12.2148 9.21409 12.2722 9.17405 12.3512 9.19984C12.3773 9.20819 12.4015 9.22163 12.4224 9.23937L12.4977 9.13491C12.4733 9.11583 12.4459 9.10102 12.4165 9.0911L12.4163 9.09122ZM10.8365 8.6409C10.7818 8.57724 10.7097 8.53093 10.6291 8.50764C10.4881 8.4616 10.3748 8.50092 10.338 8.61382C10.3076 8.70698 10.3573 8.78506 10.4751 8.84414L10.5298 8.87125C10.5926 8.9029 10.6186 8.93076 10.6082 8.96262C10.5937 9.00696 10.5413 9.01726 10.4586 8.99025C10.3913 8.97036 10.3328 8.92807 10.2928 8.87038L10.2043 8.94808C10.2579 9.0215 10.334 9.07534 10.4211 9.10131C10.5815 9.15367 10.6998 9.10713 10.7355 8.99777C10.7678 8.89865 10.7119 8.82184 10.5966 8.76461L10.542 8.73774C10.4924 8.71351 10.4539 8.68834 10.466 8.65108C10.4797 8.60916 10.5275 8.59734 10.5938 8.61899C10.6545 8.63995 10.7088 8.67627 10.7513 8.72441L10.8365 8.6409ZM14.0976 9.63984C14.0682 9.62939 14.0365 9.6272 14.0059 9.63351C13.9754 9.63982 13.9472 9.65439 13.9243 9.67563L13.9469 9.60632L13.8271 9.56721L13.6416 10.1354L13.7624 10.1749L13.8664 9.85628C13.8968 9.76313 13.9538 9.72297 14.033 9.74882C14.0589 9.75706 14.0829 9.77044 14.1036 9.78817L14.179 9.68371C14.1546 9.66456 14.127 9.64968 14.0976 9.63984ZM12.4416 9.42915C12.4242 9.48649 12.4232 9.54758 12.4387 9.60547C12.4543 9.66336 12.4857 9.71574 12.5295 9.75664C12.5733 9.79755 12.6277 9.82534 12.6865 9.83688C12.7454 9.84841 12.8062 9.84321 12.8622 9.82188L12.8374 9.70285C12.7853 9.72204 12.7283 9.72344 12.6753 9.70683C12.6307 9.68828 12.5946 9.65359 12.5745 9.60967C12.5543 9.56574 12.5514 9.51583 12.5664 9.46987C12.5814 9.42392 12.6132 9.38532 12.6554 9.36176C12.6976 9.3382 12.7471 9.33143 12.7941 9.34279C12.8466 9.36086 12.8917 9.39557 12.9227 9.44165L13.0129 9.36039C12.9727 9.29532 12.9093 9.24796 12.8356 9.22788C12.7966 9.21311 12.755 9.20667 12.7134 9.20897C12.6718 9.21126 12.6311 9.22224 12.594 9.2412C12.5569 9.26016 12.5242 9.28667 12.4979 9.31904C12.4717 9.35141 12.4525 9.38892 12.4416 9.42915ZM13.575 9.79909L13.6676 9.51515L13.5467 9.47569L13.5241 9.545C13.5127 9.51124 13.4932 9.48077 13.4673 9.45624C13.4414 9.4317 13.41 9.41383 13.3757 9.40418C13.2989 9.38629 13.2183 9.39782 13.1497 9.43649C13.0811 9.47516 13.0294 9.53815 13.005 9.61303C12.9805 9.68792 12.9851 9.76925 13.0177 9.84096C13.0503 9.91267 13.1086 9.96955 13.181 10.0004C13.2144 10.0128 13.2503 10.0169 13.2856 10.0125C13.3209 10.008 13.3546 9.9951 13.3838 9.97481L13.3615 10.0432L13.4824 10.0827L13.575 9.79909ZM13.1247 9.6521C13.1379 9.62026 13.1602 9.59298 13.1888 9.57361C13.2173 9.55424 13.2509 9.54362 13.2854 9.54304C13.3198 9.54246 13.3538 9.55194 13.3829 9.57034C13.4121 9.58874 13.4353 9.61525 13.4497 9.64662C13.464 9.67799 13.4689 9.71286 13.4637 9.74697C13.4585 9.78107 13.4435 9.81294 13.4205 9.83865C13.3975 9.86436 13.3675 9.8828 13.3342 9.89172C13.3009 9.90064 13.2657 9.89964 13.2329 9.88885C13.2097 9.88119 13.1883 9.86882 13.1701 9.85252C13.1519 9.83621 13.1373 9.81632 13.1271 9.7941C13.117 9.77187 13.1115 9.74779 13.1111 9.72335C13.1107 9.69892 13.1153 9.67466 13.1247 9.6521ZM11.7615 8.87728C11.6821 8.85258 11.5961 8.86045 11.5225 8.89915C11.4488 8.93785 11.3936 9.0042 11.3689 9.08362C11.3442 9.16305 11.3521 9.24902 11.3908 9.32264C11.4295 9.39626 11.4958 9.45151 11.5753 9.47621C11.6576 9.50604 11.748 9.50419 11.8291 9.47102L11.7995 9.36014C11.7415 9.38251 11.6777 9.3847 11.6183 9.36635C11.5769 9.35628 11.5411 9.33037 11.5185 9.29418C11.4959 9.25799 11.4884 9.2144 11.4976 9.17275L11.9105 9.30752C11.9167 9.29243 11.9231 9.27719 11.9284 9.26098C11.9444 9.22499 11.9527 9.18607 11.9529 9.14668C11.9531 9.10729 11.9451 9.06827 11.9294 9.03214C11.9137 8.99601 11.8907 8.96353 11.8618 8.93676C11.8329 8.90999 11.7987 8.88953 11.7615 8.87666L11.7615 8.87728ZM11.7229 8.98653C11.76 8.9983 11.7909 9.02428 11.8089 9.05878C11.8269 9.09328 11.8305 9.13348 11.8189 9.17062L11.5305 9.07647C11.5443 9.03921 11.5723 9.00889 11.6083 8.99205C11.6443 8.97522 11.6855 8.97324 11.7229 8.98653ZM14.6985 10.1654L14.8659 9.65272L14.745 9.61324L14.6477 9.91133C14.6362 9.87756 14.6167 9.8471 14.5909 9.82256C14.565 9.79802 14.5336 9.78016 14.4992 9.77052C14.4225 9.75263 14.3419 9.76417 14.2733 9.80283C14.2046 9.8415 14.153 9.90449 14.1286 9.97938C14.1041 10.0543 14.1086 10.1356 14.1412 10.2073C14.1738 10.279 14.2321 10.3359 14.3046 10.3667C14.338 10.3791 14.3738 10.3833 14.4091 10.3789C14.4445 10.3744 14.4782 10.3615 14.5074 10.3411L14.485 10.4095L14.606 10.449L14.6985 10.1654ZM14.248 10.0184C14.2613 9.98645 14.2835 9.95908 14.3121 9.9396C14.3406 9.92011 14.3742 9.90937 14.4087 9.90869C14.4433 9.90801 14.4773 9.91742 14.5066 9.93576C14.5359 9.9541 14.5592 9.98059 14.5737 10.012C14.5881 10.0433 14.5931 10.0783 14.5881 10.1124C14.583 10.1466 14.5681 10.1786 14.5452 10.2044C14.5222 10.2303 14.4922 10.2489 14.4589 10.2579C14.4256 10.267 14.3903 10.2662 14.3574 10.2555C14.3341 10.248 14.3125 10.2357 14.2942 10.2194C14.2758 10.2031 14.261 10.1832 14.2508 10.1609C14.2405 10.1386 14.2349 10.1145 14.2345 10.0899C14.234 10.0654 14.2386 10.041 14.248 10.0184ZM10.1614 8.68439L10.254 8.40046L10.1333 8.36105L10.1107 8.43036C10.0992 8.39659 10.0797 8.36611 10.0538 8.34157C10.0279 8.31702 9.99639 8.29914 9.96204 8.28948C9.88533 8.2716 9.8047 8.28313 9.73608 8.3218C9.66745 8.36046 9.61582 8.42346 9.59137 8.49834C9.56693 8.57322 9.57145 8.65455 9.60405 8.72626C9.63665 8.79797 9.69494 8.85485 9.76744 8.88567C9.80081 8.89808 9.83671 8.90225 9.87204 8.89781C9.90737 8.89337 9.94112 8.88046 9.97039 8.86018L9.94807 8.92855L10.0688 8.96796L10.1614 8.68439ZM9.71123 8.53746C9.72449 8.50566 9.74673 8.47842 9.77522 8.45906C9.80372 8.43969 9.83725 8.42904 9.8717 8.42841C9.90615 8.42779 9.94002 8.4372 9.9692 8.45551C9.99839 8.47383 10.0216 8.50025 10.036 8.53154C10.0504 8.56283 10.0554 8.59765 10.0504 8.63173C10.0453 8.66581 10.0305 8.69769 10.0076 8.72347C9.98473 8.74924 9.95485 8.76779 9.92161 8.77686C9.88837 8.78593 9.85321 8.78512 9.82042 8.77453C9.7971 8.76697 9.77559 8.75465 9.75726 8.73836C9.73893 8.72208 9.72416 8.70218 9.71391 8.67991C9.70365 8.65764 9.69811 8.63348 9.69765 8.60897C9.69719 8.58445 9.70182 8.5601 9.71123 8.53746Z" fill="#231F20"/>
<path d="M14.0432 4.94079L12.1782 4.33203L11.0798 7.69695L12.9448 8.30572L14.0432 4.94079Z" fill="#EB6A07"/>
<path d="M11.803 6.07175C11.9083 5.74781 12.0857 5.45197 12.3219 5.20654C12.5581 4.96111 12.847 4.77247 13.1666 4.65484C12.9319 4.3035 12.6031 4.02529 12.2177 3.85201C11.8324 3.67874 11.406 3.61739 10.9874 3.67498C10.5689 3.73256 10.1749 3.90676 9.85068 4.17767C9.52643 4.44857 9.28495 4.80524 9.15383 5.2069C9.02272 5.60857 9.00727 6.03903 9.10924 6.44907C9.21122 6.8591 9.42651 7.23216 9.7305 7.52561C10.0345 7.81906 10.4149 8.02107 10.8283 8.10851C11.2417 8.19596 11.6713 8.16534 12.0681 8.02014C11.8794 7.73658 11.7575 7.41391 11.7116 7.07642C11.6657 6.73893 11.6969 6.39542 11.803 6.07175Z" fill="#F32735"/>
<path d="M15.9548 7.42731C15.826 7.8288 15.5865 8.1858 15.2639 8.45724C14.9412 8.72869 14.5485 8.90357 14.1309 8.96174C13.7133 9.01992 13.2878 8.95906 12.9032 8.78613C12.5187 8.6132 12.1907 8.33525 11.9571 7.98423C12.2765 7.86612 12.565 7.6773 12.8011 7.43192C13.0371 7.18654 13.2146 6.89094 13.3203 6.56725C13.426 6.24356 13.457 5.90017 13.4112 5.56277C13.3654 5.22537 13.2438 4.9027 13.0556 4.61892C13.4514 4.47332 13.8802 4.44238 14.2927 4.52964C14.7052 4.61691 15.0847 4.81884 15.3876 5.11222C15.6905 5.4056 15.9043 5.77851 16.0047 6.18806C16.105 6.5976 16.0877 7.02716 15.9548 7.42731Z" fill="#FF9F00"/>
<rect x="2.31787" y="7.31836" width="14.9658" height="9.64385" rx="2.5" fill="white" stroke="#B4C2CB"/>
<path d="M8.71065 13.9887H7.76807L8.35754 10.4287H9.30187L8.71065 13.9887Z" fill="url(#paint0_linear_3011_18559)"/>
<path d="M6.86572 10.4284L5.96647 12.8761L5.85956 12.3498L5.5417 10.7486C5.52264 10.6493 5.46577 10.5608 5.38268 10.5012C5.29958 10.4416 5.19649 10.4154 5.09439 10.4278H3.60913L3.5918 10.4886C3.93978 10.5737 4.27233 10.711 4.57773 10.8957L5.3978 13.9872H6.38026L7.88286 10.4273L6.86572 10.4284Z" fill="url(#paint1_linear_3011_18559)"/>
<path d="M14.5514 13.9888H15.4183L14.6635 10.4289H13.9058C13.8144 10.4223 13.7232 10.4445 13.6454 10.4921C13.5676 10.5398 13.5073 10.6105 13.473 10.694L12.0669 13.9871H13.0494L13.243 13.458H14.4427L14.5514 13.9888ZM13.5111 12.7295L14.0076 11.3981L14.2861 12.7295H13.5111Z" fill="url(#paint2_linear_3011_18559)"/>
<path d="M12.0277 11.2854L12.1618 10.5212C11.8896 10.4261 11.6039 10.3738 11.3151 10.3662C10.8476 10.3662 9.73564 10.5661 9.73564 11.5432C9.73564 12.4636 11.0348 12.475 11.0348 12.9627C11.0348 13.4504 9.86394 13.3601 9.47846 13.0547L9.33398 13.853C9.67055 13.992 10.0329 14.0606 10.3979 14.0545C11.0417 14.0545 12.0161 13.7269 12.0161 12.8361C12.0161 11.9111 10.6996 11.8248 10.6996 11.4166C10.6996 11.0084 11.6237 11.0669 12.0277 11.2854Z" fill="url(#paint3_linear_3011_18559)"/>
<defs>
<linearGradient id="paint0_linear_3011_18559" x1="9.20397" y1="13.922" x2="7.07773" y2="13.922" gradientUnits="userSpaceOnUse">
<stop stop-color="#1E2E96"/>
<stop offset="1" stop-color="#232560"/>
</linearGradient>
<linearGradient id="paint1_linear_3011_18559" x1="7.60898" y1="13.9205" x2="1.66046" y2="13.9205" gradientUnits="userSpaceOnUse">
<stop stop-color="#1E2E96"/>
<stop offset="1" stop-color="#232560"/>
</linearGradient>
<linearGradient id="paint2_linear_3011_18559" x1="15.2044" y1="13.9222" x2="10.5585" y2="13.9222" gradientUnits="userSpaceOnUse">
<stop stop-color="#1E2E96"/>
<stop offset="1" stop-color="#232560"/>
</linearGradient>
<linearGradient id="paint3_linear_3011_18559" x1="11.9813" y1="13.9858" x2="8.06125" y2="13.9858" gradientUnits="userSpaceOnUse">
<stop stop-color="#1E2E96"/>
<stop offset="1" stop-color="#232560"/>
</linearGradient>
</defs>
</svg>
