<svg width="25" height="24" viewBox="0 0 25 24" fill="none" xmlns="http://www.w3.org/2000/svg">
<path d="M4.55709 6.41384L1.31409 3.17184L2.72909 1.75684L5.97109 4.99984H21.2131C21.369 4.99983 21.5227 5.03625 21.662 5.1062C21.8012 5.17616 21.9223 5.2777 22.0153 5.40273C22.1084 5.52776 22.1709 5.67282 22.198 5.82632C22.225 5.97983 22.2158 6.13753 22.1711 6.28684L19.7711 14.2868C19.7093 14.4929 19.5828 14.6736 19.4102 14.802C19.2376 14.9305 19.0282 14.9999 18.8131 14.9998H6.55709V16.9998H17.5571V18.9998H5.55709C5.29187 18.9998 5.03752 18.8945 4.84998 18.7069C4.66244 18.5194 4.55709 18.2651 4.55709 17.9998V6.41384ZM6.55709 6.99984V12.9998H18.0691L19.8691 6.99984H6.55709ZM6.05709 22.9998C5.65926 22.9998 5.27773 22.8418 4.99643 22.5605C4.71512 22.2792 4.55709 21.8977 4.55709 21.4998C4.55709 21.102 4.71512 20.7205 4.99643 20.4392C5.27773 20.1579 5.65926 19.9998 6.05709 19.9998C6.45491 19.9998 6.83644 20.1579 7.11775 20.4392C7.39905 20.7205 7.55709 21.102 7.55709 21.4998C7.55709 21.8977 7.39905 22.2792 7.11775 22.5605C6.83644 22.8418 6.45491 22.9998 6.05709 22.9998ZM18.0571 22.9998C17.6593 22.9998 17.2777 22.8418 16.9964 22.5605C16.7151 22.2792 16.5571 21.8977 16.5571 21.4998C16.5571 21.102 16.7151 20.7205 16.9964 20.4392C17.2777 20.1579 17.6593 19.9998 18.0571 19.9998C18.4549 19.9998 18.8364 20.1579 19.1177 20.4392C19.3991 20.7205 19.5571 21.102 19.5571 21.4998C19.5571 21.8977 19.3991 22.2792 19.1177 22.5605C18.8364 22.8418 18.4549 22.9998 18.0571 22.9998Z" fill="white"/>
</svg>
