<svg width="27" height="28" viewBox="0 0 27 28" fill="none" xmlns="http://www.w3.org/2000/svg">
<path d="M2.16668 27.3334C1.81305 27.3334 1.47392 27.1929 1.22387 26.9429C0.97382 26.6928 0.833344 26.3537 0.833344 26.0001V2.00008C0.833344 1.64646 0.97382 1.30732 1.22387 1.05727C1.47392 0.807224 1.81305 0.666748 2.16668 0.666748H20.8333C21.187 0.666748 21.5261 0.807224 21.7762 1.05727C22.0262 1.30732 22.1667 1.64646 22.1667 2.00008V6.00008H19.5V3.33341H3.50001V24.6667H19.5V22.0001H22.1667V26.0001C22.1667 26.3537 22.0262 26.6928 21.7762 26.9429C21.5261 27.1929 21.187 27.3334 20.8333 27.3334H2.16668ZM19.5 19.3334V15.3334H10.1667V12.6667H19.5V8.66675L26.1667 14.0001L19.5 19.3334Z" fill="#485760"/>
</svg>
