<svg width="27" height="25" viewBox="0 0 27 25" fill="none" xmlns="http://www.w3.org/2000/svg">
<path d="M13.5013 2.03864C16.6333 -0.77336 21.4733 -0.680027 24.4907 2.34264C27.5067 5.36664 27.6107 10.1826 24.8053 13.324L13.4987 24.6466L2.19466 13.324C-0.610669 10.1826 -0.505335 5.35864 2.50933 2.34264C5.52933 -0.676027 10.36 -0.77736 13.5013 2.03864ZM22.6027 4.22664C20.6027 2.22397 17.376 2.14264 15.2827 4.02264L13.5027 5.61997L11.7213 4.02397C9.62133 2.14131 6.40133 2.22397 4.396 4.22931C2.40933 6.21597 2.30933 9.39597 4.14 11.4973L13.5 20.872L22.86 11.4986C24.692 9.39597 24.592 6.21997 22.6027 4.22664Z" fill="#485760"/>
</svg>
