<svg width="27" height="28" viewBox="0 0 27 28" fill="none" xmlns="http://www.w3.org/2000/svg">
<path d="M13.5 27.3334C6.13599 27.3334 0.166656 21.3641 0.166656 14.0001C0.166656 6.63608 6.13599 0.666748 13.5 0.666748C20.864 0.666748 26.8333 6.63608 26.8333 14.0001C26.8333 21.3641 20.864 27.3334 13.5 27.3334ZM13.5 24.6667C16.329 24.6667 19.0421 23.5429 21.0425 21.5426C23.0429 19.5422 24.1667 16.8291 24.1667 14.0001C24.1667 11.1711 23.0429 8.458 21.0425 6.45761C19.0421 4.45722 16.329 3.33341 13.5 3.33341C10.671 3.33341 7.95791 4.45722 5.95752 6.45761C3.95713 8.458 2.83332 11.1711 2.83332 14.0001C2.83332 16.8291 3.95713 19.5422 5.95752 21.5426C7.95791 23.5429 10.671 24.6667 13.5 24.6667ZM12.1667 18.0001H14.8333V20.6667H12.1667V18.0001ZM14.8333 15.8067V16.6667H12.1667V14.6667C12.1667 14.3131 12.3071 13.974 12.5572 13.7239C12.8072 13.4739 13.1464 13.3334 13.5 13.3334C13.8788 13.3334 14.2497 13.2258 14.5698 13.0232C14.8898 12.8206 15.1457 12.5312 15.3077 12.1889C15.4697 11.8465 15.5311 11.4651 15.4849 11.0892C15.4387 10.7133 15.2866 10.3582 15.0464 10.0653C14.8063 9.7724 14.4879 9.55372 14.1283 9.43471C13.7687 9.31569 13.3827 9.30124 13.0152 9.39302C12.6477 9.48481 12.3139 9.67906 12.0525 9.95317C11.7911 10.2273 11.6129 10.57 11.5387 10.9414L8.92266 10.4174C9.08483 9.60686 9.45934 8.85391 10.0079 8.23553C10.5564 7.61715 11.2593 7.15552 12.0448 6.89784C12.8302 6.64016 13.67 6.59566 14.4782 6.7689C15.2865 6.94214 16.0343 7.3269 16.6451 7.88385C17.2559 8.4408 17.7079 9.14996 17.9548 9.93883C18.2017 10.7277 18.2347 11.568 18.0505 12.3738C17.8662 13.1796 17.4713 13.9221 16.906 14.5252C16.3408 15.1284 15.6255 15.5706 14.8333 15.8067Z" fill="#485760"/>
</svg>
