<svg width="27" height="28" viewBox="0 0 27 28" fill="none" xmlns="http://www.w3.org/2000/svg">
<path d="M13.4998 27.3332C6.13584 27.3332 0.166504 21.3638 0.166504 13.9998C0.166504 6.63584 6.13584 0.666504 13.4998 0.666504C20.8638 0.666504 26.8332 6.63584 26.8332 13.9998C26.8332 21.3638 20.8638 27.3332 13.4998 27.3332ZM13.4998 24.6665C16.3288 24.6665 19.0419 23.5427 21.0423 21.5423C23.0427 19.5419 24.1665 16.8288 24.1665 13.9998C24.1665 11.1709 23.0427 8.45775 21.0423 6.45737C19.0419 4.45698 16.3288 3.33317 13.4998 3.33317C10.6709 3.33317 7.95775 4.45698 5.95737 6.45737C3.95698 8.45775 2.83317 11.1709 2.83317 13.9998C2.83317 16.8288 3.95698 19.5419 5.95737 21.5423C7.95775 23.5427 10.6709 24.6665 13.4998 24.6665ZM12.1665 17.9998H14.8332V20.6665H12.1665V17.9998ZM14.8332 15.8065V16.6665H12.1665V14.6665C12.1665 14.3129 12.307 13.9737 12.557 13.7237C12.8071 13.4736 13.1462 13.3332 13.4998 13.3332C13.8786 13.3331 14.2496 13.2256 14.5696 13.0229C14.8896 12.8203 15.1455 12.531 15.3075 12.1886C15.4695 11.8462 15.531 11.4649 15.4847 11.089C15.4385 10.713 15.2864 10.358 15.0463 10.0651C14.8061 9.77215 14.4877 9.55348 14.1281 9.43446C13.7685 9.31545 13.3826 9.30099 13.0151 9.39278C12.6476 9.48456 12.3137 9.67881 12.0523 9.95293C11.7909 10.227 11.6127 10.5697 11.5385 10.9412L8.9225 10.4172C9.08468 9.60662 9.45918 8.85367 10.0077 8.23529C10.5563 7.61691 11.2592 7.15528 12.0446 6.8976C12.8301 6.63991 13.6698 6.59542 14.4781 6.76866C15.2863 6.9419 16.0341 7.32666 16.6449 7.8836C17.2558 8.44055 17.7077 9.14971 17.9547 9.93859C18.2016 10.7275 18.2346 11.5678 18.0503 12.3736C17.8661 13.1794 17.4711 13.9218 16.9059 14.525C16.3406 15.1281 15.6253 15.5704 14.8332 15.8065Z" fill="#485760"/>
</svg>
