<svg width="25" height="24" viewBox="0 0 25 24" fill="none" xmlns="http://www.w3.org/2000/svg">
<path d="M10.7211 11.8549L17.7471 5L19.6243 6.83142L18.3729 8.05237L20.25 9.88379L17.1214 12.9362L15.2443 11.1048L12.5982 13.6863C13.4689 15.3137 13.2038 17.3689 11.8029 18.7357C10.0751 20.4214 7.27372 20.4214 5.54589 18.7357C3.81804 17.0499 3.81804 14.3167 5.54589 12.6309C6.94673 11.2642 9.05322 11.0055 10.7211 11.8549ZM9.92582 16.9043C10.617 16.2299 10.617 15.1367 9.92582 14.4623C9.23469 13.788 8.11414 13.788 7.423 14.4623C6.73187 15.1367 6.73187 16.2299 7.423 16.9043C8.11414 17.5785 9.23469 17.5785 9.92582 16.9043Z" fill="#363F45"/>
</svg>
