<svg width="81" height="80" viewBox="0 0 81 80" fill="none" xmlns="http://www.w3.org/2000/svg">
<path d="M61.1662 56.362L75.4428 70.6353L70.7262 75.352L56.4528 61.0753C51.142 65.3327 44.5362 67.6484 37.7295 67.6387C21.1695 67.6387 7.72949 54.1987 7.72949 37.6387C7.72949 21.0787 21.1695 7.63867 37.7295 7.63867C54.2895 7.63867 67.7295 21.0787 67.7295 37.6387C67.7392 44.4453 65.4236 51.0511 61.1662 56.362ZM54.4795 53.8887C58.7099 49.5383 61.0724 43.7068 61.0628 37.6387C61.0628 24.7453 50.6195 14.3053 37.7295 14.3053C24.8362 14.3053 14.3962 24.7453 14.3962 37.6387C14.3962 50.5287 24.8362 60.972 37.7295 60.972C43.7976 60.9816 49.6291 58.6191 53.9795 54.3887L54.4795 53.8887Z" fill="#485760"/>
<rect x="27.2363" y="28.1904" width="4.57143" height="4.57143" fill="#485760"/>
<rect x="43.998" y="28.1904" width="4.57143" height="4.57143" fill="#485760"/>
<path d="M37.7928 41.1426C40.2184 41.1426 42.4883 41.495 44.6027 42.1997C46.717 42.9137 48.5705 43.9388 50.1631 45.2751L50.1631 48.7075C48.3966 47.4169 46.4561 46.4422 44.3418 45.7831C42.2275 45.1241 40.0536 44.7946 37.8203 44.7946C35.5778 44.7946 33.4086 45.1287 31.3125 45.7969C29.2256 46.4742 27.3356 47.4353 25.6423 48.6801L25.6423 45.2751C27.1983 43.9297 29.0151 42.9045 31.0929 42.1997C33.1706 41.495 35.4039 41.1426 37.7928 41.1426Z" fill="#485760"/>
</svg>
