<svg width="27" height="28" viewBox="0 0 27 28" fill="none" xmlns="http://www.w3.org/2000/svg">
<path d="M10.8537 0.860676C8.99287 0.25829 6.96997 1.0962 6.08008 2.83799L5.01026 4.93198C4.88314 5.18079 4.68079 5.38314 4.43198 5.51026L2.33799 6.58008C0.596195 7.46997 -0.241709 9.49287 0.360676 11.3537L1.08488 13.5909C1.17091 13.8567 1.17091 14.1429 1.08488 14.4087L0.360676 16.6459C-0.241709 18.5068 0.596195 20.5296 2.33799 21.4196L4.43198 22.4893C4.68079 22.6165 4.88314 22.8188 5.01026 23.0676L6.08008 25.1617C6.96997 26.9035 8.99287 27.7414 10.8537 27.139L13.0909 26.4148C13.3567 26.3287 13.6429 26.3287 13.9087 26.4148L16.1459 27.139C18.0068 27.7414 20.0296 26.9035 20.9196 25.1617L21.9893 23.0676C22.1165 22.8188 22.3188 22.6165 22.5676 22.4893L24.6617 21.4196C26.4035 20.5296 27.2414 18.5068 26.639 16.6459L25.9147 14.4087C25.8287 14.1429 25.8287 13.8567 25.9147 13.5909L26.639 11.3537C27.2414 9.49287 26.4035 7.46997 24.6617 6.58008L22.5676 5.51026C22.3188 5.38314 22.1165 5.18079 21.9893 4.93198L20.9196 2.83799C20.0296 1.0962 18.0068 0.25829 16.1459 0.860676L13.9087 1.58488C13.6429 1.67091 13.3567 1.67093 13.0909 1.58488L10.8537 0.860676ZM8.44472 4.04609C8.74136 3.4655 9.41566 3.18619 10.0359 3.38699L12.2731 4.11118C13.0706 4.36932 13.929 4.36932 14.7264 4.11118L16.9637 3.38699C17.5839 3.18619 18.2582 3.4655 18.5548 4.04608L19.6247 6.14009C20.006 6.88649 20.6132 7.49356 21.3596 7.8749L23.4535 8.94472C24.0341 9.24136 24.3134 9.91566 24.1127 10.5359L23.3884 12.7731C23.1303 13.5706 23.1303 14.429 23.3884 15.2264L24.1127 17.4637C24.3134 18.0839 24.0341 18.7582 23.4535 19.0548L21.3596 20.1247C20.6132 20.506 20.006 21.1132 19.6247 21.8596L18.5548 23.9535C18.2582 24.5341 17.5839 24.8134 16.9637 24.6127L14.7264 23.8884C13.929 23.6303 13.0706 23.6303 12.2731 23.8884L10.0359 24.6127C9.41566 24.8134 8.74136 24.5341 8.44472 23.9535L7.3749 21.8596C6.99356 21.1132 6.38649 20.506 5.64009 20.1247L3.54609 19.0548C2.9655 18.7582 2.68619 18.0839 2.88699 17.4637L3.61118 15.2264C3.86932 14.429 3.86932 13.5706 3.61118 12.7731L2.88699 10.5359C2.68619 9.91566 2.9655 9.24136 3.54609 8.94472L5.64009 7.8749C6.38649 7.49356 6.99356 6.88649 7.3749 6.14009L8.44472 4.04609Z" fill="#485760"/>
<path d="M9.36921 16.2126H15.8601C16.186 16.2126 16.4502 15.965 16.4502 15.6594C16.4502 15.3539 16.186 15.1062 15.8601 15.1062H11.1395C9.50999 15.1062 8.18904 13.8678 8.18904 12.3402C8.18904 10.8126 9.50999 9.57417 11.1395 9.57417H12.3196V7.36135H14.68V9.57417H17.6304V11.787H11.1395C10.8136 11.787 10.5494 12.0347 10.5494 12.3402C10.5494 12.6458 10.8136 12.8934 11.1395 12.8934H15.8601C17.4896 12.8934 18.8106 14.1318 18.8106 15.6594C18.8106 17.187 17.4896 18.4254 15.8601 18.4254H14.68V20.6382H12.3196V18.4254H9.36921V16.2126Z" fill="#485760"/>
</svg>
