<svg width="20" height="20" viewBox="0 0 20 20" fill="none" xmlns="http://www.w3.org/2000/svg">
<path d="M8.0154 0.145629C6.61978 -0.30616 5.1026 0.322268 4.43518 1.62862L3.63281 3.19911C3.53748 3.38572 3.38572 3.53748 3.19911 3.63281L1.62862 4.43518C0.322268 5.1026 -0.30616 6.61978 0.145629 8.0154L0.68878 9.69327C0.753306 9.89262 0.753306 10.1073 0.68878 10.3067L0.145629 11.9845C-0.30616 13.3802 0.322268 14.8973 1.62862 15.5648L3.19911 16.3671C3.38572 16.4625 3.53748 16.6143 3.63281 16.8009L4.43518 18.3714C5.1026 19.6777 6.61978 20.3062 8.0154 19.8544L9.69327 19.3112C9.89262 19.2467 10.1073 19.2467 10.3067 19.3112L11.9845 19.8544C13.3802 20.3062 14.8973 19.6777 15.5648 18.3714L16.3671 16.8009C16.4625 16.6143 16.6143 16.4625 16.8009 16.3671L18.3714 15.5648C19.6777 14.8973 20.3062 13.3802 19.8544 11.9845L19.3112 10.3067C19.2467 10.1073 19.2467 9.89262 19.3112 9.69327L19.8544 8.0154C20.3062 6.61978 19.6777 5.1026 18.3714 4.43518L16.8009 3.63281C16.6143 3.53748 16.4625 3.38572 16.3671 3.19911L15.5648 1.62862C14.8973 0.322268 13.3802 -0.30616 11.9845 0.145629L10.3067 0.68878C10.1073 0.753306 9.89262 0.753316 9.69327 0.68878L8.0154 0.145629ZM6.20866 2.53469C6.43114 2.09924 6.93687 1.88976 7.40208 2.04036L9.07998 2.58351C9.67804 2.77711 10.3219 2.77711 10.92 2.58351L12.5979 2.04036C13.063 1.88976 13.5688 2.09924 13.7913 2.53468L14.5936 4.10519C14.8796 4.66499 15.335 5.12029 15.8948 5.4063L17.4652 6.20866C17.9007 6.43114 18.1102 6.93687 17.9596 7.40208L17.4164 9.07998C17.2229 9.67804 17.2229 10.3219 17.4164 10.92L17.9596 12.5979C18.1102 13.063 17.9007 13.5688 17.4652 13.7913L15.8948 14.5936C15.335 14.8796 14.8796 15.335 14.5936 15.8948L13.7913 17.4652C13.5688 17.9007 13.063 18.1102 12.5979 17.9596L10.92 17.4164C10.3219 17.2229 9.67804 17.2229 9.07998 17.4164L7.40208 17.9596C6.93687 18.1102 6.43114 17.9007 6.20866 17.4652L5.4063 15.8948C5.12029 15.335 4.66499 14.8796 4.10519 14.5936L2.53469 13.7913C2.09924 13.5688 1.88976 13.063 2.04036 12.5979L2.58351 10.92C2.77711 10.3219 2.77711 9.67804 2.58351 9.07998L2.04036 7.40208C1.88976 6.93687 2.09924 6.43114 2.53469 6.20866L4.10519 5.4063C4.66499 5.12029 5.12029 4.66499 5.4063 4.10519L6.20866 2.53469Z" fill="white"/>
<path d="M6.90203 11.6596H11.7702C12.0146 11.6596 12.2128 11.4739 12.2128 11.2447C12.2128 11.0156 12.0146 10.8298 11.7702 10.8298H8.22973C7.00761 10.8298 6.0169 9.90096 6.0169 8.75524C6.0169 7.60955 7.00761 6.68075 8.22973 6.68075H9.11485V5.02113H10.8851V6.68075H13.0979V8.34034H8.22973C7.98529 8.34034 7.78715 8.52613 7.78715 8.75524C7.78715 8.98444 7.98529 9.17015 8.22973 9.17015H11.7702C12.9923 9.17015 13.983 10.099 13.983 11.2447C13.983 12.3904 12.9923 13.3192 11.7702 13.3192H10.8851V14.9788H9.11485V13.3192H6.90203V11.6596Z" fill="white"/>
</svg>
