<svg width="18" height="18" viewBox="0 0 18 18" fill="none" xmlns="http://www.w3.org/2000/svg">
<path d="M13.6497 12.6814L16.862 15.8929L15.8007 16.9541L12.5892 13.7419C11.3943 14.6998 9.90796 15.2208 8.37646 15.2186C4.65046 15.2186 1.62646 12.1946 1.62646 8.46863C1.62646 4.74263 4.65046 1.71863 8.37646 1.71863C12.1025 1.71863 15.1265 4.74263 15.1265 8.46863C15.1286 10.0001 14.6076 11.4864 13.6497 12.6814ZM12.1452 12.1249C13.097 11.146 13.6286 9.83395 13.6265 8.46863C13.6265 5.56763 11.2767 3.21863 8.37646 3.21863C5.47546 3.21863 3.12646 5.56763 3.12646 8.46863C3.12646 11.3689 5.47546 13.7186 8.37646 13.7186C9.74179 13.7208 11.0539 13.1892 12.0327 12.2374L12.1452 12.1249Z" fill="#485760"/>
</svg>
