<svg width="31" height="22" viewBox="0 0 31 22" fill="none" xmlns="http://www.w3.org/2000/svg">
<path d="M11.4533 18.0001C11.2948 19.1125 10.7403 20.1303 9.89158 20.8667C9.04287 21.603 7.95697 22.0084 6.83334 22.0084C5.70972 22.0084 4.62382 21.603 3.7751 20.8667C2.92639 20.1303 2.37185 19.1125 2.21334 18.0001H0.833344V2.00008C0.833344 1.64646 0.973819 1.30732 1.22387 1.05727C1.47392 0.807224 1.81305 0.666748 2.16668 0.666748H20.8333C21.187 0.666748 21.5261 0.807224 21.7762 1.05727C22.0262 1.30732 22.1667 1.64646 22.1667 2.00008V4.66675H26.1667L30.1667 10.0747V18.0001H27.4533C27.2948 19.1125 26.7403 20.1303 25.8916 20.8667C25.0429 21.603 23.957 22.0084 22.8333 22.0084C21.7097 22.0084 20.6238 21.603 19.7751 20.8667C18.9264 20.1303 18.3718 19.1125 18.2133 18.0001H11.4533ZM19.5 3.33341H3.50001V14.0667C4.02609 13.5297 4.67415 13.1277 5.38901 12.8949C6.10388 12.6622 6.8644 12.6056 7.60585 12.7299C8.34729 12.8543 9.04771 13.156 9.64749 13.6093C10.2473 14.0626 10.7287 14.6541 11.0507 15.3334H18.616C18.84 14.8627 19.14 14.4347 19.5 14.0667V3.33341ZM22.1667 11.3334H27.5V10.9534L24.8227 7.33342H22.1667V11.3334ZM22.8333 19.3334C23.364 19.3334 23.8728 19.1226 24.248 18.7474C24.6232 18.3722 24.834 17.8634 24.834 17.3327C24.834 16.8021 24.6232 16.2933 24.248 15.9181C23.8728 15.5429 23.364 15.3321 22.8333 15.3321C22.3027 15.3321 21.7939 15.5429 21.4187 15.9181C21.0435 16.2933 20.8327 16.8021 20.8327 17.3327C20.8327 17.8634 21.0435 18.3722 21.4187 18.7474C21.7939 19.1226 22.3027 19.3334 22.8333 19.3334ZM8.83334 17.3334C8.83334 17.0708 8.78161 16.8107 8.6811 16.568C8.58059 16.3254 8.43327 16.1049 8.24756 15.9192C8.06184 15.7335 7.84136 15.5862 7.59871 15.4857C7.35606 15.3851 7.09599 15.3334 6.83334 15.3334C6.5707 15.3334 6.31063 15.3851 6.06798 15.4857C5.82533 15.5862 5.60485 15.7335 5.41913 15.9192C5.23341 16.1049 5.08609 16.3254 4.98558 16.568C4.88507 16.8107 4.83334 17.0708 4.83334 17.3334C4.83334 17.8638 5.04406 18.3726 5.41913 18.7476C5.7942 19.1227 6.30291 19.3334 6.83334 19.3334C7.36378 19.3334 7.87248 19.1227 8.24756 18.7476C8.62263 18.3726 8.83334 17.8638 8.83334 17.3334Z" fill="#485760"/>
</svg>
