<svg width="24" height="24" viewBox="0 0 24 24" fill="none" xmlns="http://www.w3.org/2000/svg">
<path d="M11.7822 22.3262C6.25923 22.3262 1.78223 17.8492 1.78223 12.3262C1.78223 6.80317 6.25923 2.32617 11.7822 2.32617C17.3052 2.32617 21.7822 6.80317 21.7822 12.3262C21.7822 17.8492 17.3052 22.3262 11.7822 22.3262ZM6.79523 18.5822C8.21077 19.7139 9.9699 20.3291 11.7822 20.3262C13.7522 20.3262 15.5552 19.6142 16.9492 18.4342C16.298 17.7659 15.5193 17.2351 14.6593 16.873C13.7992 16.5109 12.8754 16.325 11.9422 16.3262C10.9748 16.3251 10.0177 16.525 9.13169 16.9134C8.24565 17.3017 7.45001 17.87 6.79523 18.5822ZM5.39823 17.1462C6.23868 16.2542 7.2529 15.5439 8.37837 15.0589C9.50383 14.5739 10.7167 14.3245 11.9422 14.3262C13.1239 14.3246 14.2942 14.5565 15.386 15.0086C16.4778 15.4606 17.4695 16.1238 18.3042 16.9602C19.1603 15.7553 19.6659 14.3368 19.7648 12.8621C19.8637 11.3874 19.5522 9.91406 18.8647 8.60563C18.1772 7.2972 17.1407 6.20479 15.8702 5.44962C14.5996 4.69444 13.1447 4.30601 11.6668 4.32742C10.1889 4.34884 8.74589 4.77926 7.49775 5.57093C6.24961 6.3626 5.24519 7.48457 4.59592 8.81237C3.94665 10.1402 3.67792 11.6219 3.81954 13.0931C3.96116 14.5644 4.5076 15.9676 5.39823 17.1472V17.1462ZM11.7822 13.3262C10.7214 13.3262 9.70394 12.9047 8.9538 12.1546C8.20365 11.4045 7.78223 10.387 7.78223 9.32617C7.78223 8.26531 8.20365 7.24789 8.9538 6.49774C9.70394 5.7476 10.7214 5.32617 11.7822 5.32617C12.8431 5.32617 13.8605 5.7476 14.6107 6.49774C15.3608 7.24789 15.7822 8.26531 15.7822 9.32617C15.7822 10.387 15.3608 11.4045 14.6107 12.1546C13.8605 12.9047 12.8431 13.3262 11.7822 13.3262ZM11.7822 11.3262C12.3127 11.3262 12.8214 11.1155 13.1964 10.7404C13.5715 10.3653 13.7822 9.85661 13.7822 9.32617C13.7822 8.79574 13.5715 8.28703 13.1964 7.91196C12.8214 7.53689 12.3127 7.32617 11.7822 7.32617C11.2518 7.32617 10.7431 7.53689 10.368 7.91196C9.99294 8.28703 9.78223 8.79574 9.78223 9.32617C9.78223 9.85661 9.99294 10.3653 10.368 10.7404C10.7431 11.1155 11.2518 11.3262 11.7822 11.3262Z" fill="white"/>
</svg>
