<svg width="28" height="27" viewBox="0 0 28 27" fill="none" xmlns="http://www.w3.org/2000/svg">
<path d="M14.2098 26.7687C6.8458 26.7687 0.876465 20.7994 0.876465 13.4354C0.876465 6.07138 6.8458 0.102051 14.2098 0.102051C21.5738 0.102051 27.5431 6.07138 27.5431 13.4354C27.5431 20.7994 21.5738 26.7687 14.2098 26.7687ZM7.56046 21.7767C9.44786 23.2856 11.7934 24.1059 14.2098 24.102C16.8365 24.102 19.2405 23.1527 21.0991 21.5794C20.2308 20.6884 19.1925 19.9806 18.0458 19.4978C16.8992 19.015 15.6673 18.7671 14.4231 18.7687C13.1332 18.7672 11.8571 19.0339 10.6758 19.5517C9.49437 20.0695 8.43351 20.8272 7.56046 21.7767ZM5.6978 19.862C6.8184 18.6728 8.17069 17.7257 9.67132 17.079C11.1719 16.4323 12.7891 16.0999 14.4231 16.102C15.9987 16.1 17.5591 16.4092 19.0148 17.0119C20.4705 17.6146 21.7928 18.4989 22.9058 19.614C24.0472 18.0075 24.7213 16.1162 24.8532 14.1499C24.9851 12.1836 24.5697 10.2192 23.6531 8.47466C22.7365 6.73008 21.3545 5.27355 19.6604 4.26664C17.9664 3.25974 16.0264 2.74184 14.0559 2.77039C12.0854 2.79894 10.1613 3.37283 8.49716 4.42839C6.83297 5.48396 5.49374 6.97992 4.62805 8.75032C3.76236 10.5207 3.40406 12.4963 3.59289 14.458C3.78171 16.4196 4.5103 18.2906 5.6978 19.8634V19.862ZM14.2098 14.7687C12.7953 14.7687 11.4388 14.2068 10.4386 13.2066C9.43837 12.2064 8.87646 10.8499 8.87646 9.43538C8.87646 8.0209 9.43837 6.66434 10.4386 5.66415C11.4388 4.66395 12.7953 4.10205 14.2098 4.10205C15.6243 4.10205 16.9808 4.66395 17.981 5.66415C18.9812 6.66434 19.5431 8.0209 19.5431 9.43538C19.5431 10.8499 18.9812 12.2064 17.981 13.2066C16.9808 14.2068 15.6243 14.7687 14.2098 14.7687ZM14.2098 12.102C14.917 12.102 15.5953 11.8211 16.0954 11.321C16.5955 10.8209 16.8765 10.1426 16.8765 9.43538C16.8765 8.72814 16.5955 8.04986 16.0954 7.54977C15.5953 7.04967 14.917 6.76872 14.2098 6.76872C13.5026 6.76872 12.8243 7.04967 12.3242 7.54977C11.8241 8.04986 11.5431 8.72814 11.5431 9.43538C11.5431 10.1426 11.8241 10.8209 12.3242 11.321C12.8243 11.8211 13.5026 12.102 14.2098 12.102Z" fill="#485760"/>
</svg>
