<svg width="41" height="37" viewBox="0 0 41 37" fill="none" xmlns="http://www.w3.org/2000/svg">
<path d="M10.955 8.5755C11.8354 9.44663 13.0241 9.93525 14.2626 9.93525C15.5012 9.93525 16.6897 9.44663 17.5701 8.5755C18.4414 7.70765 18.9324 6.52928 18.9351 5.2995C18.9351 2.799 16.9401 0.00149536 14.2551 0.00149536C11.5701 0.00149536 9.59016 2.799 9.59016 5.2995C9.5914 5.90844 9.71246 6.51117 9.94666 7.07327C10.1809 7.63537 10.5235 8.14583 10.955 8.5755ZM11.7801 5.301C11.7801 3.921 12.9501 2.175 14.2551 2.175C15.5601 2.175 16.745 3.921 16.745 5.301C16.7568 5.6306 16.7004 5.95908 16.5791 6.26577C16.4578 6.57245 16.2742 6.8507 16.04 7.083C15.8098 7.31954 15.5347 7.50772 15.2307 7.63651C14.9268 7.7653 14.6003 7.8321 14.2702 7.833C13.9356 7.83339 13.6042 7.76763 13.2951 7.6395C12.9909 7.51214 12.7154 7.32493 12.4851 7.08899C12.2509 6.8567 12.0675 6.57845 11.9462 6.27177C11.8248 5.96508 11.7683 5.6366 11.7801 5.307V5.301ZM5.16505 18.3255C4.06893 18.3234 3.00792 17.9387 2.16505 17.238C1.32998 16.538 0.767334 15.567 0.575144 14.4945C0.140144 12.0345 1.61007 8.9325 4.25007 8.4705C4.90874 8.38133 5.57894 8.44008 6.21205 8.64247C6.84516 8.84486 7.42518 9.1858 7.90998 9.6405C8.87725 10.4837 9.53682 11.6245 9.78498 12.8835C9.89017 13.4835 9.87501 14.0985 9.74012 14.6925C9.61504 15.2884 9.3645 15.8509 9.00514 16.3425C8.65679 16.8414 8.2133 17.2665 7.70014 17.5935C7.17713 17.9187 6.59665 18.1407 5.99012 18.2475C5.71789 18.2971 5.44176 18.3241 5.16505 18.3255ZM4.89515 10.584C4.80469 10.584 4.7143 10.5916 4.62507 10.6065C3.33507 10.833 2.49506 12.756 2.73506 14.1135C2.85193 14.7573 3.21865 15.3288 3.75514 15.7035C4.29699 16.0796 4.96557 16.2263 5.61512 16.1115C5.93494 16.0553 6.24065 15.9371 6.51509 15.7635C6.79107 15.592 7.03001 15.3671 7.21803 15.1021C7.40605 14.837 7.53934 14.5372 7.61006 14.22C7.67501 13.9037 7.68011 13.5781 7.62507 13.26C7.46252 12.4871 7.05159 11.7886 6.45503 11.271C6.03146 10.8674 5.47913 10.6262 4.89515 10.59V10.584ZM12.8 36.966C10.6547 36.9617 8.59703 36.1149 7.07008 34.608C6.32007 33.8638 5.72449 32.9787 5.31776 32.0036C4.91103 31.0285 4.70123 29.9825 4.70014 28.926C4.70014 27.021 6.42501 25.7205 7.94001 24.576H7.95503C9.02003 23.775 10.2201 22.869 10.2651 22.116C10.5051 15.516 14.21 11.562 20.165 11.562C26.12 11.562 29.825 15.519 30.065 22.149V22.188C30.065 23.142 31.31 24.015 32.495 24.858C33.965 25.899 35.6301 27.078 35.6301 28.938C35.629 29.9945 35.4189 31.0404 35.0122 32.0155C34.6054 32.9907 34.01 33.8758 33.26 34.62C31.7333 36.1273 29.6755 36.9742 27.5301 36.978L12.8 36.966ZM20.165 13.716C13.73 13.716 12.575 19.0365 12.455 22.203C12.335 23.9775 10.775 25.1505 9.27503 26.286C8.09003 27.1695 6.89009 28.086 6.89009 28.9095C6.89193 29.6817 7.04665 30.4459 7.34529 31.158C7.64392 31.8701 8.08063 32.516 8.63014 33.0585C9.74364 34.1617 11.2476 34.7805 12.815 34.7805H27.5301C29.0969 34.7775 30.5999 34.1591 31.7152 33.0585C32.2628 32.5153 32.6971 31.869 32.9932 31.1568C33.2893 30.4446 33.4411 29.6808 33.44 28.9095C33.44 28.1595 32.315 27.3675 31.22 26.595C29.66 25.491 27.8901 24.2385 27.8751 22.179C27.7551 19.017 26.6 13.716 20.165 13.716ZM26.2701 9.936C25.0348 9.93197 23.85 9.44411 22.97 8.577C22.0987 7.70915 21.6077 6.53078 21.605 5.301C21.605 2.8005 23.6001 0.00299525 26.2701 0.00299525C28.9401 0.00299525 30.9501 2.8005 30.9501 5.301C30.9475 6.53078 30.4564 7.70915 29.5851 8.577C28.7007 9.44651 27.5104 9.9355 26.2701 9.936ZM26.2701 2.175C24.9651 2.175 23.7951 3.921 23.7951 5.301C23.7833 5.6306 23.8397 5.95908 23.961 6.26577C24.0823 6.57245 24.2659 6.8507 24.5001 7.083C24.7303 7.31954 25.0055 7.50772 25.3094 7.63651C25.6133 7.7653 25.94 7.8321 26.2701 7.833C26.6047 7.83343 26.9359 7.76767 27.245 7.6395C27.5492 7.51214 27.8247 7.32493 28.0551 7.08899C28.2863 6.85291 28.4697 6.57428 28.595 6.2685C28.717 5.96315 28.7732 5.63553 28.76 5.307C28.76 3.9195 27.5901 2.175 26.2701 2.175ZM34.55 18.255C34.8224 18.3029 35.0985 18.327 35.3751 18.327C36.4712 18.3249 37.5322 17.9402 38.3751 17.2395C39.2101 16.5395 39.773 15.5685 39.9652 14.496C40.1612 13.2295 39.9344 11.9337 39.3201 10.809C39.042 10.203 38.6209 9.67375 38.0929 9.26666C37.5649 8.85957 36.9459 8.58688 36.2891 8.47206C35.6324 8.35724 34.9576 8.40373 34.3228 8.60753C33.688 8.81133 33.1123 9.16634 32.6451 9.642C31.6738 10.4842 31.009 11.6247 30.7551 12.885C30.6499 13.485 30.6651 14.1 30.8 14.694C30.925 15.29 31.1755 15.8525 31.535 16.344C31.8834 16.8428 32.327 17.268 32.8402 17.595C33.3629 17.9216 33.9432 18.1466 34.55 18.255ZM34.0851 11.265C34.5087 10.8614 35.0612 10.6202 35.6451 10.584C35.7356 10.5838 35.8258 10.5913 35.915 10.6065C36.2356 10.6919 36.5335 10.8467 36.7875 11.0601C37.0416 11.2734 37.2455 11.54 37.385 11.841C37.7757 12.5311 37.9237 13.3324 37.8051 14.1165C37.6883 14.76 37.3215 15.331 36.785 15.705C36.2434 16.0796 35.5761 16.2257 34.9276 16.1117C34.279 15.9977 33.7015 15.6328 33.3201 15.096C33.1334 14.8313 33.0014 14.5321 32.9319 14.2158C32.8623 13.8995 32.8566 13.5725 32.915 13.254C33.0777 12.4807 33.4886 11.7818 34.0851 11.2635V11.265Z" fill="black"/>
</svg>
