<svg width="48" height="48" viewBox="0 0 48 48" fill="none" xmlns="http://www.w3.org/2000/svg">
<g clip-path="url(#clip0_759_678)">
<path d="M43.7057 10.356C43.6852 10.2815 43.6495 10.212 43.6008 10.152L43.5257 10.074L43.4506 9.98852C43.398 9.96178 43.3427 9.94066 43.2857 9.92552H42.8658C42.8128 9.94533 42.7623 9.97152 42.7157 10.0035H42.6708C42.6021 10.0541 42.5414 10.1148 42.4908 10.1835V10.2465L39.3557 14.8035L34.1207 13.1835L33.9407 7.53902L39.1008 5.66852C39.1326 5.6567 39.1627 5.64108 39.1907 5.62202C39.2359 5.60498 39.2769 5.57837 39.3108 5.54402C39.3519 5.51692 39.3875 5.48232 39.4157 5.44202C39.4393 5.42177 39.4596 5.39798 39.4758 5.37152V5.32952L39.5807 5.18852V4.77452L39.5357 4.70402C39.5057 4.65502 39.4758 4.60802 39.4458 4.56302L39.3557 4.46852L39.2508 4.40552H39.1907C37.558 3.42574 35.6768 2.93912 33.7739 3.00433C31.8709 3.06953 30.0274 3.68378 28.4657 4.77302C26.8341 5.91084 25.5667 7.49641 24.8162 9.33848C24.0656 11.1806 23.864 13.2005 24.2357 15.1545L21.1607 17.292C21.0091 17.4043 20.9028 17.5671 20.8607 17.751C20.832 17.9378 20.8748 18.1285 20.9807 18.285C21.0479 18.3774 21.136 18.4526 21.2376 18.5047C21.3392 18.5568 21.4515 18.5843 21.5657 18.585C21.7105 18.5862 21.8521 18.5421 21.9707 18.459L25.4208 16.059C25.556 15.9669 25.6541 15.83 25.698 15.6724C25.7419 15.5148 25.7287 15.3468 25.6607 15.198V15.081C25.2841 13.3646 25.4252 11.575 26.0661 9.93878C26.7069 8.30254 27.8186 6.89317 29.2607 5.88902C30.3761 5.11369 31.6623 4.6191 33.0098 4.44727C34.3573 4.27543 35.7264 4.43143 37.0008 4.90202L32.9807 6.33452C32.8406 6.38521 32.7194 6.47771 32.6335 6.5995C32.5477 6.7213 32.5014 6.86651 32.5008 7.01552L32.6207 13.686C32.6231 13.8358 32.6721 13.9811 32.7608 14.1018C32.8495 14.2224 32.9736 14.3125 33.1158 14.3595L39.3857 16.2855C39.4552 16.2969 39.5262 16.2969 39.5957 16.2855C39.7111 16.2834 39.8243 16.2539 39.926 16.1994C40.0278 16.1449 40.1151 16.0669 40.1807 15.972L42.6408 12.372C42.7748 13.9266 42.4989 15.4892 41.841 16.9041C41.183 18.3189 40.1659 19.5367 38.8908 20.436C37.4082 21.4849 35.6341 22.0429 33.818 22.0316C32.0019 22.0203 30.2352 21.4403 28.7658 20.373L28.6158 20.2875L28.4957 20.2485H28.3607C28.3158 20.2448 28.2707 20.2448 28.2258 20.2485L28.1207 20.2875L27.9707 20.3505L24.9407 22.4505C24.8224 22.5677 24.7485 22.7223 24.7316 22.8878C24.7147 23.0534 24.7558 23.2198 24.8479 23.3584C24.9399 23.4971 25.0774 23.5995 25.2366 23.6481C25.3958 23.6967 25.5669 23.6886 25.7207 23.625L28.3607 21.786C29.9803 22.8719 31.8859 23.4524 33.8358 23.454C35.4161 23.4529 36.9747 23.0868 38.3903 22.3843C39.8059 21.6819 41.0403 20.662 41.997 19.4042C42.9537 18.1464 43.6068 16.6846 43.9058 15.1329C44.2049 13.5811 44.1416 11.9813 43.7207 10.458C43.7222 10.4234 43.7171 10.3888 43.7057 10.356ZM36.6858 38.196L30.4307 29.4045C30.3557 28.731 30.1607 26.4045 30.1607 26.4045C30.1551 26.2901 30.1205 26.179 30.0601 26.0816C29.9998 25.9843 29.9157 25.9039 29.8157 25.848C27.9857 24.759 27.9557 24.759 27.7457 24.759C27.5923 24.7694 27.4436 24.8151 27.3108 24.8925L25.6158 26.0925C19.3608 17.277 17.0808 14.1135 16.2258 12.9945L16.0008 10.3875C15.9862 10.2174 15.9118 10.0579 15.7907 9.93752L10.3157 4.51952C10.1991 4.37436 10.0309 4.2801 9.84621 4.25659C9.66154 4.23309 9.47484 4.28218 9.32564 4.39352L7.12069 5.95952C6.98664 6.05827 6.89108 6.20043 6.85006 6.36179C6.80903 6.52315 6.82505 6.69374 6.89565 6.84452L10.2108 13.8195C10.2828 13.9707 10.4046 14.0925 10.5557 14.1645L12.8057 15.159L22.2556 28.4685L20.6958 29.5875C20.6195 29.6375 20.549 29.6959 20.4857 29.7615C20.3207 29.9865 20.4107 30.399 20.8157 32.2815C20.8377 32.3925 20.886 32.4965 20.9565 32.585C21.027 32.6735 21.1175 32.7438 21.2207 32.79C21.2207 32.79 23.3356 33.7215 23.9506 34.0035L30.2207 42.804C30.5381 43.2752 30.964 43.6634 31.4625 43.9359C31.9611 44.2084 32.5178 44.3573 33.0858 44.37C33.7026 44.3716 34.305 44.1831 34.8108 43.83L36.1306 42.882C36.4782 42.6119 36.7688 42.2755 36.9852 41.8921C37.2016 41.5088 37.3397 41.0863 37.3913 40.6492C37.443 40.212 37.4072 39.769 37.286 39.3458C37.1649 38.9226 36.9609 38.5277 36.6858 38.184V38.196ZM13.8557 14.2155C13.7845 14.112 13.6859 14.0304 13.5708 13.98L11.3957 13.017L8.44069 6.80852L9.6708 5.97152L14.5608 10.7715L14.7707 13.1205C14.7704 13.2507 14.8186 13.3763 14.9058 13.473L24.4458 26.892L23.4107 27.642L13.8557 14.2155ZM33.9707 42.6345L35.3057 41.688C35.6722 41.3628 35.8998 40.9093 35.9417 40.4212C35.9835 39.933 35.8365 39.4474 35.5308 39.0645L29.1408 30.108C29.0358 29.9745 29.0358 29.9655 28.7808 26.9295L27.7757 26.3295L21.8806 30.495C21.9106 30.6825 21.9558 30.891 22.0008 31.095C22.0458 31.299 22.0907 31.485 22.1207 31.647C24.8507 32.847 24.8507 32.8605 24.9707 32.985L31.3908 41.985C31.6562 42.4026 32.0716 42.7027 32.5515 42.8235C33.0313 42.9443 33.5392 42.8767 33.9707 42.6345ZM18.6708 26.796L8.41067 33.936C8.10615 34.1553 7.76083 34.3113 7.39498 34.3948C7.02912 34.4783 6.65028 34.4875 6.28078 34.422C5.98041 34.3693 5.69378 34.2561 5.4385 34.0893C5.18322 33.9225 4.96463 33.7055 4.7958 33.4515C4.44369 32.8414 4.34064 32.119 4.50832 31.4348C4.67601 30.7506 5.10144 30.1576 5.69576 29.7795L16.0458 22.5795C16.1716 22.4635 16.2526 22.3068 16.2745 22.1371C16.2964 21.9673 16.2579 21.7952 16.1657 21.651C16.0708 21.5082 15.9273 21.4045 15.7618 21.3593C15.5963 21.3141 15.4202 21.3303 15.2658 21.405L4.8857 28.605C3.98421 29.192 3.34583 30.1062 3.10518 31.1547C2.86453 32.2032 3.04044 33.3041 3.59572 34.2255C3.87419 34.6338 4.23121 34.9825 4.64583 35.2513C5.06046 35.5202 5.52438 35.7038 6.0107 35.7915C6.26774 35.8407 6.52904 35.8643 6.79073 35.862C7.67154 35.8589 8.53021 35.5856 9.25075 35.079L19.5107 27.939C19.5884 27.886 19.6547 27.8181 19.7059 27.7392C19.7571 27.6603 19.792 27.572 19.8088 27.4794C19.8255 27.3869 19.8238 27.292 19.8035 27.2001C19.7832 27.1083 19.7448 27.0214 19.6907 26.9445C19.6349 26.866 19.5637 26.7996 19.4816 26.7493C19.3994 26.6991 19.3081 26.6659 19.2128 26.6519C19.1175 26.6379 19.0203 26.6433 18.9271 26.6678C18.834 26.6923 18.7468 26.7354 18.6708 26.7945V26.796Z" fill="black"/>
<path d="M13.8554 14.2157C13.7842 14.1121 13.6856 14.0306 13.5705 13.9802L11.3954 13.0172L8.44043 6.80868L9.67053 5.97168L14.5605 10.7717L14.7704 13.1207C14.7701 13.2509 14.8184 13.3765 14.9055 13.4732L24.4455 26.8922L23.4104 27.6422L13.8554 14.2157Z" fill="black"/>
</g>
<defs>
<clipPath id="clip0_759_678">
<rect width="48" height="48" fill="white"/>
</clipPath>
</defs>
</svg>
