<svg width="31" height="46" viewBox="0 0 31 46" fill="none" xmlns="http://www.w3.org/2000/svg">
<path d="M25.9825 45.5H25.9165C25.8372 45.49 25.7608 45.4635 25.6923 45.4222C25.6238 45.3808 25.5648 45.3256 25.519 45.26C25.4811 45.2021 25.4533 45.1382 25.4365 45.071C25.4265 45.0257 25.4225 44.9793 25.4245 44.933V40.9115C25.4233 40.5186 25.2663 40.1422 24.9879 39.8649C24.7095 39.5876 24.3325 39.4321 23.9395 39.4325H21.9055C21.5122 39.4317 21.1346 39.587 20.8556 39.8643C20.5766 40.1415 20.4191 40.5182 20.4175 40.9115V44.933C20.4193 44.9805 20.4142 45.028 20.4025 45.074C20.3868 45.1451 20.3567 45.2122 20.3141 45.2712C20.2716 45.3303 20.2175 45.3801 20.155 45.4175C20.0854 45.461 20.007 45.4887 19.9255 45.4985C19.8613 45.5049 19.7965 45.5008 19.7335 45.4865C19.6859 45.4765 19.64 45.4599 19.597 45.437C18.3815 44.8242 17.3621 43.8829 16.6545 42.7201C15.9469 41.5573 15.5793 40.2194 15.5935 38.8582C15.6077 37.4971 16.0031 36.1672 16.7349 35.0194C17.4667 33.8716 18.5055 32.9518 19.7335 32.3645V13.6385C18.5054 13.0513 17.4665 12.1317 16.7346 10.984C16.0027 9.83627 15.6071 8.50639 15.5928 7.14524C15.5784 5.78408 15.9458 4.44615 16.6533 3.28323C17.3608 2.12031 18.3801 1.17897 19.5955 0.566001C19.6398 0.543649 19.6867 0.526534 19.735 0.515001C19.7978 0.499696 19.8626 0.49463 19.927 0.500001C20.0065 0.509509 20.0829 0.536672 20.1505 0.579501C20.2208 0.62118 20.2806 0.678077 20.326 0.746001C20.361 0.800403 20.3869 0.860202 20.4025 0.923001C20.415 0.97197 20.42 1.02253 20.4175 1.073V5.099C20.4191 5.49233 20.5766 5.86896 20.8556 6.14624C21.1346 6.42352 21.5122 6.5788 21.9055 6.578H23.9395C24.3325 6.5784 24.7095 6.4229 24.9879 6.14562C25.2663 5.86834 25.4233 5.49193 25.4245 5.099V1.0775C25.4232 1.0307 25.4272 0.983893 25.4365 0.938001C25.4542 0.872832 25.4815 0.810655 25.5175 0.753501C25.5627 0.687461 25.6213 0.63169 25.6896 0.589822C25.7578 0.547954 25.8341 0.520927 25.9135 0.510501C25.9807 0.501608 26.0489 0.505681 26.1145 0.522501C26.1597 0.534129 26.2035 0.55073 26.245 0.572001C27.4602 1.18471 28.4794 2.12568 29.187 3.28818C29.8946 4.45069 30.2623 5.78821 30.2484 7.14907C30.2345 8.50993 29.8395 9.83967 29.1083 10.9875C28.3771 12.1353 27.339 13.0552 26.1115 13.643V32.3705C27.339 32.9583 28.3771 33.8782 29.1083 35.026C29.8395 36.1738 30.2345 37.5036 30.2484 38.8644C30.2623 40.2253 29.8946 41.5628 29.187 42.7253C28.4794 43.8878 27.4602 44.8288 26.245 45.4415C26.2015 45.4645 26.155 45.4817 26.107 45.4925C26.0658 45.4992 26.0242 45.5017 25.9825 45.5ZM21.904 38.3105H23.938C24.6274 38.3105 25.2887 38.5841 25.7766 39.0712C26.2646 39.5583 26.5393 40.2191 26.5405 40.9085V43.9535C27.4355 43.3161 28.1438 42.451 28.5921 41.4478C29.0403 40.4445 29.2122 39.3397 29.0898 38.2477C28.9674 37.1558 28.5552 36.1164 27.896 35.2373C27.2368 34.3582 26.3544 33.6714 25.3405 33.248C25.3106 33.236 25.2815 33.2219 25.2535 33.206C25.1829 33.1618 25.1225 33.103 25.0765 33.0335C25.0328 32.9682 25.0045 32.8938 24.994 32.816C24.9911 32.7821 24.9911 32.7479 24.994 32.714V13.289C24.991 13.1759 25.0225 13.0645 25.084 12.9695C25.1295 12.8999 25.1899 12.8415 25.261 12.7985C25.2886 12.7812 25.3177 12.7667 25.348 12.755C26.3616 12.3312 27.2435 11.6442 27.9024 10.7652C28.5613 9.88607 28.9732 8.84685 29.0956 7.75508C29.218 6.6633 29.0464 5.55866 28.5985 4.55551C28.1506 3.55236 27.4426 2.68717 26.548 2.0495V5.096C26.5482 5.43789 26.481 5.77647 26.3503 6.0924C26.2196 6.40832 26.0279 6.69539 25.7863 6.93722C25.5446 7.17904 25.2576 7.37087 24.9418 7.50175C24.6259 7.63264 24.2874 7.7 23.9455 7.7H21.9115C21.2219 7.7 20.5605 7.42648 20.0724 6.93943C19.5842 6.45238 19.3091 5.79158 19.3075 5.102V2.0495C18.4122 2.68719 17.7036 3.55266 17.2553 4.55626C16.8069 5.55986 16.635 6.66509 16.7574 7.75745C16.8798 8.84982 17.292 9.8896 17.9514 10.7691C18.6107 11.6486 19.4933 12.3358 20.5075 12.7595C20.5381 12.7717 20.5677 12.7863 20.596 12.803C20.6651 12.8446 20.7235 12.9016 20.767 12.9695C20.8121 13.0356 20.8419 13.1109 20.854 13.19C20.8569 13.2239 20.8569 13.2581 20.854 13.292V32.7125C20.857 32.7459 20.857 32.7796 20.854 32.813C20.8422 32.8933 20.8119 32.9698 20.7655 33.0365C20.7221 33.1021 20.6654 33.1578 20.599 33.2C20.5703 33.2188 20.5396 33.2344 20.5075 33.2465C19.4933 33.6702 18.6107 34.3574 17.9514 35.2369C17.292 36.1164 16.8798 37.1562 16.7574 38.2486C16.635 39.3409 16.8069 40.4461 17.2553 41.4497C17.7036 42.4533 18.4122 43.3188 19.3075 43.9565V40.9115C19.3079 40.2226 19.5814 39.5619 20.0681 39.0743C20.5549 38.5868 21.215 38.3121 21.904 38.3105ZM8.23001 45.5H3.49747C2.83547 45.5 2.20058 45.2373 1.73206 44.7697C1.26353 44.302 0.999727 43.6675 0.998535 43.0055V29.15C0.998979 28.6726 1.1364 28.2054 1.39459 27.8039C1.65278 27.4024 2.02081 27.0835 2.45496 26.885V25.7645C2.45685 25.2929 2.62578 24.8373 2.93167 24.4784C3.23757 24.1195 3.66067 23.8806 4.12598 23.804V8.408L2.68448 7.1615C2.60363 7.09175 2.54479 7.00004 2.51501 6.8975C2.48437 6.79525 2.48437 6.68625 2.51501 6.584L4.1485 0.906501C4.18151 0.789496 4.25179 0.686472 4.34872 0.613097C4.44566 0.539722 4.56388 0.50001 4.68546 0.500001H7.04202C7.16385 0.499682 7.28243 0.539243 7.37967 0.612643C7.4769 0.686043 7.54746 0.789249 7.58054 0.906501L9.21402 6.584C9.24467 6.68625 9.24467 6.79525 9.21402 6.8975C9.18424 7.00004 9.12531 7.09175 9.04446 7.1615L7.60297 8.408V23.798C8.06813 23.8746 8.49108 24.1136 8.79672 24.4725C9.10237 24.8314 9.27099 25.2871 9.27252 25.7585V26.879C9.70718 27.077 10.0757 27.3957 10.3343 27.7973C10.5928 28.1989 10.7303 28.6664 10.7305 29.144V43.0055C10.7289 43.6676 10.4647 44.3021 9.99597 44.7697C9.52721 45.2374 8.89215 45.5 8.23001 45.5ZM7.92999 44.381H8.23001C8.59575 44.3818 8.94683 44.2374 9.20615 43.9795C9.46547 43.7215 9.61181 43.3712 9.61301 43.0055V29.15C9.61102 28.7846 9.46442 28.435 9.20523 28.1774C8.94604 27.9199 8.59537 27.7756 8.23001 27.776H3.49747C3.13213 27.7752 2.78147 27.9195 2.52243 28.1771C2.26339 28.4347 2.11722 28.7847 2.11603 29.15V43.0115C2.11722 43.377 2.26334 43.7271 2.52234 43.9849C2.78133 44.2428 3.13199 44.3874 3.49747 44.387H3.79749V31.643C3.812 31.1038 4.03641 30.5916 4.42288 30.2154C4.80936 29.8392 5.32741 29.6287 5.86676 29.6287C6.40611 29.6287 6.92416 29.8392 7.31064 30.2154C7.69711 30.5916 7.92152 31.1038 7.93604 31.643L7.92999 44.381ZM4.90747 44.381H6.81104V31.643C6.80127 31.3971 6.69668 31.1646 6.51926 30.994C6.34184 30.8235 6.10533 30.7283 5.85925 30.7283C5.61318 30.7283 5.37667 30.8235 5.19925 30.994C5.02183 31.1646 4.91723 31.3971 4.90747 31.643V44.381ZM3.56952 26.651H8.14752V25.76C8.14713 25.6452 8.1241 25.5317 8.07977 25.4258C8.03544 25.3199 7.97066 25.2239 7.88916 25.143C7.80766 25.0622 7.71104 24.9983 7.6048 24.9549C7.49856 24.9115 7.38476 24.8894 7.26999 24.89H4.44852C4.21722 24.8892 3.99493 24.9799 3.83026 25.1423C3.66559 25.3048 3.57189 25.5257 3.56952 25.757V26.651ZM5.24054 23.7695H6.47952V8.15C6.48056 8.07081 6.49792 7.99268 6.53052 7.9205C6.56156 7.85369 6.60593 7.79396 6.66098 7.745L6.67453 7.7315L8.035 6.554L6.61749 1.625H5.10248L3.68497 6.554L5.047 7.7345C5.11153 7.7869 5.16287 7.85368 5.19696 7.9295C5.22554 7.99286 5.24189 8.06107 5.24503 8.1305V23.7755L5.24054 23.7695Z" fill="black"/>
</svg>
