<svg width="29" height="46" viewBox="0 0 29 46" fill="none" xmlns="http://www.w3.org/2000/svg">
<path d="M2.6225 45.5C2.34337 45.5061 2.06589 45.4558 1.80661 45.3523C1.54734 45.2487 1.3116 45.0939 1.11348 44.8972C0.915364 44.7005 0.758929 44.4659 0.653523 44.2073C0.548118 43.9488 0.495904 43.6717 0.500002 43.3925V2.609C0.495701 2.32972 0.547764 2.05243 0.653078 1.79372C0.758393 1.53501 0.914796 1.3002 1.11294 1.10332C1.31108 0.906439 1.54688 0.751537 1.80626 0.647875C2.06563 0.544214 2.34325 0.493921 2.6225 0.500005H26.6825C26.9618 0.493927 27.2395 0.544213 27.499 0.647858C27.7584 0.751502 27.9943 0.90638 28.1926 1.10324C28.3908 1.3001 28.5474 1.53489 28.6529 1.79361C28.7583 2.05232 28.8106 2.32964 28.8065 2.609V43.3925C28.8106 43.6718 28.7583 43.949 28.6528 44.2077C28.5473 44.4663 28.3908 44.701 28.1925 44.8978C27.9942 45.0945 27.7583 45.2492 27.4989 45.3527C27.2394 45.4562 26.9618 45.5063 26.6825 45.5H2.6225ZM1.9145 41.282H13.238V1.9055H2.6225C2.52839 1.89964 2.43409 1.91378 2.34584 1.94699C2.25758 1.98021 2.17737 2.03175 2.11047 2.09821C2.04358 2.16468 1.99153 2.24457 1.95775 2.33261C1.92397 2.42065 1.90923 2.51485 1.9145 2.609V41.282ZM1.9145 43.3925C1.90943 43.4865 1.92433 43.5804 1.95822 43.6682C1.99211 43.756 2.04422 43.8356 2.11112 43.9018C2.17801 43.968 2.25817 44.0193 2.34632 44.0522C2.43447 44.0852 2.52859 44.0991 2.6225 44.093H26.6825C26.7764 44.0991 26.8705 44.0852 26.9587 44.0522C27.0468 44.0193 27.127 43.968 27.1939 43.9018C27.2608 43.8356 27.3129 43.756 27.3468 43.6682C27.3807 43.5804 27.3956 43.4865 27.3905 43.3925V42.689H1.9145V43.3925ZM4.7465 23C4.37251 23 4.0137 22.8521 3.74841 22.5885C3.48311 22.3248 3.33288 21.967 3.3305 21.593V15.968C3.33288 15.5942 3.48316 15.2365 3.7485 14.9731C4.01384 14.7097 4.37265 14.5621 4.7465 14.5625H7.577C7.95086 14.5621 8.30967 14.7097 8.575 14.9731C8.84034 15.2365 8.99062 15.5942 8.993 15.968V21.5945C8.99062 21.9685 8.84039 22.3263 8.5751 22.59C8.3098 22.8536 7.95099 23.0015 7.577 23.0015L4.7465 23ZM4.7465 17.375H7.5785V15.9665H4.7465V17.375ZM7.577 18.7805H4.7465V21.5945H7.577V18.7805ZM10.409 8.9375C10.409 8.74973 10.4836 8.56965 10.6164 8.43687C10.7491 8.3041 10.9292 8.2295 11.117 8.2295C11.3048 8.2295 11.4849 8.3041 11.6176 8.43687C11.7504 8.56965 11.825 8.74973 11.825 8.9375V31.4375C11.825 31.6253 11.7504 31.8054 11.6176 31.9381C11.4849 32.0709 11.3048 32.1455 11.117 32.1455C10.9292 32.1455 10.7491 32.0709 10.6164 31.9381C10.4836 31.8054 10.409 31.6253 10.409 31.4375V8.9375ZM14.6555 41.282H27.3935V2.609C27.3988 2.51485 27.384 2.42065 27.3503 2.33261C27.3165 2.24457 27.2644 2.16468 27.1975 2.09821C27.1306 2.03175 27.0504 1.98021 26.9622 1.94699C26.8739 1.91378 26.7796 1.89964 26.6855 1.9055H14.657L14.6555 41.282ZM16.07 8.939C16.07 8.84603 16.0883 8.75396 16.1239 8.66807C16.1595 8.58217 16.2116 8.50412 16.2774 8.43837C16.3431 8.37263 16.4212 8.32048 16.5071 8.2849C16.593 8.24932 16.685 8.231 16.778 8.231C16.871 8.231 16.963 8.24932 17.0489 8.2849C17.1348 8.32048 17.2129 8.37263 17.2786 8.43837C17.3444 8.50412 17.3965 8.58217 17.4321 8.66807C17.4677 8.75396 17.486 8.84603 17.486 8.939V31.439C17.486 31.6268 17.4114 31.8069 17.2786 31.9396C17.1459 32.0724 16.9658 32.147 16.778 32.147C16.5902 32.147 16.4101 32.0724 16.2774 31.9396C16.1446 31.8069 16.07 31.6268 16.07 31.439V8.939ZM22.4405 3.314H25.271C25.3634 3.314 25.4549 3.3322 25.5402 3.36756C25.6256 3.40291 25.7031 3.45473 25.7685 3.52005C25.8338 3.58538 25.8856 3.66293 25.921 3.74829C25.9563 3.83364 25.9745 3.92512 25.9745 4.0175C25.9745 4.10989 25.9563 4.20137 25.921 4.28672C25.8856 4.37207 25.8338 4.44963 25.7685 4.51495C25.7031 4.58028 25.6256 4.6321 25.5402 4.66745C25.4549 4.70281 25.3634 4.721 25.271 4.721H22.4405C22.3481 4.721 22.2566 4.70281 22.1713 4.66745C22.0859 4.6321 22.0084 4.58028 21.9431 4.51495C21.8777 4.44963 21.8259 4.37207 21.7906 4.28672C21.7552 4.20137 21.737 4.10989 21.737 4.0175C21.737 3.92512 21.7552 3.83364 21.7906 3.74829C21.8259 3.66293 21.8777 3.58538 21.9431 3.52005C22.0084 3.45473 22.0859 3.40291 22.1713 3.36756C22.2566 3.3322 22.3481 3.314 22.4405 3.314Z" fill="black"/>
</svg>
