<svg width="46" height="46" viewBox="0 0 46 46" fill="none" xmlns="http://www.w3.org/2000/svg">
<path d="M44.8279 27.5825H42.0245V5.69754C41.8505 3.95304 40.6865 0.623037 37.5245 0.504537C34.154 0.369537 32.7244 3.44904 32.3344 5.46804H30.0319C29.8529 5.46804 29.6812 5.53915 29.5547 5.66574C29.4281 5.79233 29.3569 5.96402 29.3569 6.14304C29.3569 6.32206 29.4281 6.49375 29.5547 6.62033C29.6812 6.74692 29.8529 6.81804 30.0319 6.81804H35.9525C36.1315 6.81804 36.3031 6.74692 36.4297 6.62033C36.5563 6.49375 36.6274 6.32206 36.6274 6.14304C36.6274 5.96402 36.5563 5.79233 36.4297 5.66574C36.3031 5.53915 36.1315 5.46804 35.9525 5.46804H33.7025C33.9845 4.23504 34.8739 1.75254 37.4764 1.84854C40.2439 1.95204 40.6624 5.67354 40.6759 5.76504V27.5825H1.16594C0.987576 27.5825 0.816494 27.6533 0.690231 27.7793C0.563969 27.9053 0.492829 28.0762 0.492432 28.2545V31.2125C0.492828 31.391 0.56392 31.5621 0.69014 31.6883C0.81636 31.8146 0.987438 31.8856 1.16594 31.886H2.12445C2.16345 34.136 2.74693 42.7865 9.38893 45.0335C9.45861 45.0566 9.53156 45.0682 9.60495 45.068L36.2479 45.035C38.5879 45.035 43.0879 40.385 43.2679 31.886H44.8219C44.9105 31.8861 44.9981 31.8687 45.0799 31.835C45.1617 31.8001 45.2357 31.7491 45.2974 31.685C45.3619 31.6231 45.413 31.5485 45.4474 31.466C45.4815 31.3858 45.4993 31.2997 45.4999 31.2125V28.259C45.4997 28.1706 45.4824 28.083 45.4489 28.001C45.4138 27.9189 45.3628 27.8445 45.2989 27.782C45.2372 27.7179 45.1633 27.6669 45.0815 27.632C45.0009 27.5993 44.9148 27.5825 44.8279 27.5825ZM36.2479 43.6865L9.71893 43.7195C4.24693 41.7815 3.56143 34.307 3.47893 32.0405H41.9299C41.7139 40.0505 37.5499 43.691 36.2479 43.691V43.6865ZM44.1484 30.5375H1.84993V28.9325H44.1499L44.1484 30.5375Z" fill="black"/>
</svg>
