<svg width="48" height="48" viewBox="0 0 48 48" fill="none" xmlns="http://www.w3.org/2000/svg">
<g clip-path="url(#clip0_755_701)">
<path d="M39.945 4.50002H8.055C7.58826 4.49863 7.12588 4.58944 6.69434 4.76723C6.26279 4.94502 5.87053 5.20629 5.54023 5.53604C5.20992 5.8658 4.94805 6.25754 4.76953 6.68878C4.59102 7.12003 4.49941 7.58228 4.5 8.04902V39.951C4.49941 40.4177 4.59102 40.88 4.76953 41.3112C4.94805 41.7425 5.20992 42.1342 5.54023 42.464C5.87053 42.7937 6.26279 43.055 6.69434 43.2328C7.12588 43.4106 7.58826 43.5014 8.055 43.5H39.945C40.4117 43.5014 40.8741 43.4106 41.3057 43.2328C41.7372 43.055 42.1295 42.7937 42.4598 42.464C42.7901 42.1342 43.052 41.7425 43.2305 41.3112C43.409 40.88 43.5006 40.4177 43.5 39.951V8.04902C43.5006 7.58228 43.409 7.12003 43.2305 6.68878C43.052 6.25754 42.7901 5.8658 42.4598 5.53604C42.1295 5.20629 41.7372 4.94502 41.3057 4.76723C40.8741 4.58944 40.4117 4.49863 39.945 4.50002ZM41.7299 39.951C41.7269 40.4223 41.5383 40.8734 41.205 41.2065C41.0399 41.3725 40.8436 41.5039 40.6273 41.5933C40.411 41.6826 40.1791 41.7281 39.945 41.727H8.055C7.82096 41.7281 7.58906 41.6826 7.37274 41.5933C7.15643 41.5039 6.96009 41.3725 6.79505 41.2065C6.46168 40.8734 6.27308 40.4223 6.27008 39.951V8.04902C6.27405 7.57794 6.4625 7.12719 6.79505 6.79352C6.96009 6.62757 7.15643 6.4961 7.37274 6.40674C7.58906 6.31739 7.82096 6.27193 8.055 6.27302H39.945C40.1791 6.27193 40.411 6.31739 40.6273 6.40674C40.8436 6.4961 41.0399 6.62757 41.205 6.79352C41.5375 7.12719 41.726 7.57794 41.7299 8.04902V39.951Z" fill="black"/>
<path d="M37.2901 16.9109H10.7102C10.5937 16.9099 10.4782 16.9321 10.3703 16.9763C10.2625 17.0204 10.1645 17.0855 10.0821 17.1679C9.99974 17.2503 9.93453 17.3482 9.89041 17.4561C9.84629 17.5639 9.82423 17.6794 9.82523 17.7959V37.2959C9.82423 37.4124 9.84629 37.528 9.89041 37.6358C9.93453 37.7436 9.99974 37.8416 10.0821 37.9239C10.1645 38.0063 10.2625 38.0715 10.3703 38.1156C10.4782 38.1597 10.5937 38.1819 10.7102 38.1809H37.2901C37.4066 38.1819 37.5222 38.1597 37.63 38.1156C37.7378 38.0715 37.8358 38.0063 37.9182 37.9239C38.0006 37.8416 38.0658 37.7436 38.1099 37.6358C38.154 37.528 38.1761 37.4124 38.1751 37.2959V17.7959C38.1761 17.6794 38.154 17.5639 38.1099 17.4561C38.0658 17.3482 38.0006 17.2503 37.9182 17.1679C37.8358 17.0855 37.7378 17.0204 37.63 16.9763C37.5222 16.9321 37.4066 16.9099 37.2901 16.9109ZM36.4052 36.4109H11.5951V18.7109H36.4052V36.4109Z" fill="black"/>
<path d="M16.0201 22.2255H31.98C32.0935 22.2261 32.206 22.2031 32.3101 22.158C32.422 22.1149 32.524 22.0496 32.61 21.966C32.686 21.8816 32.7469 21.7846 32.79 21.6795C32.8394 21.5736 32.8649 21.4582 32.8649 21.3413C32.8649 21.2244 32.8394 21.109 32.79 21.003C32.7469 20.8979 32.686 20.801 32.61 20.7165C32.524 20.633 32.422 20.5677 32.3101 20.5245C32.206 20.4795 32.0935 20.4565 31.98 20.457H16.0201C15.7854 20.457 15.5603 20.5503 15.3943 20.7163C15.2283 20.8822 15.135 21.1073 15.135 21.342C15.135 21.5768 15.2283 21.8019 15.3943 21.9678C15.5603 22.1338 15.7854 22.2255 16.0201 22.2255Z" fill="black"/>
<path d="M14.25 31.9786C14.4859 31.978 14.7122 31.8849 14.88 31.7191L20.1749 26.4211C20.266 26.3389 20.3421 26.2414 20.3999 26.1331C20.4475 26.0216 20.473 25.9019 20.475 25.7806C20.4851 25.6585 20.4645 25.5358 20.4149 25.4236C20.3725 25.3107 20.3059 25.2083 20.2199 25.1236C20.1325 25.0403 20.031 24.9732 19.92 24.9256C19.8052 24.8816 19.6829 24.8607 19.56 24.8641C19.4401 24.8683 19.3226 24.8979 19.2151 24.9511C19.1014 25.0033 18.9993 25.0778 18.9149 25.1701L13.6199 30.4681C13.4959 30.5925 13.4117 30.7508 13.3777 30.9231C13.3436 31.0954 13.3615 31.2739 13.4289 31.4361C13.4964 31.5983 13.6103 31.7368 13.7565 31.8342C13.9027 31.9315 14.0743 31.9834 14.25 31.9831V31.9786Z" fill="black"/>
<path d="M20.7151 28.6874L17.175 32.2364C17.0894 32.3162 17.0228 32.4141 16.98 32.5229C16.9307 32.6291 16.9053 32.7448 16.9053 32.8619C16.9053 32.979 16.9307 33.0947 16.98 33.2009C17.0228 33.3098 17.0894 33.4077 17.175 33.4874C17.2553 33.5713 17.3525 33.6372 17.4601 33.6809C17.5646 33.7247 17.6767 33.7472 17.79 33.7469C17.9084 33.7478 18.0257 33.7249 18.135 33.6794C18.2424 33.6361 18.3396 33.5707 18.4201 33.4874L21.9601 29.9429C22.0455 29.863 22.1121 29.7652 22.1551 29.6564C22.2045 29.5502 22.23 29.4345 22.23 29.3174C22.23 29.2003 22.2045 29.0846 22.1551 28.9784C22.112 28.8728 22.0511 28.7754 21.9751 28.6904C21.889 28.6069 21.7869 28.5416 21.675 28.4984C21.5709 28.4533 21.4585 28.4303 21.345 28.4309C21.2266 28.431 21.1094 28.4544 21.0001 28.4999C20.895 28.5455 20.7986 28.609 20.7151 28.6874Z" fill="black"/>
<path d="M17.79 15.1381H30.21C30.4412 15.1361 30.6624 15.0429 30.8251 14.8786C30.9936 14.7135 31.0904 14.4889 31.095 14.2531V10.7041C31.0904 10.4683 30.9936 10.2437 30.8251 10.0786C30.6624 9.91432 30.4412 9.82104 30.21 9.81909H17.79C17.5588 9.82104 17.3376 9.91432 17.1749 10.0786C17.0064 10.2437 16.9096 10.4683 16.905 10.7041V14.2501C16.9096 14.4859 17.0064 14.7105 17.1749 14.8756C17.3372 15.041 17.5583 15.1354 17.79 15.1381ZM18.705 11.5936H29.295V13.3636H18.705V11.5936Z" fill="black"/>
<path d="M35.5201 9.81902C34.9965 9.81927 34.4847 9.97473 34.0495 10.2657C33.6143 10.5568 33.2753 10.9703 33.075 11.454C32.8762 11.9383 32.8239 12.4703 32.9249 12.984C33.0319 13.4932 33.2818 13.9615 33.6451 14.334C33.9221 14.6117 34.2572 14.8245 34.6265 14.9569C34.9958 15.0892 35.3899 15.138 35.7802 15.0995C36.1706 15.061 36.5475 14.9363 36.8838 14.7344C37.2201 14.5325 37.5075 14.2585 37.725 13.932C38.0146 13.4956 38.1708 12.9843 38.1749 12.4605C38.1733 11.7574 37.893 11.0836 37.3952 10.587C36.8975 10.0904 36.2232 9.81152 35.5201 9.81152V9.81902ZM35.5201 13.3635C35.3439 13.363 35.1717 13.3109 35.0249 13.2135C34.8834 13.1146 34.774 12.9764 34.71 12.816C34.638 12.6557 34.617 12.4771 34.6499 12.3045C34.6899 12.1364 34.7726 11.9814 34.89 11.8545C35.0187 11.7313 35.18 11.6475 35.3549 11.613C35.5254 11.5782 35.7025 11.5955 35.863 11.6627C36.0235 11.7298 36.1601 11.8437 36.255 11.9895C36.356 12.1334 36.4085 12.3058 36.405 12.4815C36.406 12.598 36.3838 12.7136 36.3396 12.8214C36.2955 12.9292 36.2303 13.0272 36.1479 13.1095C36.0655 13.1919 35.9677 13.2571 35.8599 13.3012C35.7521 13.3453 35.6366 13.3675 35.5201 13.3665V13.3635Z" fill="black"/>
<path d="M12.48 15.138C13.0039 15.1375 13.5159 14.9816 13.9511 14.6901C14.3863 14.3985 14.7253 13.9843 14.925 13.5C15.1239 13.0157 15.1762 12.4837 15.0752 11.97C14.9681 11.4608 14.7183 10.9926 14.355 10.62C14.078 10.3423 13.7429 10.1296 13.3736 9.99719C13.0043 9.86481 12.6102 9.8161 12.2198 9.85456C11.8295 9.89303 11.4526 10.0177 11.1163 10.2196C10.7799 10.4215 10.4926 10.6956 10.2751 11.022C9.98553 11.4585 9.82929 11.9698 9.8252 12.4935C9.82678 13.1966 10.1071 13.8704 10.6049 14.367C11.1026 14.8636 11.7769 15.1425 12.48 15.1425V15.138ZM12.48 11.5935C12.6562 11.594 12.8284 11.6462 12.9752 11.7435C13.1167 11.8425 13.2261 11.9806 13.2901 12.141C13.3621 12.3013 13.3831 12.4799 13.3502 12.6525C13.3102 12.8207 13.2275 12.9757 13.1101 13.1025C12.9814 13.2258 12.8201 13.3096 12.6452 13.344C12.4747 13.3788 12.2976 13.3615 12.1371 13.2944C11.9766 13.2272 11.84 13.1133 11.7451 12.9675C11.6441 12.8236 11.5916 12.6513 11.5951 12.4755C11.5941 12.359 11.6163 12.2435 11.6605 12.1357C11.7046 12.0278 11.7698 11.9299 11.8522 11.8475C11.9346 11.7651 12.0324 11.7 12.1402 11.6559C12.248 11.6117 12.3635 11.5895 12.48 11.5905V11.5935Z" fill="black"/>
</g>
<defs>
<clipPath id="clip0_755_701">
<rect width="48" height="48" fill="white"/>
</clipPath>
</defs>
</svg>
